<svg width="1466" height="1681" viewBox="0 0 1466 1681" fill="none" xmlns="http://www.w3.org/2000/svg">
<path d="M988.234 888.405C959.078 888.405 930.265 885.547 901.566 879.83C872.981 874.113 845.197 865.766 818.328 854.561C791.344 843.356 765.732 829.75 741.493 813.514C717.253 797.278 694.843 778.87 674.148 758.289C653.567 737.708 635.159 715.183 618.923 690.944C602.687 666.704 589.08 641.092 577.875 614.223C566.67 587.239 558.323 559.455 552.607 530.871C546.89 502.286 544.031 473.359 544.031 444.203C544.031 415.046 546.89 386.119 552.607 357.534C558.323 328.95 566.67 301.166 577.875 274.182C589.08 247.313 602.687 221.701 618.923 197.461C635.159 173.222 653.567 150.697 674.148 130.116C694.843 109.536 717.253 91.1273 741.493 74.8913C765.732 58.6553 791.344 44.9348 818.328 33.844C845.197 22.6389 872.981 14.1779 901.566 8.57534C930.265 2.85846 959.078 0 988.234 0C1017.39 0 1046.32 2.85846 1074.9 8.57534C1103.49 14.1779 1131.27 22.6389 1158.25 33.844C1185.24 44.9348 1210.74 58.6553 1235.09 74.8913C1259.33 91.1273 1281.74 109.536 1302.32 130.116C1323.02 150.697 1341.42 173.222 1357.55 197.461C1373.78 221.701 1387.5 247.313 1398.59 274.182C1409.8 301.166 1418.26 328.95 1423.86 357.534C1429.58 386.119 1432.44 415.046 1432.44 444.203C1432.44 473.359 1429.58 502.286 1423.86 530.871C1418.26 559.455 1409.8 587.239 1398.59 614.223C1387.5 641.092 1373.78 666.704 1357.55 690.944C1341.42 715.183 1323.02 737.708 1302.32 758.289C1281.74 778.87 1259.33 797.278 1235.09 813.514C1210.74 829.75 1185.24 843.356 1158.25 854.561C1131.27 865.766 1103.49 874.113 1074.9 879.83C1046.32 885.547 1017.39 888.405 988.234 888.405Z" fill="#74E0EF"/>
<path d="M390.921 0.133789V1670.15H0V0.133789H390.921Z" fill="#7A63FF"/>
<path d="M1465.02 1681H576.729V899.271L1465.02 1681Z" fill="#E7E7E7"/>
</svg>
