<?xml version="1.0" encoding="UTF-8"?>
<svg version="1.1" xmlns="http://www.w3.org/2000/svg" width="600" height="238">
<path d="M0 0 C3.70296419 1.51294925 5.7200164 3.6805874 8.3125 6.6875 C11.00677588 9.76100292 13.70195039 12.76793345 16.625 15.625 C18.95564224 17.91307344 21.12867816 20.26674648 23.25 22.75 C26.2092374 26.19798023 29.38199871 29.38489923 32.625 32.5625 C42.80028378 42.65333444 42.80028378 42.65333444 43.25 47.9375 C39.84998682 56.26753229 31.2881785 62.79397051 24.9609375 69 C21.01051801 72.90466174 17.27643342 76.91283625 13.65185547 81.12109375 C11.23765865 83.86712667 8.67023629 86.43915247 6.0625 89 C5.32290039 89.73283203 5.32290039 89.73283203 4.56835938 90.48046875 C3.38126771 91.65603525 2.19099502 92.82838826 1 94 C-9.24714829 85.42585551 -9.24714829 85.42585551 -13 81 C-13 80.34 -13 79.68 -13 79 C-14.485 78.505 -14.485 78.505 -16 78 C-17.54296875 76.43359375 -17.54296875 76.43359375 -19.1875 74.4375 C-21.68326212 71.48987358 -24.24219097 68.70425934 -27 66 C-30.32765042 62.72404123 -33.42526885 59.31197733 -36.45703125 55.76171875 C-37.96616907 53.98650425 -37.96616907 53.98650425 -39.6328125 52.4375 C-41.94819106 50.00304483 -42.06282211 48.32957177 -42 45 C-38.18756506 38.29255597 -32.15921497 32.95191417 -26.6875 27.625 C-25.06424156 26.03606261 -23.4430366 24.44502376 -21.82421875 22.8515625 C-21.11354248 22.15885254 -20.40286621 21.46614258 -19.6706543 20.75244141 C-17.92331101 19.0911865 -17.92331101 19.0911865 -17 17 C-16.34 17 -15.68 17 -15 17 C-14.73268066 16.40670898 -14.46536133 15.81341797 -14.18994141 15.20214844 C-12.98415007 12.97066755 -11.7641905 11.5335201 -9.9609375 9.765625 C-9.38085938 9.19199219 -8.80078125 8.61835938 -8.203125 8.02734375 C-7.59984375 7.44082031 -6.9965625 6.85429687 -6.375 6.25 C-5.76398438 5.64800781 -5.15296875 5.04601562 -4.5234375 4.42578125 C-3.02011376 2.94594695 -1.51065144 1.47235324 0 0 Z M-3.7890625 18.65625 C-4.56636719 19.43226562 -5.34367187 20.20828125 -6.14453125 21.0078125 C-7.37236328 22.24144531 -7.37236328 22.24144531 -8.625 23.5 C-9.42035156 24.29148437 -10.21570313 25.08296875 -11.03515625 25.8984375 C-15.36013343 30.23051645 -19.5333404 34.6322376 -23.50537109 39.29101562 C-25 41 -25 41 -26.65844727 42.55029297 C-28.25664893 44.02552395 -28.25664893 44.02552395 -28.56640625 46.7890625 C-27.75414228 51.39375894 -25.31047587 53.31020085 -21.9375 56.375 C-20.73256384 57.52023285 -19.52942409 58.66735885 -18.328125 59.81640625 C-17.45897461 60.63842529 -17.45897461 60.63842529 -16.57226562 61.47705078 C-14.66002389 63.32931226 -12.90832193 65.28209095 -11.1875 67.3125 C-7.68554742 71.43917276 -3.87004229 75.22042623 0 79 C5.24284116 74.6309657 10.51941304 70.16722236 15 65 C15 64.34 15 63.68 15 63 C15.66 63 16.32 63 17 63 C18.63675508 61.38200498 18.63675508 61.38200498 20.3125 59.3125 C22.44236486 56.77715878 24.45652914 54.59203779 26.9375 52.375 C29.21982705 50.16163877 29.21982705 50.16163877 29.4765625 47.21875 C28.83313049 42.87294693 26.56323984 40.94024506 23.4375 38.125 C22.32366058 37.07097276 21.21167274 36.01498537 20.1015625 34.95703125 C19.56305664 34.44994629 19.02455078 33.94286133 18.46972656 33.42041016 C16.63247377 31.64480605 14.9618508 29.7627987 13.3125 27.8125 C9.46620691 23.30141552 5.34801236 19.03077541 1 15 C-0.97370338 15 -2.49587487 17.36513336 -3.7890625 18.65625 Z " fill="#149CDB" transform="translate(299,8)"/>
<path d="M0 0 C0.72058594 -0.03287109 1.44117188 -0.06574219 2.18359375 -0.09960938 C4.3046875 -0.12109375 4.3046875 -0.12109375 8.125 0.4375 C11.38506621 3.78680021 12.90252889 6.96446888 14.265625 11.39453125 C14.61367188 12.50634766 14.96171875 13.61816406 15.3203125 14.76367188 C15.66835938 15.91416016 16.01640625 17.06464844 16.375 18.25 C16.73851562 19.41982422 17.10203125 20.58964844 17.4765625 21.79492188 C18.36931575 24.67287643 19.2517228 27.55358785 20.125 30.4375 C22.98581687 23.45339314 25.57125608 16.42589989 27.92382812 9.25585938 C30.125598 2.80239596 30.125598 2.80239596 33.125 0.4375 C35.90276762 0.16642719 38.41837834 0.06379041 41.1875 0.125 C41.92033203 0.12177734 42.65316406 0.11855469 43.40820312 0.11523438 C48.85778061 0.17028061 48.85778061 0.17028061 51.125 2.4375 C51.38569641 4.40415955 51.38569641 4.40415955 51.3996582 6.83959961 C51.41395622 8.20628029 51.41395622 8.20628029 51.42854309 9.60057068 C51.42763168 10.58703079 51.42672028 11.57349091 51.42578125 12.58984375 C51.43006638 13.6009169 51.4343515 14.61199005 51.43876648 15.65370178 C51.44451661 17.79476166 51.44500504 19.93584108 51.44067383 22.0769043 C51.43751612 25.35824843 51.46095714 28.63868947 51.48632812 31.91992188 C51.48860121 33.99739469 51.48930457 36.07486994 51.48828125 38.15234375 C51.497491 39.13677963 51.50670074 40.12121552 51.51618958 41.13548279 C51.50996078 42.0497554 51.50373199 42.96402802 51.49731445 43.90600586 C51.49794388 44.71049667 51.4985733 45.51498749 51.4992218 46.34385681 C51.02717198 48.98481434 50.2773813 49.86802342 48.125 51.4375 C43.75793092 51.82741688 41.81986103 51.90074069 38.125 49.4375 C37.69262695 46.54833984 37.69262695 46.54833984 37.61328125 42.8984375 C37.57783203 41.59648437 37.54238281 40.29453125 37.50585938 38.953125 C37.48275769 37.57292191 37.45997536 36.19271343 37.4375 34.8125 C37.40433555 33.42444648 37.3698467 32.03642393 37.33398438 30.6484375 C37.25125885 27.24487293 37.18218743 23.8415741 37.125 20.4375 C36.83254395 21.27522949 36.54008789 22.11295898 36.23876953 22.97607422 C35.15122687 26.08253781 34.05857604 29.18710411 32.96240234 32.29052734 C32.48898459 33.6342031 32.01761604 34.97860268 31.54833984 36.32373047 C30.87354068 38.25682321 30.19142024 40.18719498 29.5078125 42.1171875 C28.89510498 43.86104736 28.89510498 43.86104736 28.27001953 45.64013672 C27.125 48.4375 27.125 48.4375 25.125 50.4375 C22.7421875 50.6328125 22.7421875 50.6328125 20 50.5625 C19.08992187 50.54445312 18.17984375 50.52640625 17.2421875 50.5078125 C16.54351563 50.48460937 15.84484375 50.46140625 15.125 50.4375 C10.78557434 40.64499076 7.41711482 30.6192984 4.125 20.4375 C4.10518066 21.27522949 4.08536133 22.11295898 4.06494141 22.97607422 C3.98689388 26.08115834 3.90020365 29.18584539 3.80761719 32.29052734 C3.75045964 34.29636971 3.70331404 36.30248918 3.65625 38.30859375 C3.59824219 40.19384766 3.59824219 40.19384766 3.5390625 42.1171875 C3.5076416 43.27976074 3.4762207 44.44233398 3.44384766 45.64013672 C3.125 48.4375 3.125 48.4375 1.125 50.4375 C-1.22265625 50.66796875 -1.22265625 50.66796875 -3.9375 50.625 C-4.83597656 50.61855469 -5.73445312 50.61210937 -6.66015625 50.60546875 C-8.875 50.4375 -8.875 50.4375 -9.875 49.4375 C-9.9784125 47.97493823 -10.01350321 46.50745736 -10.02026367 45.04125977 C-10.02664352 44.10681534 -10.03302338 43.17237091 -10.03959656 42.20960999 C-10.04070938 41.19297775 -10.0418222 40.17634552 -10.04296875 39.12890625 C-10.04796135 37.57332253 -10.04796135 37.57332253 -10.05305481 35.98631287 C-10.0581286 33.78799891 -10.060463 31.58967723 -10.06030273 29.39135742 C-10.06248838 26.01793799 -10.08063714 22.64484583 -10.09960938 19.27148438 C-10.1025433 17.14062612 -10.1045281 15.00976631 -10.10546875 12.87890625 C-10.11265427 11.86429825 -10.11983978 10.84969025 -10.12724304 9.80433655 C-10.12416641 8.86673996 -10.12108978 7.92914337 -10.11791992 6.96313477 C-10.11934494 6.13564224 -10.12076996 5.30814972 -10.12223816 4.45558167 C-9.4572853 -0.97209659 -4.26321475 0.03395481 0 0 Z " fill="#6B6C6F" transform="translate(535.875,180.5625)"/>
<path d="M0 0 C2.77186988 -0.10787818 5.53955537 -0.18723327 8.3125 -0.25 C9.09818359 -0.28351563 9.88386719 -0.31703125 10.69335938 -0.3515625 C11.8293457 -0.37089844 11.8293457 -0.37089844 12.98828125 -0.390625 C13.68477783 -0.41157227 14.38127441 -0.43251953 15.09887695 -0.45410156 C17 0 17 0 18.609375 1.64453125 C20.22827241 4.38665243 21.241107 7.06066418 22.26171875 10.078125 C22.65810547 11.23828125 23.05449219 12.3984375 23.46289062 13.59375 C24.06907227 15.40359375 24.06907227 15.40359375 24.6875 17.25 C25.10322266 18.47203125 25.51894531 19.6940625 25.94726562 20.953125 C26.97137773 23.96660431 27.9886785 26.98220904 29 30 C29.25692627 29.23333008 29.51385254 28.46666016 29.77856445 27.67675781 C30.94893971 24.19855954 32.13058113 20.72429174 33.3125 17.25 C33.71662109 16.0434375 34.12074219 14.836875 34.53710938 13.59375 C35.13168945 11.85351562 35.13168945 11.85351562 35.73828125 10.078125 C36.09962158 9.00981445 36.46096191 7.94150391 36.83325195 6.84082031 C37.95884441 4.10020641 38.9495036 2.13334792 41 0 C43.82772621 -0.40738428 46.18248606 -0.56016044 49 -0.5 C49.72445312 -0.51546875 50.44890625 -0.5309375 51.1953125 -0.546875 C53.3125 -0.53125 53.3125 -0.53125 57 0 C58.98257159 2.02387995 59.90142015 3.36208724 60.33625793 6.17593384 C60.31786362 6.96043915 60.2994693 7.74494446 60.28051758 8.55322266 C60.25982964 9.89448715 60.25982964 9.89448715 60.23872375 11.2628479 C60.20764023 12.22024872 60.1765567 13.17764954 60.14453125 14.1640625 C60.12283371 15.15248138 60.10113617 16.14090027 60.07878113 17.15927124 C60.02955474 19.24569116 59.97275735 21.33194427 59.90893555 23.41796875 C59.81266183 26.61961836 59.74336557 29.82102847 59.67773438 33.0234375 C59.62659736 35.04952011 59.57391595 37.07556446 59.51953125 39.1015625 C59.48808769 40.54373642 59.48808769 40.54373642 59.45600891 42.01504517 C59.42645615 42.90291718 59.39690338 43.79078918 59.36645508 44.70556641 C59.34408279 45.48848053 59.32171051 46.27139465 59.29866028 47.07803345 C59 49 59 49 57 51 C55.125 51.23046875 55.125 51.23046875 53 51.1875 C52.29875 51.18105469 51.5975 51.17460937 50.875 51.16796875 C49 51 49 51 47 50 C46.67 39.44 46.34 28.88 46 18 C42.87606674 27.35943554 42.87606674 27.35943554 39.77832031 36.72753906 C39.38225586 37.89510742 38.98619141 39.06267578 38.578125 40.265625 C38.18012695 41.45961914 37.78212891 42.65361328 37.37207031 43.88378906 C35.96950271 47.06926465 34.68249535 48.81582988 32 51 C29.96484375 51.34765625 29.96484375 51.34765625 27.9375 51.0625 C27.26589844 50.99160156 26.59429687 50.92070312 25.90234375 50.84765625 C23.08094343 49.59048198 22.44313673 47.69836021 21 45 C20.19130716 42.88866697 19.44101059 40.75439471 18.73828125 38.60546875 C18.34189453 37.40341797 17.94550781 36.20136719 17.53710938 34.96289062 C17.13298828 33.71701172 16.72886719 32.47113281 16.3125 31.1875 C15.89313584 29.90932209 15.47321929 28.63132528 15.05273438 27.35351562 C14.02971239 24.23741418 13.01234835 21.11958208 12 18 C11.97494385 18.93384521 11.9498877 19.86769043 11.92407227 20.82983398 C11.82913072 24.28325189 11.72988742 27.7364896 11.62768555 31.18969727 C11.58428187 32.68639269 11.54261087 34.18313939 11.50268555 35.67993164 C11.44511384 37.82714312 11.38138284 39.97409521 11.31640625 42.12109375 C11.26141968 44.06133423 11.26141968 44.06133423 11.20532227 46.04077148 C11 49 11 49 10 50 C8.14712498 50.07226502 6.29166122 50.0838122 4.4375 50.0625 C3.42558594 50.05347656 2.41367188 50.04445312 1.37109375 50.03515625 C0.19740234 50.01775391 0.19740234 50.01775391 -1 50 C-2.15331283 47.69337435 -2.13247962 46.36353039 -2.14526367 43.79736328 C-2.15164352 42.92951202 -2.15802338 42.06166077 -2.16459656 41.16751099 C-2.16570938 40.22793549 -2.1668222 39.28835999 -2.16796875 38.3203125 C-2.17129715 37.35600311 -2.17462555 36.39169373 -2.17805481 35.39816284 C-2.18312364 33.35545327 -2.18546315 31.31273539 -2.18530273 29.27001953 C-2.18748622 26.14471769 -2.20563418 23.01977045 -2.22460938 19.89453125 C-2.22754389 17.91145954 -2.2295283 15.92838616 -2.23046875 13.9453125 C-2.24124702 12.54202194 -2.24124702 12.54202194 -2.25224304 11.11038208 C-2.24916641 10.2362265 -2.24608978 9.36207092 -2.24291992 8.46142578 C-2.24434494 7.69468536 -2.24576996 6.92794495 -2.24723816 6.13796997 C-1.9683046 3.72591686 -1.19862323 2.09482814 0 0 Z " fill="#6A6B6E" transform="translate(131,181)"/>
<path d="M0 0 C1.92529297 1.34179688 1.92529297 1.34179688 3.7421875 3.21875 C4.41636719 3.90453125 5.09054687 4.5903125 5.78515625 5.296875 C6.47480469 6.02390625 7.16445313 6.7509375 7.875 7.5 C8.89787109 8.54414062 8.89787109 8.54414062 9.94140625 9.609375 C13.9288366 13.71073193 17.73417152 17.94322912 21.47705078 22.26757812 C23.23646247 24.26898648 25.08321829 26.14931421 27 28 C29.72253107 30.70126129 32.40532152 33.42514842 35 36.25 C35.5775 36.87390625 36.155 37.4978125 36.75 38.140625 C38 40 38 40 38 44 C35.99975586 46.43847656 35.99975586 46.43847656 33.21484375 49.140625 C32.72093643 49.62650085 32.22702911 50.11237671 31.71815491 50.61297607 C30.13377353 52.16837097 28.53644715 53.70959499 26.9375 55.25 C24.85903559 57.27171781 22.78597483 59.29889739 20.71484375 61.328125 C20.2129805 61.81853271 19.71111725 62.30894043 19.19404602 62.81420898 C15.24085434 66.70148212 11.57045047 70.7632573 8 75 C1.22929062 82.71075515 1.22929062 82.71075515 -3.1875 83.75 C-9.05396462 82.18560943 -12.25468216 77.65049199 -16.046875 73.20703125 C-18.11289649 70.87242697 -20.27886164 68.68714135 -22.5 66.5 C-25.90145618 63.14450945 -29.06673164 59.67830019 -32.16796875 56.046875 C-34.98436532 52.90019738 -38.03210042 49.99681956 -41.08203125 47.078125 C-42.91085317 45.09659086 -43.86438459 43.41298587 -45 41 C-40.12752262 35.26575008 -34.99345953 29.89459287 -29.625 24.625 C-28.19824009 23.22367253 -26.77364493 21.8201365 -25.3515625 20.4140625 C-24.42077881 19.50068115 -24.42077881 19.50068115 -23.47119141 18.56884766 C-21.90538038 17.04876539 -21.90538038 17.04876539 -21 15 C-20.34 15 -19.68 15 -19 15 C-18.773125 14.44699219 -18.54625 13.89398438 -18.3125 13.32421875 C-16.61628183 10.32049907 -14.4561363 8.22936668 -12 5.8125 C-11.113125 4.93207031 -10.22625 4.05164063 -9.3125 3.14453125 C-6.11034134 0.17496182 -4.33563973 -0.4381893 0 0 Z M-7.98828125 15.5625 C-9.10732041 16.69762597 -10.2148744 17.844155 -11.3125 19 C-11.89209473 19.59506348 -12.47168945 20.19012695 -13.06884766 20.80322266 C-16.64677544 24.5016532 -20.10294218 28.2876136 -23.43359375 32.2109375 C-26.13341159 35.29451997 -29.07152189 38.13599004 -32 41 C-27.63945145 46.16132829 -23.13244812 51.14461821 -18.5 56.0625 C-17.86191406 56.74376953 -17.22382813 57.42503906 -16.56640625 58.12695312 C-15.31229837 59.4618471 -14.05204945 60.79100344 -12.78515625 62.11376953 C-11.62268515 63.34205888 -10.48300906 64.59246293 -9.37109375 65.86669922 C-6.52562632 69.07853702 -6.52562632 69.07853702 -2.5546875 70.28515625 C1.28814037 68.35199055 3.92804718 65.53056958 6.875 62.4375 C7.49487793 61.80215332 8.11475586 61.16680664 8.75341797 60.51220703 C12.5163413 56.63048581 16.18998409 52.68326771 19.6640625 48.5390625 C21 47 21 47 23.5 44.75 C23.995 44.1725 24.49 43.595 25 43 C24.61338419 39.7032369 23.44289168 38.08814051 21.0859375 35.828125 C20.49280762 35.24981934 19.89967773 34.67151367 19.28857422 34.07568359 C18.65709473 33.47320801 18.02561523 32.87073242 17.375 32.25 C16.09189062 30.99930056 14.81062138 29.74671037 13.53125 28.4921875 C12.91765625 27.89116211 12.3040625 27.29013672 11.671875 26.67089844 C8.60150173 23.60231861 5.8030014 20.3103696 3 17 C0.98082178 14.55789478 0.98082178 14.55789478 -1 13 C-5.15000988 12.56603013 -5.15000988 12.56603013 -7.98828125 15.5625 Z " fill="#149CDC" transform="translate(253,65)"/>
<path d="M0 0 C1.7284624 1.60248972 3.38443385 3.28375364 5 5 C6.03327843 6.01888829 7.07119917 7.03308628 8.11328125 8.04296875 C9.17973223 9.09110033 10.24613804 10.13927786 11.3125 11.1875 C11.86228516 11.72052734 12.41207031 12.25355469 12.97851562 12.80273438 C14.35715678 14.16424956 15.68339727 15.57840502 17 17 C17 17.66 17 18.32 17 19 C17.66 19 18.32 19 19 19 C20.33984375 20.36328125 20.33984375 20.36328125 21.9375 22.3125 C24.14575573 24.93626262 26.39990265 27.43019872 28.87109375 29.8046875 C29.6146814 30.52144653 29.6146814 30.52144653 30.37329102 31.25268555 C31.82290574 32.63772631 33.28237694 34.01242842 34.7421875 35.38671875 C37.16585766 38.1919702 37.81143953 39.35495473 38 43 C36.57226562 45.09301758 36.57226562 45.09301758 34.40625 47.14453125 C33.6225 47.90443359 32.83875 48.66433594 32.03125 49.44726562 C31.1959375 50.22779297 30.360625 51.00832031 29.5 51.8125 C27.88304254 53.35819732 26.26843162 54.90635332 24.65625 56.45703125 C23.86395996 57.21701416 23.07166992 57.97699707 22.25537109 58.76000977 C19.56984882 61.4272177 17.09916238 64.23042057 14.63964844 67.10473633 C11.99665727 70.15976021 9.20514274 73.05657718 6.375 75.9375 C5.8284375 76.51306641 5.281875 77.08863281 4.71875 77.68164062 C2.32791095 80.1096578 0.5335196 81.78580757 -2.65625 83.06640625 C-5.73844187 82.97907748 -6.67164766 82.12106948 -8.875 80 C-9.55304688 79.35675781 -10.23109375 78.71351563 -10.9296875 78.05078125 C-11.95449219 77.03564453 -11.95449219 77.03564453 -13 76 C-13.68320312 75.35417969 -14.36640625 74.70835937 -15.0703125 74.04296875 C-18.6407767 70.6098301 -18.6407767 70.6098301 -20 69 C-20 68.34 -20 67.68 -20 67 C-20.66 67 -21.32 67 -22 67 C-23.4453125 65.53125 -23.4453125 65.53125 -25.125 63.5 C-27.64257902 60.53322639 -30.22168976 57.72425751 -33 55 C-35.72253107 52.29873871 -38.40532152 49.57485158 -41 46.75 C-41.5775 46.12609375 -42.155 45.5021875 -42.75 44.859375 C-44 43 -44 43 -44 39 C-42.49609375 37.140625 -42.49609375 37.140625 -40.4375 35.25 C-37.69780772 32.70790736 -35.18014872 30.08896615 -32.74609375 27.2578125 C-28.91292667 22.82878699 -24.80321187 18.72626506 -20.625 14.625 C-19.19824009 13.22367253 -17.77364493 11.8201365 -16.3515625 10.4140625 C-15.42077881 9.50068115 -15.42077881 9.50068115 -14.47119141 8.56884766 C-12.90538038 7.04876539 -12.90538038 7.04876539 -12 5 C-11.34 5 -10.68 5 -10 5 C-9.71125 4.360625 -9.4225 3.72125 -9.125 3.0625 C-7.03087403 -0.77673094 -4.04776282 -0.47620739 0 0 Z M-11.4375 18.625 C-12.48013202 19.81118521 -13.52583497 20.99467654 -14.57421875 22.17578125 C-15.12384277 22.79791504 -15.6734668 23.42004883 -16.23974609 24.06103516 C-19.29441462 27.42583091 -22.52138979 30.61566826 -25.75 33.8125 C-26.68090454 34.73699951 -26.68090454 34.73699951 -27.63061523 35.68017578 C-29.08488622 37.12232956 -30.54210253 38.5615124 -32 40 C-30.34271836 44.3490448 -27.08863887 47.09170125 -23.8125 50.25 C-20.08947888 53.89495859 -16.43405991 57.52095181 -13.0625 61.5 C-10.30388336 64.75516764 -7.36223005 67.37582045 -4 70 C-0.7731002 68.57937485 1.39942512 66.85754559 3.890625 64.375 C4.59960938 63.66859375 5.30859375 62.9621875 6.0390625 62.234375 C6.76867187 61.49703125 7.49828125 60.7596875 8.25 60 C8.99507813 59.26265625 9.74015625 58.5253125 10.5078125 57.765625 C11.21164062 57.05921875 11.91546875 56.3528125 12.640625 55.625 C13.60790527 54.65433594 13.60790527 54.65433594 14.59472656 53.6640625 C16.21506609 52.10833644 16.21506609 52.10833644 16 50 C16.66 50 17.32 50 18 50 C19.80693756 48.21387689 19.80693756 48.21387689 21.625 46 C22.25664062 45.2575 22.88828125 44.515 23.5390625 43.75 C24.02117187 43.1725 24.50328125 42.595 25 42 C23.58261511 38.74792908 21.87473588 36.68638933 19.3125 34.25 C16.59920676 31.60990711 14.02145694 28.94085848 11.5625 26.0625 C8.88989637 22.98625371 6.17694963 19.95941457 3.375 17 C2.30378906 15.8553125 2.30378906 15.8553125 1.2109375 14.6875 C-0.88210798 12.85774738 -0.88210798 12.85774738 -3.43359375 12.3984375 C-7.21793435 13.28548233 -9.03010775 15.76428354 -11.4375 18.625 Z " fill="#149CDB" transform="translate(352,66)"/>
<path d="M0 0 C4.69557647 -0.09954745 9.39052663 -0.17178467 14.08691406 -0.21972656 C15.68142408 -0.23973053 17.27586178 -0.26694301 18.87011719 -0.30175781 C35.41078332 -0.65368688 35.41078332 -0.65368688 42 4 C45.56105931 8.10891458 46.90456321 11.56010272 47 17 C45.4283853 22.15140374 43.59394571 25.12878393 39 28 C38.01 28 37.02 28 36 28 C36.44730469 28.61746094 36.89460938 29.23492187 37.35546875 29.87109375 C48 44.78251599 48 44.78251599 48 50 C43.52583055 50.60552669 39.45178027 50.85291117 35 50 C31.76321608 47.14010188 29.97309055 43.80443608 28 40 C25.61992968 35.86621082 25.61992968 35.86621082 22 33 C20.12943209 32.7724985 18.25314042 32.59037189 16.375 32.4375 C15.37210937 32.35371094 14.36921875 32.26992187 13.3359375 32.18359375 C12.56507813 32.12300781 11.79421875 32.06242187 11 32 C11.01160156 33.21558594 11.02320313 34.43117187 11.03515625 35.68359375 C11.04453278 37.26822764 11.05363313 38.85286318 11.0625 40.4375 C11.07087891 41.23994141 11.07925781 42.04238281 11.08789062 42.86914062 C11.0965143 44.91295221 11.0522815 46.95683902 11 49 C9.33438601 50.66561399 7.34037295 50.17115945 5.0625 50.1875 C4.16660156 50.20167969 3.27070313 50.21585938 2.34765625 50.23046875 C0 50 0 50 -2 48 C-2.20039436 44.91241443 -2.27968067 41.91652608 -2.265625 38.828125 C-2.26753845 37.91295105 -2.2694519 36.9977771 -2.27142334 36.05487061 C-2.27278619 34.11470262 -2.26908278 32.17452554 -2.26074219 30.234375 C-2.25009298 27.27583046 -2.26060867 24.31789995 -2.2734375 21.359375 C-2.27211496 19.473957 -2.26955062 17.58853938 -2.265625 15.703125 C-2.26967346 14.82166809 -2.27372192 13.94021118 -2.27789307 13.03204346 C-2.24203906 8.28911943 -1.83166469 4.45820273 0 0 Z M11 11 C10.90176063 12.66429051 10.87026369 14.33281931 10.875 16 C10.87242187 16.9075 10.86984375 17.815 10.8671875 18.75 C10.74826221 20.96966611 10.74826221 20.96966611 12 22 C14.59781969 22.15420847 17.15075286 22.23169544 19.75 22.25 C20.46671875 22.270625 21.1834375 22.29125 21.921875 22.3125 C26.48274612 22.34603582 29.38522238 21.82985448 33 19 C34.23901711 17.12907319 34.23901711 17.12907319 34 15 C31.60831093 11.89966232 29.80004794 10.65051668 26 10 C23.60561131 9.9069609 21.20869048 9.8700338 18.8125 9.875 C17.56082031 9.87242187 16.30914062 9.86984375 15.01953125 9.8671875 C12.12072464 9.654158 12.12072464 9.654158 11 11 Z " fill="#6B6C6F" transform="translate(334,181)"/>
<path d="M0 0 C0.7106662 -0.0066568 1.4213324 -0.0133136 2.15353394 -0.02017212 C3.66157442 -0.03030844 5.16965986 -0.03498884 6.67773438 -0.03466797 C8.96301709 -0.03900711 11.24631369 -0.07521546 13.53125 -0.11328125 C21.15227703 -0.17254387 27.38213728 -0.13735691 33.8671875 4.3359375 C38.01187013 8.69316796 39.24466479 12.22092139 39.14453125 18.2734375 C38.6755627 21.76097823 37.16122549 23.7400524 34.8671875 26.3359375 C31.6171875 28.2109375 31.6171875 28.2109375 28.8671875 29.3359375 C29.23070312 29.77421875 29.59421875 30.2125 29.96875 30.6640625 C34.556042 36.45110779 37.73384524 42.66925184 40.8671875 49.3359375 C39.07099222 51.13213278 36.61608161 50.75758815 34.1796875 50.8984375 C28.53535718 50.86495986 28.53535718 50.86495986 25.87890625 48.76171875 C24.35123881 46.68930169 23.09535909 44.59707459 21.8671875 42.3359375 C21.08493219 41.20437321 20.29437132 40.07846255 19.4921875 38.9609375 C17.8671875 36.3359375 17.8671875 36.3359375 17.8671875 34.3359375 C13.2471875 33.6759375 8.6271875 33.0159375 3.8671875 32.3359375 C3.87878906 33.46773437 3.89039063 34.59953125 3.90234375 35.765625 C3.91172204 37.24739419 3.9208222 38.72916515 3.9296875 40.2109375 C3.93806641 40.95730469 3.94644531 41.70367187 3.95507812 42.47265625 C3.98046875 48.109375 3.98046875 48.109375 2.8671875 50.3359375 C1.05476698 50.36281029 -0.75776483 50.38227465 -2.5703125 50.3984375 C-3.57964844 50.41003906 -4.58898437 50.42164063 -5.62890625 50.43359375 C-8.1328125 50.3359375 -8.1328125 50.3359375 -9.1328125 49.3359375 C-9.236225 47.87337573 -9.27131571 46.40589486 -9.27807617 44.93969727 C-9.28445602 44.00525284 -9.29083588 43.07080841 -9.29740906 42.10804749 C-9.29852188 41.09141525 -9.2996347 40.07478302 -9.30078125 39.02734375 C-9.30577385 37.47176003 -9.30577385 37.47176003 -9.31086731 35.88475037 C-9.3159411 33.68643641 -9.3182755 31.48811473 -9.31811523 29.28979492 C-9.32030088 25.91637549 -9.33844964 22.54328333 -9.35742188 19.16992188 C-9.3603558 17.03906362 -9.3623406 14.90820381 -9.36328125 12.77734375 C-9.37046677 11.76273575 -9.37765228 10.74812775 -9.38505554 9.70277405 C-9.38197891 8.76517746 -9.37890228 7.82758087 -9.37573242 6.86157227 C-9.37715744 6.03407974 -9.37858246 5.20658722 -9.38005066 4.35401917 C-8.7406104 -0.86541247 -4.12451628 0.01337341 0 0 Z M3.8671875 10.3359375 C3.8671875 14.2959375 3.8671875 18.2559375 3.8671875 22.3359375 C6.42997449 22.39014451 8.99160233 22.42970757 11.5546875 22.4609375 C12.27591797 22.47769531 12.99714844 22.49445313 13.74023438 22.51171875 C17.87379938 22.5494682 21.2403853 22.42325578 24.8671875 20.3359375 C26.03167631 17.43242626 26.03167631 17.43242626 25.8671875 14.3359375 C24.07939092 11.74363246 22.90715935 11.34926145 19.8671875 10.3359375 C17.12853463 10.26542636 14.41691162 10.24235985 11.6796875 10.2734375 C10.55530273 10.28020508 10.55530273 10.28020508 9.40820312 10.28710938 C7.56116367 10.29887396 5.71416537 10.31680885 3.8671875 10.3359375 Z " fill="#696A6D" transform="translate(418.1328125,180.6640625)"/>
<path d="M0 0 C1.19947266 -0.020625 2.39894531 -0.04125 3.63476562 -0.0625 C13.03897187 -0.103544 22.79208191 0.65589987 30.0625 7.25 C36.06047641 15.06168811 36.08803435 23.87506803 35.0625 33.25 C33.64165122 39.27607041 30.75400644 43.13692236 26.0390625 47.05859375 C21.1102836 50.02949803 16.39604128 50.49893046 10.73046875 50.48046875 C10.05325272 50.48001053 9.37603668 50.47955231 8.67829895 50.4790802 C7.25890329 50.47607815 5.83951031 50.46825385 4.42016602 50.45581055 C2.23897779 50.437407 0.05821136 50.43530215 -2.12304688 50.43554688 C-12.78984955 50.39765045 -12.78984955 50.39765045 -13.9375 49.25 C-14.03581146 47.75129952 -14.06548456 46.24801461 -14.06689453 44.74609375 C-14.07004669 43.78840088 -14.07319885 42.83070801 -14.07644653 41.84399414 C-14.0744223 40.80235107 -14.07239807 39.76070801 -14.0703125 38.6875 C-14.07126923 37.62587646 -14.07222595 36.56425293 -14.07321167 35.47045898 C-14.07389364 33.22086528 -14.07203819 30.97126963 -14.06787109 28.72167969 C-14.0625231 25.26492929 -14.06781554 21.80830883 -14.07421875 18.3515625 C-14.07355797 16.17187471 -14.07227682 13.992187 -14.0703125 11.8125 C-14.07233673 10.77085693 -14.07436096 9.72921387 -14.07644653 8.65600586 C-14.07329437 7.69831299 -14.07014221 6.74062012 -14.06689453 5.75390625 C-14.06609894 4.90642822 -14.06530334 4.0589502 -14.06448364 3.18579102 C-13.71140342 -2.19670956 -3.99478013 0.01668838 0 0 Z M-0.9375 10.25 C-0.9375 20.15 -0.9375 30.05 -0.9375 40.25 C11.44426728 41.13873389 11.44426728 41.13873389 20.9140625 35.52734375 C22.57161314 32.2404321 22.4592691 29.47333684 22.4375 25.8125 C22.44523437 24.51441406 22.45296875 23.21632812 22.4609375 21.87890625 C22.0483701 18.12130706 21.31745583 16.23629285 19.0625 13.25 C13.27455475 9.25831362 5.69860566 10.25 -0.9375 10.25 Z " fill="#696A6D" transform="translate(25.9375,180.75)"/>
<path d="M0 0 C0.98935547 -0.01546875 1.97871094 -0.0309375 2.99804688 -0.046875 C10.10467753 -0.00914902 15.73164292 1.16720495 21.11816406 6.01147461 C23.58549008 8.79520642 23.26538478 11.8855803 23.4375 15.5 C21.4375 17.5 21.4375 17.5 17.5625 17.9375 C14.04908533 17.87385118 13.66758873 17.73614369 11.0625 15.0625 C10.52625 14.216875 9.99 13.37125 9.4375 12.5 C7.140963 11.3517315 5.85436833 11.38438825 3.3046875 11.40234375 C2.49902344 11.40556641 1.69335938 11.40878906 0.86328125 11.41210938 C-0.39935547 11.42467773 -0.39935547 11.42467773 -1.6875 11.4375 C-2.96173828 11.44426758 -2.96173828 11.44426758 -4.26171875 11.45117188 C-6.36200909 11.46297126 -8.4622633 11.48090694 -10.5625 11.5 C-10.5625 13.15 -10.5625 14.8 -10.5625 16.5 C-9.00402344 16.88091797 -9.00402344 16.88091797 -7.4140625 17.26953125 C-3.79690146 18.15851296 -0.1849105 19.06665757 3.42431641 19.98730469 C5.10834291 20.41617392 6.79419468 20.83786748 8.48046875 21.2578125 C15.17708379 23.06434121 20.46463883 25.54070825 24.4375 31.5 C25.16503399 36.41508428 24.94185931 40.43308607 22.8125 44.9375 C19.46333424 48.55107359 16.21688901 50.26085724 11.31298828 50.91992188 C7.72868368 50.97287363 4.14724978 51.00739886 0.5625 51 C-0.67886719 51.02835938 -1.92023438 51.05671875 -3.19921875 51.0859375 C-10.563139 51.1016221 -15.97731045 50.59010871 -21.5625 45.5 C-23.7291209 42.79172388 -24.46141888 41.22441468 -24.9375 37.8125 C-24.81375 37.049375 -24.69 36.28625 -24.5625 35.5 C-21.04425489 33.15450326 -19.70474306 32.92008597 -15.5625 33.5 C-12.75 35.9375 -12.75 35.9375 -10.5625 38.5 C-9.55690206 39.72784809 -9.55690206 39.72784809 -7.52124023 39.61352539 C-6.64669189 39.60828857 -5.77214355 39.60305176 -4.87109375 39.59765625 C-3.92685547 39.59443359 -2.98261719 39.59121094 -2.00976562 39.58789062 C-0.51993164 39.57532227 -0.51993164 39.57532227 1 39.5625 C1.99708984 39.55798828 2.99417969 39.55347656 4.02148438 39.54882812 C6.49354849 39.53700007 8.96549518 39.52051849 11.4375 39.5 C11.2053724 37.53720192 11.2053724 37.53720192 10.4375 35.5 C4.26012504 32.66323899 -2.32989432 31.16975624 -8.93945312 29.65820312 C-14.64203901 28.19962898 -18.53792934 25.82650688 -22.5625 21.5 C-24.77032219 17.08435562 -24.1160375 11.19751499 -22.625 6.625 C-16.48256925 0.29643498 -8.3516111 -0.13109134 0 0 Z " fill="#6A6B6E" transform="translate(244.5625,180.5)"/>
<path d="M0 0 C0.83402344 -0.00386719 1.66804688 -0.00773438 2.52734375 -0.01171875 C3.82865234 0.00568359 3.82865234 0.00568359 5.15625 0.0234375 C6.02378906 0.01183594 6.89132812 0.00023437 7.78515625 -0.01171875 C9.03619141 -0.00591797 9.03619141 -0.00591797 10.3125 0 C11.45428711 0.00507568 11.45428711 0.00507568 12.61914062 0.01025391 C15.35086822 0.53080123 16.01577686 1.13487831 17.65625 3.3984375 C18.76243852 5.960405 19.75279639 8.47848609 20.6875 11.1015625 C20.96468872 11.85757751 21.24187744 12.61359253 21.52746582 13.39251709 C22.4116043 15.80836979 23.28433061 18.22815103 24.15625 20.6484375 C25.03036625 23.05358453 25.90684947 25.45784685 26.78503418 27.86151123 C27.32996654 29.3553038 27.87220459 30.85008307 28.41125488 32.3460083 C29.62414023 35.69124951 30.88932921 38.97905843 32.33007812 42.23339844 C33.61166971 45.29204228 34.04010189 47.13569641 33.65625 50.3984375 C32.65625 51.3984375 32.65625 51.3984375 28.84375 51.7109375 C25.91142076 51.65333818 24.86503926 51.53386837 22.34375 49.8984375 C20.65625 47.3984375 20.65625 47.3984375 17.65625 39.3984375 C9.40625 39.0684375 1.15625 38.7384375 -7.34375 38.3984375 C-8.33375 41.6984375 -9.32375 44.9984375 -10.34375 48.3984375 C-15.24801096 52.07663322 -16.48046193 51.96585247 -22.34375 51.3984375 C-23.00375 50.4084375 -23.66375 49.4184375 -24.34375 48.3984375 C-23.65625 45.54199219 -23.65625 45.54199219 -22.34375 42.0703125 C-22.1128064 41.44846573 -21.88186279 40.82661896 -21.6439209 40.18592834 C-20.89056039 38.16811287 -20.11783248 36.15838456 -19.34375 34.1484375 C-18.82523528 32.77598825 -18.30765618 31.40318515 -17.79101562 30.0300293 C-16.77829623 27.34715121 -15.7569441 24.66784316 -14.7265625 21.99169922 C-13.59821306 19.05966408 -12.48317807 16.123277 -11.375 13.18359375 C-6.32505355 0.0281173 -6.32505355 0.0281173 0 0 Z M3.65625 10.3984375 C0.48929145 16.29553274 -1.55137152 21.94587496 -3.34375 28.3984375 C2.26625 28.3984375 7.87625 28.3984375 13.65625 28.3984375 C12.7590706 25.57830359 11.84000745 22.76894368 10.90625 19.9609375 C10.65359375 19.15849609 10.4009375 18.35605469 10.140625 17.52929688 C9.75390625 16.38364258 9.75390625 16.38364258 9.359375 15.21484375 C9.12895508 14.50787354 8.89853516 13.80090332 8.66113281 13.07250977 C7.77187397 11.18713155 7.77187397 11.18713155 5.54980469 10.65991211 C4.92493164 10.57362549 4.30005859 10.48733887 3.65625 10.3984375 Z " fill="#696A6D" transform="translate(487.34375,180.6015625)"/>
<path d="M0 0 C1.62418745 -0.08090971 3.24951745 -0.13914995 4.875 -0.1875 C5.77992188 -0.22230469 6.68484375 -0.25710937 7.6171875 -0.29296875 C8.79667969 -0.14794922 8.79667969 -0.14794922 10 0 C12.58028864 3.87043297 12.00993492 6.77043786 11.625 11.1875 C11.41875 13.765625 11.2125 16.34375 11 19 C18.26 19 25.52 19 33 19 C33.33 13.06 33.66 7.12 34 1 C36.34102859 -0.17051429 37.89352953 -0.1992246 40.5 -0.25 C41.69109375 -0.28867188 41.69109375 -0.28867188 42.90625 -0.328125 C43.5971875 -0.21984375 44.288125 -0.1115625 45 0 C47.1335215 3.20028225 47.23788372 3.89649425 47.15112305 7.54736328 C47.13417892 8.46486359 47.1172348 9.38236389 47.09977722 10.32766724 C47.07071793 11.31524017 47.04165863 12.30281311 47.01171875 13.3203125 C46.98906448 14.33471405 46.96641022 15.3491156 46.94306946 16.39425659 C46.89311152 18.53785929 46.83814675 20.68135026 46.77856445 22.82470703 C46.68767551 26.11863928 46.61306049 29.41263837 46.54101562 32.70703125 C46.49054022 34.78648178 46.4391397 36.86591011 46.38671875 38.9453125 C46.36373215 39.9369339 46.34074554 40.9285553 46.31706238 41.95022583 C46.29066177 42.86142181 46.26426117 43.7726178 46.23706055 44.71142578 C46.21548386 45.51734161 46.19390717 46.32325745 46.17167664 47.15359497 C46 49 46 49 45 50 C42.78515625 50.203125 42.78515625 50.203125 40.0625 50.25 C39.16660156 50.27578125 38.27070313 50.3015625 37.34765625 50.328125 C36.57292969 50.21984375 35.79820312 50.1115625 35 50 C32.96879293 46.95318939 32.75340125 46.39881676 32.8046875 42.98828125 C32.80968262 42.30548096 32.81467773 41.62268066 32.81982422 40.91918945 C32.83803223 40.05898193 32.85624023 39.19877441 32.875 38.3125 C32.91625 35.569375 32.9575 32.82625 33 30 C26.07 29.67 19.14 29.34 12 29 C11.71076314 35.53676545 11.71076314 35.53676545 11.43188477 42.07397461 C11.39377686 42.88358643 11.35566895 43.69319824 11.31640625 44.52734375 C11.26141968 45.77632446 11.26141968 45.77632446 11.20532227 47.05053711 C11 49 11 49 10 50 C7.78515625 50.203125 7.78515625 50.203125 5.0625 50.25 C3.71865234 50.28867188 3.71865234 50.28867188 2.34765625 50.328125 C1.57292969 50.21984375 0.79820312 50.1115625 0 50 C-2.0213766 46.9679351 -2.25110503 46.38874414 -2.25878906 42.9909668 C-2.26824554 41.78907967 -2.26824554 41.78907967 -2.27789307 40.56291199 C-2.2738446 39.70039322 -2.26979614 38.83787445 -2.265625 37.94921875 C-2.26753845 37.05765579 -2.2694519 36.16609283 -2.27142334 35.24751282 C-2.2727845 33.36039956 -2.26909288 31.47327692 -2.26074219 29.58618164 C-2.25007942 26.70893057 -2.26062023 23.83230926 -2.2734375 20.95507812 C-2.27211515 19.1197903 -2.26955121 17.28450286 -2.265625 15.44921875 C-2.26967346 14.59277267 -2.27372192 13.7363266 -2.27789307 12.85392761 C-2.24149044 8.17267189 -1.79719314 4.40330166 0 0 Z " fill="#67686B" transform="translate(277,181)"/>
<path d="M0 0 C0.95519531 -0.02449219 1.91039063 -0.04898438 2.89453125 -0.07421875 C9.13805838 -0.09991228 13.95108938 0.72662867 19.125 4.375 C22.16350208 7.71735229 23.35510335 10.18150278 23.5 14.625 C23.125 18.375 23.125 18.375 21.125 20.375 C18.3125 20.8125 18.3125 20.8125 15.125 20.375 C12.55889185 18.17547873 10.50796271 15.84535018 8.37890625 13.23046875 C5.37740983 10.75956615 3.53256649 10.87082255 -0.3125 10.9375 C-1.98119141 10.93943359 -1.98119141 10.93943359 -3.68359375 10.94140625 C-7.23209459 11.42351591 -9.0927075 12.13248206 -11.875 14.375 C-14.97903895 19.8609903 -14.38813169 26.27103048 -13.875 32.375 C-12.38869828 36.78122355 -12.38869828 36.78122355 -8.875 39.375 C-6.23382311 39.55204592 -3.64303404 39.65241548 -1 39.6875 C-0.27941406 39.71650391 0.44117187 39.74550781 1.18359375 39.77539062 C4.73832666 39.81794268 6.70199801 39.70211247 9.5546875 37.49609375 C11.16664119 35.41471892 11.16664119 35.41471892 12.375 33.125 C14.50214834 30.99785166 15.256642 31.07393155 18.1875 31 C22.125 31.375 22.125 31.375 24.125 33.375 C24.48202003 38.03456911 23.76729138 41.53084561 20.9375 45.25 C12.10163627 51.92598593 2.32819575 52.37508096 -8.40625 51.06640625 C-14.82615346 49.8241989 -19.93349841 47.73628572 -24.1875 42.5625 C-28.5824456 34.26093609 -29.17403282 25.49678939 -27.22265625 16.30078125 C-25.25760774 10.11889045 -22.61370424 5.62995676 -16.875 2.375 C-11.34457242 -0.07637051 -5.94217514 0.00795472 0 0 Z " fill="#6C6D6F" transform="translate(95.875,180.625)"/>
<path d="M0 0 C0.90492188 0.02320313 1.80984375 0.04640625 2.7421875 0.0703125 C4.10730469 0.09738281 4.10730469 0.09738281 5.5 0.125 C6.19867188 0.14820313 6.89734375 0.17140625 7.6171875 0.1953125 C8.81133267 2.58360285 8.74401957 4.05574582 8.74658203 6.72094727 C8.74973419 7.65854385 8.75288635 8.59614044 8.75613403 9.56214905 C8.7541098 10.57675705 8.75208557 11.59136505 8.75 12.63671875 C8.75095673 13.67473129 8.75191345 14.71274384 8.75289917 15.7822113 C8.75358042 17.97875021 8.75172994 20.17529112 8.74755859 22.37182617 C8.74220421 25.7472787 8.74750823 29.12259848 8.75390625 32.49804688 C8.75324557 34.62760446 8.7519646 36.75716197 8.75 38.88671875 C8.75202423 39.90335098 8.75404846 40.91998322 8.75613403 41.96742249 C8.75298187 42.90186691 8.74982971 43.83631134 8.74658203 44.79907227 C8.74578644 45.6257692 8.74499084 46.45246613 8.74417114 47.30421448 C8.6171875 49.1953125 8.6171875 49.1953125 7.6171875 50.1953125 C5.76431248 50.26757752 3.90884872 50.2791247 2.0546875 50.2578125 C1.04277344 50.24878906 0.03085937 50.23976562 -1.01171875 50.23046875 C-2.18541016 50.21306641 -2.18541016 50.21306641 -3.3828125 50.1953125 C-4.56208747 47.83676255 -4.51565008 46.40714535 -4.52807617 43.77734375 C-4.53445602 42.86299561 -4.54083588 41.94864746 -4.54740906 41.0065918 C-4.54852188 40.01699463 -4.5496347 39.02739746 -4.55078125 38.0078125 C-4.55410965 36.99436768 -4.55743805 35.98092285 -4.56086731 34.93676758 C-4.56593565 32.79150853 -4.56827566 30.64624159 -4.56811523 28.50097656 C-4.5703035 25.20885328 -4.58846518 21.91706402 -4.60742188 18.625 C-4.61035538 16.54427198 -4.61234046 14.46354237 -4.61328125 12.3828125 C-4.62046677 11.39321533 -4.62765228 10.40361816 -4.63505554 9.3840332 C-4.63197891 8.46968506 -4.62890228 7.55533691 -4.62573242 6.61328125 C-4.62715744 5.80656982 -4.62858246 4.9998584 -4.63005066 4.16870117 C-4.23763301 1.03652877 -3.06532449 0.25125611 0 0 Z " fill="#696A6D" transform="translate(391.3828125,180.8046875)"/>
<path d="M0 0 C1.76763702 -0.03355087 1.76763702 -0.03355087 3.57098389 -0.06777954 C5.48345917 -0.07749283 5.48345917 -0.07749283 7.43457031 -0.08740234 C9.40094452 -0.10593765 9.40094452 -0.10593765 11.40704346 -0.12484741 C14.18451106 -0.14732575 16.96170437 -0.15687725 19.73925781 -0.15917969 C23.28519005 -0.16445064 26.8288142 -0.21569637 30.37412643 -0.27869606 C33.76927467 -0.32960239 37.16405112 -0.33019776 40.55957031 -0.33740234 C41.82645691 -0.36412018 43.09334351 -0.39083801 44.39862061 -0.41836548 C50.27950185 -0.37316465 54.25025213 -0.33735819 58.61914062 3.87597656 C61.26269531 6.98853269 61.26269531 6.98853269 61.26269531 9.45166016 C36.84269531 9.45166016 12.42269531 9.45166016 -12.73730469 9.45166016 C-6.49648948 0.09043735 -6.49648948 0.09043735 0 0 Z " fill="#28A5DF" transform="translate(274.7373046875,142.54833984375)"/>
<path d="M0 0 C1.60822043 -0.01652947 3.21636831 -0.04378023 4.82421875 -0.08203125 C7.14394197 -0.13694442 9.46193992 -0.15869656 11.78222656 -0.17333984 C12.49699158 -0.19600922 13.21175659 -0.21867859 13.94818115 -0.24203491 C17.78411451 -0.22588878 19.46943851 0.18459887 22.47851562 2.6328125 C26.11295923 7.13340856 26.11295923 7.13340856 27.67285156 9.35009766 C21.81958318 9.37490449 15.96634574 9.39300821 10.11303711 9.4050293 C8.12377387 9.41004329 6.13451429 9.41685615 4.14526367 9.42553711 C1.27814834 9.4377315 -1.58891806 9.44335543 -4.45605469 9.44775391 C-5.77990929 9.45549583 -5.77990929 9.45549583 -7.13050842 9.46339417 C-11.97360416 9.46382947 -16.55183322 9.16815699 -21.32714844 8.35009766 C-20.34848506 7.20383443 -19.36920256 6.05809977 -18.38964844 4.91259766 C-17.844375 4.27451172 -17.29910156 3.63642578 -16.73730469 2.97900391 C-12.88271557 -1.47352701 -5.62273021 0.04237088 0 0 Z " fill="#2AA5DF" transform="translate(296.3271484375,129.64990234375)"/>
<path d="M0 0 C2.91552737 1.47727486 4.64341639 3.52455495 6.79296875 5.97265625 C7.5921875 6.86855469 8.39140625 7.76445313 9.21484375 8.6875 C11.04296875 11.03515625 11.04296875 11.03515625 11.04296875 13.03515625 C3.12296875 13.03515625 -4.79703125 13.03515625 -12.95703125 13.03515625 C-10.70942058 9.28913847 -8.97248922 6.70946793 -6.01953125 3.66015625 C-5.35050781 2.95117188 -4.68148438 2.2421875 -3.9921875 1.51171875 C-1.95703125 0.03515625 -1.95703125 0.03515625 0 0 Z " fill="#0998DA" transform="translate(299.95703125,112.96484375)"/>
<path d="M0 0 C-0.80872559 0.31976807 -0.80872559 0.31976807 -1.63378906 0.64599609 C-4.86502458 2.49498827 -7.27398693 5.02795629 -9.859375 7.6640625 C-10.40861633 8.21613373 -10.95785767 8.76820496 -11.52374268 9.33700562 C-13.27059293 11.09501815 -15.01034601 12.8598689 -16.75 14.625 C-17.93573591 15.8207708 -19.1219288 17.01608865 -20.30859375 18.2109375 C-23.21105085 21.13540253 -26.1071641 24.06601874 -29 27 C-29.66 26.67 -30.32 26.34 -31 26 C-30.36191406 25.37351562 -29.72382813 24.74703125 -29.06640625 24.1015625 C-28.24011719 23.28429687 -27.41382813 22.46703125 -26.5625 21.625 C-25.32693359 20.40683594 -25.32693359 20.40683594 -24.06640625 19.1640625 C-21.96565328 17.17651485 -21.96565328 17.17651485 -21 15 C-20.34 15 -19.68 15 -19 15 C-18.773125 14.44699219 -18.54625 13.89398438 -18.3125 13.32421875 C-16.61628183 10.32049907 -14.4561363 8.22936668 -12 5.8125 C-11.113125 4.93207031 -10.22625 4.05164063 -9.3125 3.14453125 C-6.02125107 0.09234263 -4.39123685 -0.11555886 0 0 Z " fill="#42AFE2" transform="translate(253,65)"/>
<path d="M0 0 C0.99 0.33 1.98 0.66 3 1 C-0.3 4.3 -3.6 7.6 -7 11 C-0.4 11 6.2 11 13 11 C13 11.66 13 12.32 13 13 C5.08 13 -2.84 13 -11 13 C-8.65333101 9.08888501 -6.97432408 6.74565772 -3.8125 3.6875 C-3.09707031 2.99011719 -2.38164062 2.29273437 -1.64453125 1.57421875 C-1.10183594 1.05472656 -0.55914062 0.53523438 0 0 Z " fill="#69C0E8" transform="translate(298,113)"/>
<path d="M0 0 C0.66 0.33 1.32 0.66 2 1 C-3.94 6.94 -9.88 12.88 -16 19 C-16.66 18.67 -17.32 18.34 -18 18 C-17.21753906 17.22914062 -16.43507813 16.45828125 -15.62890625 15.6640625 C-14.60663943 14.65117427 -13.58451119 13.63814616 -12.5625 12.625 C-12.04623047 12.11710937 -11.52996094 11.60921875 -10.99804688 11.0859375 C-8.142867 8.31431064 -8.142867 8.31431064 -6 5 C-5.34 5 -4.68 5 -4 5 C-3.71125 4.360625 -3.4225 3.72125 -3.125 3.0625 C-2 1 -2 1 0 0 Z " fill="#3AACE1" transform="translate(346,66)"/>
<path d="M0 0 C0.99 0.33 1.98 0.66 3 1 C1.02 2.98 -0.96 4.96 -3 7 C-3.66 6.67 -4.32 6.34 -5 6 C-3.35 4.02 -1.7 2.04 0 0 Z " fill="#42AFE2" transform="translate(268,144)"/>
<path d="M0 0 C0 0.33 0 0.66 0 1 C-0.928125 1.2475 -1.85625 1.495 -2.8125 1.75 C-6.16458325 3.06454245 -7.1877803 3.97963384 -9 7 C-9.1875 4.625 -9.1875 4.625 -9 2 C-5.5647952 -0.29013653 -4.014669 -0.17842973 0 0 Z " fill="#A1A2A3" transform="translate(229,214)"/>
</svg>
