<?xml version="1.0" encoding="UTF-8"?>
<svg version="1.1" xmlns="http://www.w3.org/2000/svg" width="2712" height="520">
<path d="M0 0 C18.0929646 16.93809452 33.60217299 39.92024083 34.8470031 65.5605123 C34.89208484 67.93212235 34.90546429 70.30200127 34.90821838 72.67404175 C34.91562535 74.03542918 34.91562535 74.03542918 34.92318195 75.42431939 C34.93851716 78.45979837 34.9469068 81.49525626 34.95532227 84.53076172 C34.96490391 86.70896082 34.97491416 88.88715808 34.98532104 91.06535339 C35.01234507 96.97595478 35.03336821 102.88656414 35.05332303 108.79719305 C35.07519799 114.97517185 35.1025793 121.15312616 35.12937927 127.33108521 C35.17928571 139.02876599 35.22423216 150.72646038 35.26740164 162.42416775 C35.3167915 175.74208686 35.37170315 189.0599805 35.42708123 202.37787604 C35.54086984 229.77272777 35.64771569 257.16760307 35.75 284.5625 C28.50931889 284.66434887 21.26882417 284.73415356 14.02758789 284.78222656 C11.56690568 284.80227812 9.10627075 284.82952647 6.64575195 284.86425781 C3.09835102 284.9130588 -0.44841707 284.93553428 -3.99609375 284.953125 C-5.63257118 284.98409271 -5.63257118 284.98409271 -7.30210876 285.01568604 C-16.96250619 285.01849134 -24.22102304 282.34539062 -31.328125 275.75 C-38.52007425 267.5640415 -42.48904865 258.24581221 -42.51501465 247.3543396 C-42.51939592 246.66332708 -42.52377719 245.97231456 -42.52829123 245.26036227 C-42.54053513 242.96305828 -42.53880832 240.66598501 -42.53710938 238.36865234 C-42.54313874 236.71385361 -42.55006429 235.05905793 -42.55781555 233.40426636 C-42.5726732 229.84831217 -42.58144602 226.29241384 -42.58552551 222.73643112 C-42.59226104 217.10341587 -42.61404334 211.47051935 -42.63806152 205.83755493 C-42.68697563 193.87089787 -42.71930168 181.90421555 -42.75 169.9375 C-42.78313519 157.03714748 -42.81923545 144.13684159 -42.87413073 131.23656046 C-42.89735189 125.6478943 -42.91118853 120.05931042 -42.91762543 114.47060084 C-42.92360582 110.97806448 -42.93773848 107.4855939 -42.95396996 103.99309158 C-42.95979685 102.38599766 -42.96232852 100.77888748 -42.96113014 99.17178345 C-42.95160454 81.28722165 -44.83380902 64.62268545 -55.25 49.5625 C-55.90935547 48.60730469 -55.90935547 48.60730469 -56.58203125 47.6328125 C-63.90569443 38.13526659 -76.78109701 31.88581383 -88.4609375 29.87890625 C-106.24729069 27.86112669 -121.86536828 31.84991261 -136.0625 42.8125 C-148.35494449 53.40699532 -154.7423031 68.55789964 -156.25 84.5625 C-156.38525166 87.41489462 -156.40451878 90.26201315 -156.40821838 93.11730957 C-156.41562535 94.35262838 -156.41562535 94.35262838 -156.42318195 95.61290312 C-156.4384491 98.35195957 -156.44688809 101.09099278 -156.45532227 103.83007812 C-156.46490928 105.80167848 -156.47491984 107.77327682 -156.48532104 109.74487305 C-156.51228692 115.08305907 -156.53334138 120.42125386 -156.55332303 125.75946999 C-156.57523405 131.34352834 -156.60259765 136.92755994 -156.62937927 142.51159668 C-156.6792371 153.07944023 -156.7242015 163.6472987 -156.76740164 174.21517134 C-156.81683315 186.24900291 -156.87172931 198.28280762 -156.92708123 210.3166132 C-157.04079518 235.06521828 -157.14693585 259.81384812 -157.25 284.5625 C-183.32 284.5625 -209.39 284.5625 -236.25 284.5625 C-236.27187378 275.6378772 -236.27187378 275.6378772 -236.29418945 266.53295898 C-236.34456952 246.85543665 -236.41102188 227.17799271 -236.48571491 207.50054836 C-236.53060162 195.57239607 -236.57003264 183.64427316 -236.59643555 171.71606445 C-236.61947341 161.31444886 -236.65293583 150.91292682 -236.69870156 140.5113855 C-236.72255584 135.00838958 -236.74133559 129.50548586 -236.74761391 124.0024395 C-236.75370015 118.81251942 -236.7738267 113.62283499 -236.80427551 108.43300247 C-236.81299934 106.53811472 -236.81679019 104.6431961 -236.81500816 102.74828911 C-236.80217149 82.78287112 -239.31865106 64.65848286 -252.25 48.5625 C-252.79914063 47.86382812 -253.34828125 47.16515625 -253.9140625 46.4453125 C-261.17845458 38.2208686 -274.205937 31.3526158 -285.25 30.5625 C-302.65865236 29.58199142 -317.36325754 32.93394554 -331.125 44.3125 C-341.09729577 53.80905322 -346.91130486 66.82483024 -347.3886652 80.54920006 C-347.40014003 82.09294164 -347.40631145 83.63672842 -347.40821838 85.18051147 C-347.41315636 86.03501691 -347.41809434 86.88952235 -347.42318195 87.7699219 C-347.43850816 90.62574682 -347.44690433 93.48154934 -347.45532227 96.33740234 C-347.46490462 98.38752437 -347.47491492 100.43764444 -347.48532104 102.48776245 C-347.51233739 108.0492007 -347.53336467 113.6106474 -347.55332303 119.17211485 C-347.57520274 124.98574073 -347.60258172 130.79934064 -347.62937927 136.61294556 C-347.67927929 147.62001416 -347.72422812 158.6270972 -347.76740164 169.63419402 C-347.81679699 182.16615542 -347.87170661 194.69809077 -347.92708123 207.23002696 C-348.04085998 233.00749485 -348.14698005 258.78498672 -348.25 284.5625 C-375.31 284.5625 -402.37 284.5625 -430.25 284.5625 C-430.0001922 247.4580694 -429.74120167 210.35377628 -429.45410156 173.24961853 C-429.43608785 170.91978804 -429.41807857 168.58995752 -429.40007639 166.26012695 C-429.38828281 164.73396799 -429.37647989 163.2078091 -429.36466742 161.68165028 C-429.28860254 151.83923182 -429.21768067 141.9967969 -429.15283203 132.15429688 C-429.09383209 123.20223816 -429.02624994 114.25031657 -428.94350529 105.29844379 C-428.90408351 101.01410729 -428.86914426 96.72986615 -428.84671021 92.44540405 C-428.65704893 57.46900146 -424.15346323 30.26089175 -399 3.9375 C-393.25133512 -1.6832391 -387.03750175 -6.15481554 -380.25 -10.4375 C-378.66638672 -11.45457031 -378.66638672 -11.45457031 -377.05078125 -12.4921875 C-339.38734024 -35.40225694 -290.38693128 -39.62829263 -248.0234375 -29.6796875 C-229.18851374 -24.93418472 -210.86073034 -17.1086803 -195.25 -5.4375 C-194.61835937 -5.85 -193.98671875 -6.2625 -193.3359375 -6.6875 C-190.32396739 -8.63182653 -187.29191628 -10.54035222 -184.25 -12.4375 C-182.69345703 -13.41009766 -182.69345703 -13.41009766 -181.10546875 -14.40234375 C-126.02549982 -47.39805467 -48.7192433 -42.49653621 0 0 Z " fill="#293789" transform="translate(2051.25,144.4375)"/>
<path d="M0 0 C0.88373291 0.00215515 1.76746582 0.0043103 2.67797852 0.00653076 C15.79257894 0.05783845 28.52497645 0.47478647 41.375 3.3125 C42.77878906 3.61051514 42.77878906 3.61051514 44.2109375 3.91455078 C64.71924963 8.35912817 83.91507298 15.35320675 102.375 25.3125 C102.96829102 25.62654785 103.56158203 25.9405957 104.17285156 26.26416016 C113.89994845 31.43854696 122.70642802 37.5428485 131.375 44.3125 C131.91447266 44.73337891 132.45394531 45.15425781 133.00976562 45.58789062 C155.1037156 63.05944509 172.38658927 83.98752028 186.375 108.3125 C186.92945801 109.25875244 186.92945801 109.25875244 187.49511719 110.22412109 C203.75856991 138.14179916 212.54102832 172.11394135 213.375 204.3125 C213.41496094 205.5190625 213.45492188 206.725625 213.49609375 207.96875 C214.33604291 256.58698387 198.95485078 305.29713755 168.375 343.3125 C167.18390625 344.80910156 167.18390625 344.80910156 165.96875 346.3359375 C145.48464426 371.57345664 119.93567155 391.76702963 90.375 405.3125 C89.66714355 405.6434668 88.95928711 405.97443359 88.22998047 406.31542969 C64.57956485 417.27294878 37.90967176 424.35930315 11.73828125 424.515625 C10.94479782 424.52268463 10.15131439 424.52974426 9.33378601 424.53701782 C-27.1785677 424.78797102 -59.86841981 419.04559018 -93.1875 403.5625 C-94.00379883 403.18569092 -94.82009766 402.80888184 -95.66113281 402.4206543 C-96.41362305 402.06011963 -97.16611328 401.69958496 -97.94140625 401.328125 C-98.60599854 401.01133789 -99.27059082 400.69455078 -99.95532227 400.36816406 C-101.625 399.3125 -101.625 399.3125 -103.625 396.3125 C-95.08576264 392.68360593 -86.4726898 389.30688329 -77.78515625 386.05078125 C-76.44543953 385.54686117 -75.10579631 385.04274564 -73.76622009 384.53845215 C-70.90441981 383.46155406 -68.04213368 382.38596175 -65.17944336 381.31143188 C-60.59734725 379.59149368 -56.01636738 377.86859589 -51.43554688 376.14526367 C-45.83426263 374.0382317 -40.23273014 371.93186237 -34.6308651 369.82637501 C-24.70920177 366.09719557 -14.78948936 362.36286126 -4.87109375 358.625 C-4.15346611 358.35455431 -3.43583847 358.08410862 -2.69646454 357.80546761 C0.90101991 356.44967695 4.49846399 355.0937792 8.09588623 353.73782349 C12.36280999 352.12954297 16.62987568 350.52163923 20.89697266 348.91381836 C35.35500564 343.46604277 49.81256872 338.01702194 64.26953125 332.56640625 C64.93326941 332.31616133 65.59700756 332.0659164 66.28085899 331.8080883 C79.97911807 326.64345462 93.6770115 321.47785127 107.375 316.3125 C107.705 292.8825 108.035 269.4525 108.375 245.3125 C101.775 247.9525 95.175 250.5925 88.375 253.3125 C83.43466297 255.1858136 78.4931248 257.04260253 73.53515625 258.8671875 C72.18474243 259.36659496 70.83443474 259.86628947 69.48422241 260.36624146 C66.62348672 261.42512608 63.7622571 262.48265904 60.90060425 263.5390625 C53.12096885 266.41151523 45.34562891 269.29556875 37.5703125 272.1796875 C36.77161932 272.47588737 35.97292614 272.77208725 35.15003014 273.07726288 C18.01625577 279.43270624 0.91018691 285.86070008 -16.1875 292.3125 C-17.60999378 292.84916641 -19.03248931 293.38582818 -20.45498657 293.92248535 C-27.60441515 296.61992474 -34.75328939 299.31883048 -41.90185547 302.01855469 C-56.11266536 307.38535705 -70.3257784 312.74605397 -84.53981018 318.10431671 C-86.00758387 318.65762869 -87.47534722 319.21096812 -88.94309998 319.76433563 C-113.47870433 329.01456164 -138.03513529 338.20732541 -162.625 347.3125 C-165.86821267 344.10073585 -168.90443148 340.88340952 -171.75 337.3125 C-172.41257813 336.4875 -173.07515625 335.6625 -173.7578125 334.8125 C-178.625 328.2957636 -178.625 328.2957636 -178.625 325.3125 C-165.58405788 320.01941695 -152.47451282 314.95792545 -139.27349854 310.07858276 C-133.70978869 308.0213383 -128.14985319 305.95393918 -122.58984375 303.88671875 C-121.39593018 303.44290359 -120.2020166 302.99908844 -118.97192383 302.54182434 C-104.04791567 296.98896989 -89.14904939 291.36940062 -74.25 285.75 C-72.78476208 285.19744195 -71.31952159 284.64489071 -69.85427856 284.09234619 C-63.91061555 281.85091181 -57.96706389 279.60918241 -52.02372742 277.36688232 C-41.78491854 273.50399356 -31.54520204 269.643521 -21.3046875 265.78515625 C-20.59395395 265.51736862 -19.88322041 265.24958099 -19.15094948 264.97367859 C-15.56818648 263.62379294 -11.9854066 262.2739521 -8.40261841 260.9241333 C-2.01803628 258.51871526 4.36640934 256.11293496 10.75086021 253.70716858 C12.88768135 252.90198103 15.02450585 252.0968024 17.16133118 251.29162598 C26.39997359 247.81040729 35.63855394 244.32902391 44.87710571 240.8475647 C50.49245886 238.73147376 56.10782761 236.61542423 61.72319984 234.49938393 C66.30211554 232.77390703 70.88101037 231.0483748 75.45988941 229.32280064 C78.285553 228.25795007 81.11123671 227.19315293 83.93692589 226.12837029 C85.24134859 225.63682227 86.54576299 225.14525225 87.85016823 224.65365791 C89.6426841 223.97811145 91.43523301 223.30265265 93.2277832 222.62719727 C94.22767776 222.25039322 95.22757233 221.87358917 96.25776672 221.48536682 C99.96241146 220.09148497 103.66882753 218.70231468 107.375 217.3125 C107.705 193.8825 108.035 170.4525 108.375 146.3125 C101.775 148.9525 95.175 151.5925 88.375 154.3125 C83.43466302 156.18581358 78.49312406 158.04260065 73.53515625 159.8671875 C72.18487965 160.36654889 70.83470929 160.86619763 69.4846344 161.36610413 C66.62403732 162.42494647 63.76294575 163.48243555 60.90142822 164.53878784 C53.1176519 167.41274209 45.33808183 170.2980561 37.55859375 173.18359375 C36.75953613 173.4799151 35.96047852 173.77623646 35.13720703 174.08153725 C18.06929071 180.41234742 1.03088661 186.82035435 -16 193.25 C-17.42633681 193.78840151 -18.85267757 194.32679259 -20.27902222 194.86517334 C-20.98767016 195.13265759 -21.69631811 195.40014183 -22.42644024 195.67573166 C-26.0212455 197.03259099 -29.61608229 198.38936675 -33.2109375 199.74609375 C-34.28064254 200.14985229 -34.28064254 200.14985229 -35.37195778 200.56176758 C-52.44613237 207.00581699 -69.5352813 213.40981437 -86.625 219.8125 C-105.12665705 226.74438097 -123.62541248 233.68375678 -142.11328125 240.65234375 C-142.91057522 240.9528577 -143.70786919 241.25337166 -144.52932358 241.5629921 C-152.22869556 244.4651999 -159.92761147 247.36861392 -167.62572956 250.27414608 C-170.42389929 251.33016618 -173.22224697 252.38571422 -176.02062035 253.44119453 C-177.91280505 254.15511655 -179.80471308 254.86977176 -181.6966095 255.5844574 C-185.00425642 256.83204319 -188.31431146 258.07301289 -191.625 259.3125 C-193.20044083 259.90951218 -193.20044083 259.90951218 -194.80770874 260.51858521 C-196.2838414 261.07024857 -196.2838414 261.07024857 -197.78979492 261.63305664 C-198.65287766 261.95802628 -199.51596039 262.28299591 -200.40519714 262.61781311 C-202.625 263.3125 -202.625 263.3125 -205.625 263.3125 C-207.46962055 256.70875842 -208.88088573 250.17639779 -209.7265625 243.37890625 C-209.81462158 242.69477661 -209.90268066 242.01064697 -209.9934082 241.30578613 C-210.2071357 239.64176491 -210.41652931 237.97718797 -210.625 236.3125 C-209.44139893 235.87309082 -208.25779785 235.43368164 -207.03833008 234.98095703 C-180.08368049 224.97051749 -153.15430994 214.89484056 -126.25 204.75 C-125.52763279 204.47761757 -124.80526558 204.20523514 -124.06100845 203.92459869 C-117.3815986 201.4058877 -110.70240547 198.88660233 -104.02342224 196.36676025 C-90.20434025 191.15312791 -76.38323793 185.94486537 -62.56174374 180.7376318 C-57.5505894 178.84967147 -52.53954703 176.96141419 -47.52856445 175.07299805 C-34.48837976 170.15879719 -21.44791332 165.24534915 -8.40618896 160.3352356 C-3.26406522 158.39925659 1.8778932 156.46283868 7.01981354 154.5263195 C10.63383066 153.16526164 14.24793578 151.80443844 17.86224365 150.44415283 C32.71549842 144.85377437 47.56326983 139.24985491 62.39102364 133.59213257 C64.46964588 132.79915219 66.5484945 132.00676844 68.62742615 131.21459961 C69.97598475 130.70068907 71.32454129 130.18677311 72.6730957 129.67285156 C73.32938807 129.42276085 73.98568045 129.17267014 74.66186047 128.91500092 C77.88015988 127.68812492 81.09760597 126.4590914 84.31332397 125.22546387 C87.81406981 123.8830994 91.3169618 122.54648564 94.8203125 121.2109375 C95.85421616 120.81234528 96.88811981 120.41375305 97.95335388 120.00308228 C98.89445511 119.64547821 99.83555634 119.28787415 100.80517578 118.91943359 C101.62075958 118.60702728 102.43634338 118.29462097 103.27664185 117.9727478 C105.375 117.3125 105.375 117.3125 108.375 117.3125 C108.045 93.8825 107.715 70.4525 107.375 46.3125 C96.815 50.293125 86.255 54.27375 75.375 58.375 C36.46240667 73.04040044 36.46240667 73.04040044 18.375 79.8125 C6.63016339 84.21004456 -5.10889561 88.62276255 -16.84375 93.046875 C-17.52996933 93.30558065 -18.21618866 93.56428631 -18.92320251 93.83083153 C-22.5118992 95.18380849 -26.10056061 96.53687901 -29.68920898 97.88998413 C-31.16780578 98.44748997 -32.64640279 99.00499526 -34.125 99.5625 C-34.85764069 99.83874332 -35.59028137 100.11498665 -36.34512329 100.39960098 C-53.87094431 107.00753343 -71.39935822 113.60842127 -88.9375 120.18359375 C-90.06778185 120.6073463 -90.06778185 120.6073463 -91.22089767 121.0396595 C-98.764219 123.86751773 -106.30801993 126.69409436 -113.85221672 129.51961613 C-128.71988269 135.08833574 -143.58346876 140.66733173 -158.43219757 146.28638268 C-160.6203581 147.11437486 -162.80866176 147.94198764 -164.99700928 148.76948547 C-171.16474218 151.10197588 -177.3320572 153.43551011 -183.49638939 155.77697563 C-186.53573388 156.93057447 -189.57660325 158.08014237 -192.6171875 159.23046875 C-194.25994156 159.8564093 -194.25994156 159.8564093 -195.93588257 160.49499512 C-196.92754425 160.86942749 -197.91920593 161.24385986 -198.94091797 161.62963867 C-200.23399368 162.12037117 -200.23399368 162.12037117 -201.55319214 162.62101746 C-203.625 163.3125 -203.625 163.3125 -205.625 163.3125 C-205.04840007 157.05639072 -203.64137746 151.503243 -201.625 145.5625 C-201.16468384 144.19919556 -201.16468384 144.19919556 -200.69506836 142.80834961 C-191.44609421 116.12569269 -177.29937121 92.42265876 -158.625 71.3125 C-157.89925781 70.46429688 -157.17351562 69.61609375 -156.42578125 68.7421875 C-125.67932369 33.3922862 -80.77900986 9.56142093 -34.625 2.3125 C-33.57199707 2.13807373 -32.51899414 1.96364746 -31.43408203 1.78393555 C-20.92968102 0.19336601 -10.60585421 -0.04657808 0 0 Z " fill="#EE7E19" transform="translate(235.625,70.6875)"/>
<path d="M0 0 C8.52154456 8.42941975 14.53139871 18.58233694 14.72911072 30.73486328 C14.72408035 31.63398437 14.71904999 32.53310547 14.71386719 33.45947266 C14.7293737 34.92469864 14.7293737 34.92469864 14.74519348 36.41952515 C14.77442463 39.61188689 14.77611649 42.8036092 14.77734375 45.99609375 C14.79233866 48.22383824 14.80906855 50.45157168 14.82745361 52.67929077 C14.87099176 58.51532526 14.89109629 64.3512098 14.90618896 70.18737793 C14.92580885 76.15365414 14.96777337 82.11976957 15.0078125 88.0859375 C15.08296805 99.77208566 15.13334824 111.45819758 15.16796875 123.14453125 C16.27640137 121.92564209 16.27640137 121.92564209 17.40722656 120.68212891 C18.39510684 119.59921502 19.38306681 118.51637383 20.37109375 117.43359375 C20.85594238 116.90000244 21.34079102 116.36641113 21.84033203 115.81665039 C41.27167868 94.5463237 68.40919282 79.50588093 97.58178711 78.02172852 C131.81820557 76.9567969 161.20436209 87.46071929 186.98046875 110.08203125 C213.52266212 135.07204957 225.720062 168.26557584 227.16796875 204.14453125 C227.32834398 210.62386364 227.29523982 217.10514053 227.28149414 223.5859375 C227.28121133 225.47989907 227.28137183 227.37386076 227.28193665 229.26782227 C227.28222097 234.35763138 227.27638377 239.44741643 227.26936269 244.53722 C227.26306788 249.87564214 227.26252054 255.21406496 227.26133728 260.55249023 C227.25824191 270.63843013 227.25005292 280.72435906 227.23998779 290.81029415 C227.22877066 302.30258532 227.22330215 313.79487703 227.21829236 325.28717232 C227.20786863 348.90629943 227.18954569 372.52541151 227.16796875 396.14453125 C201.42796875 396.14453125 175.68796875 396.14453125 149.16796875 396.14453125 C149.16909668 390.45283691 149.17022461 384.76114258 149.17138672 378.89697266 C149.1707581 360.05364784 149.13753609 341.21048338 149.08769035 322.36722755 C149.05827057 310.9469185 149.03984315 299.52679453 149.04785156 288.10644531 C149.05480821 278.14531738 149.04057136 268.18447624 149.00153267 258.22341859 C148.98160996 252.95550184 148.97186016 247.68803459 148.98754501 242.42009354 C149.00201434 237.44745681 148.98784852 232.47567313 148.95301628 227.50314522 C148.94513882 225.69175668 148.9471509 223.88028939 148.96057701 222.06893349 C149.11833571 198.78990511 140.90421955 179.53552489 124.98046875 162.51953125 C112.77363629 150.66442108 96.82307962 145.70832767 80.08984375 145.8671875 C64.67323859 146.95740559 50.79613486 152.98399776 39.16796875 163.14453125 C38.57628906 163.64210937 37.98460938 164.1396875 37.375 164.65234375 C23.65269021 177.15000804 15.83056381 197.09306584 14.88356972 215.35009384 C14.72647644 220.10775668 14.7307532 224.8647759 14.7355957 229.62451172 C14.726559 231.43936827 14.71622717 233.25421876 14.70471191 235.06906128 C14.67733973 239.95239055 14.66788453 244.8356034 14.66185784 249.71899939 C14.65242223 254.83860147 14.62621497 259.95811834 14.60185242 265.07766724 C14.55832564 274.7528262 14.52969401 284.4279685 14.50652903 294.10319531 C14.47940294 305.12633431 14.43549622 316.14938698 14.39024031 327.17246413 C14.29759212 349.82978542 14.22803547 372.48709854 14.16796875 395.14453125 C-11.57203125 395.14453125 -37.31203125 395.14453125 -63.83203125 395.14453125 C-63.83203125 262.48453125 -63.83203125 129.82453125 -63.83203125 -6.85546875 C-9.88857067 -8.31340012 -9.88857067 -8.31340012 0 0 Z " fill="#293789" transform="translate(2459.83203125,32.85546875)"/>
<path d="M0 0 C8.36009001 7.4028278 15.10970091 15.47548747 21 25 C21.3722168 25.59232422 21.74443359 26.18464844 22.12792969 26.79492188 C45.55094744 64.5353341 50 110.62316054 50 154 C-16.66 154 -83.32 154 -152 154 C-157.10503623 164.21007246 -154.99205606 173.21662994 -152 184 C-150.56844358 188.1271467 -148.87949642 192.0584275 -147 196 C-146.56945312 196.92554688 -146.13890625 197.85109375 -145.6953125 198.8046875 C-139.222924 211.71289734 -130.3442708 219.72540647 -117 225 C-116.1028125 225.35964844 -115.205625 225.71929687 -114.28125 226.08984375 C-97.14604267 231.55799079 -75.08490112 229.28135188 -59.125 221.3125 C-52.55238869 217.40660429 -46.6850702 212.36388009 -41.9140625 206.38671875 C-36.65337499 199.8269635 -29.37862356 196.63112875 -21.12471008 195.66261292 C-13.52075637 195.09425226 -5.97921721 194.86558127 1.64453125 194.90234375 C2.78033127 194.9037587 3.91613129 194.90517365 5.08634949 194.90663147 C8.66176148 194.91216323 12.2371074 194.92470228 15.8125 194.9375 C18.25846263 194.94252384 20.70442625 194.94708519 23.15039062 194.95117188 C29.1002824 194.96211017 35.05013648 194.9787785 41 195 C41.26426104 217.81207617 29.04331906 238.59792954 14 255 C11.47919781 257.56179085 8.8462084 259.80725782 6 262 C4.99453125 262.77988281 3.9890625 263.55976563 2.953125 264.36328125 C-32.35512491 291.0168972 -79.01136766 297.94738634 -122 292 C-148.21516379 287.63381305 -172.51135883 278.06411114 -193 261 C-193.69609375 260.44441406 -194.3921875 259.88882812 -195.109375 259.31640625 C-222.73122441 236.76671061 -234.32538839 197.07494919 -238.22631836 163.06176758 C-243.21198786 111.14933216 -234.39890761 54.29679326 -200.91992188 12.75 C-178.19073518 -14.4596163 -146.62325078 -27.63712312 -111.62817383 -30.82128906 C-72.65790113 -33.4711952 -30.52759008 -25.93203888 0 0 Z M-146.3125 57.8125 C-155.81108744 71.60423431 -158.81871352 87.64270607 -156 104 C-145.00982789 104.13235275 -134.01963531 104.26284859 -123.02941513 104.39115143 C-117.92291964 104.45082061 -112.81643245 104.51106401 -107.70996094 104.57275391 C-97.07141049 104.70091516 -86.43287612 104.82079746 -75.79401398 104.92019653 C-70.91800806 104.96677254 -66.04257114 105.02661287 -61.16697311 105.10489655 C-57.92914741 105.15399312 -54.69114043 105.18487694 -51.453125 105.21875 C-50.33532654 105.24199341 -49.21752808 105.26523682 -48.06585693 105.28918457 C-40.98368611 105.45620448 -40.98368611 105.45620448 -35 102 C-32.04347386 93.13042158 -34.38473186 84.30765157 -38 76 C-46.96831279 58.1314882 -60.32587537 43.60387285 -79.5625 37.125 C-103.13467888 29.87331214 -130.79720494 38.51682848 -146.3125 57.8125 Z " fill="#293789" transform="translate(759,136)"/>
<path d="M0 0 C0.78095032 -0.00705963 1.56190063 -0.01411926 2.36651611 -0.02139282 C34.85990404 -0.24852621 34.85990404 -0.24852621 48.57421875 3.203125 C49.41114258 3.40711914 50.24806641 3.61111328 51.11035156 3.82128906 C79.95312618 11.01366154 108.61387335 24.93330038 124.76220703 51.13037109 C134.08424212 67.02959913 139.21554874 83.60455531 138.57421875 102.203125 C126.29034626 103.17409286 114.04508095 103.42026485 101.72607422 103.44335938 C98.55150382 103.45319538 95.37754808 103.48439317 92.203125 103.515625 C90.16016002 103.52214578 88.11719051 103.52739987 86.07421875 103.53125 C85.13763428 103.5435968 84.2010498 103.5559436 83.23608398 103.56866455 C76.22596562 103.54499245 70.43666121 102.65121094 64.9296875 97.94140625 C62.72279737 95.37585073 60.52900653 92.80329788 58.37719727 90.19140625 C44.97685016 74.00124078 29.5538516 65.76051282 8.57421875 63.203125 C-5.11261633 62.44998699 -19.77922982 63.12735226 -31.42578125 71.203125 C-36.78207932 76.12054576 -40.05664934 80.57332793 -40.80078125 87.890625 C-40.62026666 94.24473873 -38.16134096 100.02127851 -34.23828125 104.953125 C-11.47153419 123.16652265 20.73921346 127.09022391 48.48388672 133.11987305 C117.45663078 148.18566925 117.45663078 148.18566925 137.80078125 178.5234375 C150.34078215 198.97630302 154.45137711 223.55540915 149.1887207 247.06665039 C145.29992854 261.7736081 138.26858238 274.51974538 128.57421875 286.203125 C127.8884375 287.05261719 127.20265625 287.90210938 126.49609375 288.77734375 C102.62251535 316.93932419 65.16490213 326.07222726 29.81225586 329.11938477 C-12.80762275 332.49410397 -58.4315774 328.50742814 -92.7734375 300.48828125 C-93.64871094 299.73417969 -94.52398438 298.98007812 -95.42578125 298.203125 C-96.08449219 297.64496094 -96.74320313 297.08679688 -97.421875 296.51171875 C-117.42153843 278.08246769 -123.96145548 251.33776843 -125.42578125 225.203125 C-125.42578125 223.883125 -125.42578125 222.563125 -125.42578125 221.203125 C-100.34578125 221.203125 -75.26578125 221.203125 -49.42578125 221.203125 C-48.10578125 226.483125 -46.78578125 231.763125 -45.42578125 237.203125 C-38.24274548 251.40957351 -26.98866338 259.57465525 -12.02709961 264.48974609 C8.78654036 270.93672694 34.09315664 271.42662562 53.76171875 261.203125 C55.379883 260.22593762 56.98677525 259.22946502 58.57421875 258.203125 C59.99734375 257.336875 59.99734375 257.336875 61.44921875 256.453125 C65.58095268 252.0783479 68.7892161 246.30924298 69.13671875 240.203125 C68.58515842 232.63449161 64.99913112 225.39217161 59.57421875 220.203125 C56.38564026 217.89520152 53.06369989 216.01898271 49.57421875 214.203125 C48.18203125 213.47802734 48.18203125 213.47802734 46.76171875 212.73828125 C28.32601363 204.05045521 7.27162398 200.87372077 -12.55078125 196.703125 C-91.04188935 180.1675306 -91.04188935 180.1675306 -112.17578125 149.015625 C-124.23369992 128.95639603 -125.1895691 103.547429 -119.92626953 81.15527344 C-116.02386372 65.93398718 -108.92865269 52.83627234 -98.42578125 41.203125 C-97.6884375 40.37167969 -96.95109375 39.54023438 -96.19140625 38.68359375 C-72.62160611 13.57147447 -33.93493666 0.20468692 0 0 Z " fill="#293789" transform="translate(1446.42578125,99.796875)"/>
<path d="M0 0 C0.88263016 -0.00701431 1.76526031 -0.01402863 2.67463684 -0.02125549 C5.50840405 -0.03866978 8.34196249 -0.04510776 11.17578125 -0.046875 C12.14225586 -0.04754974 13.10873047 -0.04822449 14.10449219 -0.04891968 C28.08682738 -0.03338181 41.77193437 0.2130664 55.48828125 3.203125 C56.30006836 3.37473145 57.11185547 3.54633789 57.94824219 3.72314453 C69.38784258 6.22234657 80.01888171 9.96986136 90.48828125 15.203125 C91.55691406 15.73679687 92.62554688 16.27046875 93.7265625 16.8203125 C110.27920548 25.79437834 124.35553734 41.13039733 130.80078125 58.890625 C136.86163318 81.90990244 134.76802453 107.55096713 134.68389893 131.1539917 C134.67311112 134.95689529 134.67347528 138.75976307 134.67390537 142.56267929 C134.67082696 255.33767898 134.67082696 255.33767898 99.42578125 291.703125 C76.39104194 314.69752914 46.71333269 319.6860092 15.48828125 323.203125 C14.70332275 323.29883789 13.91836426 323.39455078 13.10961914 323.49316406 C4.50736613 324.42621046 -4.11698225 324.42448985 -12.76000977 324.44335938 C-15.4126003 324.45299202 -18.0643895 324.48406927 -20.71679688 324.515625 C-51.9242131 324.70707821 -81.03983336 316.72215278 -104.19921875 294.953125 C-124.00476946 274.253822 -132.11974171 247.66230936 -131.79296875 219.54296875 C-131.12503204 197.36413034 -123.25836457 175.00261191 -107.51171875 159.203125 C-106.8465625 158.51476562 -106.18140625 157.82640625 -105.49609375 157.1171875 C-93.71946763 145.74510197 -77.6761129 139.6170875 -62.51171875 134.203125 C-61.7655127 133.92871582 -61.01930664 133.65430664 -60.25048828 133.37158203 C-46.53442977 128.45714228 -32.33439435 126.76584655 -17.97314453 124.8265686 C20.38402965 120.48143746 20.38402965 120.48143746 51.92578125 100.390625 C54.64796776 94.83736452 55.16201321 89.69816341 53.55078125 83.703125 C50.98583541 77.04592465 46.0064986 71.26975582 39.73828125 67.828125 C22.01121144 60.28981765 -2.25696608 59.73172081 -20.51171875 66.203125 C-27.94480478 69.3770644 -34.29081356 74.08126584 -38.17059326 81.28189087 C-40.51171875 84.203125 -40.51171875 84.203125 -43.72613525 84.9246521 C-45.63141998 84.9046666 -45.63141998 84.9046666 -47.57519531 84.88427734 C-48.62945709 84.88559158 -48.62945709 84.88559158 -49.70501709 84.88693237 C-52.02193423 84.88276094 -54.33593441 84.83613983 -56.65234375 84.7890625 C-58.26086851 84.77786854 -59.86941376 84.76932929 -61.47796631 84.76333618 C-65.70683509 84.74045293 -69.93446266 84.68153604 -74.1628418 84.6151123 C-78.47948413 84.5536777 -82.79632753 84.52631878 -87.11328125 84.49609375 C-95.579996 84.43179052 -104.04570288 84.32941933 -112.51171875 84.203125 C-112.66805845 64.49161167 -105.18538658 46.65514573 -91.44921875 32.578125 C-67.9890793 9.44673931 -32.17082482 0.1715552 0 0 Z M50.26123047 164.66845703 C48.99826141 164.98944366 47.73529236 165.3104303 46.43405151 165.6411438 C45.05361524 165.9974499 43.67325636 166.35405594 42.29296875 166.7109375 C40.86213109 167.07794336 39.43123196 167.44470968 38.00027466 167.81124878 C34.99168792 168.58316193 31.98407175 169.35872933 28.97705078 170.13671875 C25.92755743 170.92536693 22.87684357 171.70894891 19.82470703 172.48730469 C-17.76377133 179.55479267 -17.76377133 179.55479267 -46.75390625 201.1796875 C-52.91850617 212.83393114 -53.2909023 226.97361032 -50.82421875 239.76953125 C-49.91741892 242.42569908 -48.87669689 244.75381843 -47.51171875 247.203125 C-47.08761719 248.0075 -46.66351562 248.811875 -46.2265625 249.640625 C-41.59876184 257.47823727 -35.41667241 261.66406091 -26.69921875 264.078125 C-7.94319441 267.75491857 15.69038802 266.25731553 31.9765625 255.5703125 C34.24541511 253.86962634 36.37466713 252.09232063 38.48828125 250.203125 C39.11476563 249.65785156 39.74125 249.11257813 40.38671875 248.55078125 C58.7484611 231.51204653 60.46911866 202.87714309 61.37426758 179.50415039 C61.53819038 173.93280907 61.53541879 168.68473136 60.48828125 163.203125 C56.68106547 163.203125 53.92472675 163.73085661 50.26123047 164.66845703 Z " fill="#293789" transform="translate(1159.51171875,108.796875)"/>
<path d="M0 0 C6.95631349 0.06729252 13.91207783 0.15721252 20.86791992 0.26245117 C23.23146016 0.2955902 25.59507745 0.32365602 27.95874023 0.34643555 C31.36735694 0.38018423 34.77527463 0.43251129 38.18359375 0.48828125 C39.23083115 0.49467117 40.27806854 0.5010611 41.35704041 0.50764465 C53.40867015 0.7461112 61.12496099 4.36940682 69.7578125 12.6953125 C78.06558848 21.67105036 78.56215664 31.02103893 78.390625 42.75390625 C78.38315105 44.26561225 78.37746358 45.77732803 78.37347412 47.28904724 C78.35830826 51.23970988 78.31910689 55.18977056 78.2746582 59.14019775 C78.23350819 63.18257508 78.21542129 67.22505106 78.1953125 71.26757812 C78.15260182 79.17865957 78.084463 87.08925459 78 95 C78.61156952 94.92894547 79.22313904 94.85789093 79.85324097 94.78468323 C85.7639849 94.1395902 91.56511814 93.86407388 97.5078125 93.90234375 C98.35930878 93.9037587 99.21080505 93.90517365 100.08810425 93.90663147 C102.76710759 93.91216081 105.44602257 93.92469926 108.125 93.9375 C109.95833211 93.94252416 111.79166556 93.94708545 113.625 93.95117188 C118.08336659 93.96210694 122.54166839 93.97932128 127 94 C127.03233371 96.52354224 127.0557503 99.04666105 127.07421875 101.5703125 C127.0841687 102.27583252 127.09411865 102.98135254 127.10437012 103.70825195 C127.17005809 115.71877897 124.02252096 127.91342849 115.6875 136.875 C109.57797739 142.51865487 102.96567666 144.95383383 94.71484375 145.140625 C93.93689453 145.15996094 93.15894531 145.17929688 92.35742188 145.19921875 C90.74048761 145.23314957 89.12314753 145.2513082 87.50585938 145.25390625 C86.72919922 145.27839844 85.95253906 145.30289063 85.15234375 145.328125 C84.45101318 145.3374707 83.74968262 145.34681641 83.02709961 145.35644531 C79.83771311 146.36899774 78.80552838 148.2376537 77 151 C76.40341906 154.43597467 76.40341906 154.43597467 76.49879456 158.26704407 C76.49326016 158.98846043 76.48772576 159.7098768 76.48202366 160.45315427 C76.4684337 162.86536246 76.48337665 165.27653295 76.49829102 167.6887207 C76.49450712 169.42030272 76.48900649 171.15188172 76.48191833 172.88345337 C76.46795251 177.58408638 76.4791428 182.28435379 76.49562955 186.98496652 C76.50948312 191.90731355 76.50301936 196.82963941 76.49949646 201.7519989 C76.49679382 210.02149339 76.51027197 218.29084278 76.53344727 226.56030273 C76.56003095 236.11186684 76.56181267 245.66318794 76.5500589 255.21477634 C76.53926517 264.40970224 76.54548243 273.6045405 76.55961418 282.79945946 C76.5653628 286.70876329 76.56530007 290.61800276 76.56054878 294.52730751 C76.5557633 299.13615999 76.56594564 303.74474778 76.58750343 308.35354996 C76.59305108 310.04175741 76.59355524 311.72999039 76.58855057 313.41819954 C76.56339566 323.12352974 76.63176033 330.84857462 82.125 339.25 C90.27470856 347.0453734 99.87063808 346.64372661 110.5625 346.75 C115.656875 346.8325 120.75125 346.915 126 347 C126 365.48 126 383.96 126 403 C103.19145709 403.12032643 103.19145709 403.12032643 93.4296875 403.14648438 C86.78247852 403.16438119 80.13539414 403.18549792 73.48828125 403.22631836 C68.12607334 403.25904006 62.76399916 403.27688001 57.40169907 403.28463173 C55.36128511 403.29015229 53.32087804 403.30093236 51.28052139 403.31719017 C48.4109775 403.33913479 45.54197828 403.34195984 42.67236328 403.34057617 C41.4218644 403.35675491 41.4218644 403.35675491 40.14610291 403.3732605 C29.56738059 403.31847134 20.9758266 399.9168513 13 393 C1.12479435 380.5571459 -0.31176786 366.46740254 -0.24050903 349.94064331 C-0.24138239 348.42645989 -0.24313577 346.91227677 -0.24568737 345.39809525 C-0.25013931 341.25907513 -0.24218698 337.12015937 -0.23213124 332.98115253 C-0.22346787 328.50957569 -0.22641894 324.03800439 -0.22793579 319.56642151 C-0.22898282 311.82632943 -0.22272528 304.08627116 -0.21146011 296.34618759 C-0.19518336 285.15542785 -0.18999488 273.96468441 -0.18748413 262.77391411 C-0.18311044 244.6161939 -0.16981019 226.45849169 -0.15087891 208.30078125 C-0.13251167 190.66569102 -0.11835929 173.03060568 -0.10986328 155.39550781 C-0.10933783 154.30788166 -0.10881239 153.22025551 -0.10827102 152.09967099 C-0.10566088 146.64319136 -0.10313348 141.18671169 -0.10064721 135.730232 C-0.07992487 90.48680887 -0.04470822 45.24340536 0 0 Z " fill="#293789" transform="translate(2243,26)"/>
<path d="M0 0 C0.82439575 0.00169189 1.6487915 0.00338379 2.49816895 0.00512695 C4.5078984 0.00949751 6.5176225 0.01622127 8.52734375 0.0234375 C8.67770786 26.04105432 8.27890145 52.01674285 7.52734375 78.0234375 C6.68776123 78.03802002 5.84817871 78.05260254 4.9831543 78.06762695 C-34.418971 78.04451824 -34.418971 78.04451824 -68.828125 95.08984375 C-88.1255598 115.32861683 -85.65278593 149.20210764 -85.59765625 175.0859375 C-85.59677002 176.2894989 -85.59588379 177.4930603 -85.5949707 178.73309326 C-85.57913169 197.26626601 -85.31813067 215.78630218 -84.90145874 234.31436157 C-84.33847147 259.5544306 -84.40478747 284.77625254 -84.47265625 310.0234375 C-110.54265625 310.0234375 -136.61265625 310.0234375 -163.47265625 310.0234375 C-164.63190134 281.04231013 -164.63190134 281.04231013 -164.8908844 267.46174622 C-164.90998934 266.47331034 -164.92909428 265.48487446 -164.94877815 264.46648598 C-164.96825949 263.45016279 -164.98774082 262.43383961 -165.0078125 261.38671875 C-165.05111102 259.20419596 -165.09452523 257.02167547 -165.13804626 254.8391571 C-165.22795257 250.29897182 -165.31593811 245.75875441 -165.40258789 241.21850586 C-165.48989406 236.6533399 -165.58006017 232.08824613 -165.6730957 227.52319336 C-166.12811012 205.18574907 -166.55819095 182.85055675 -166.578125 160.5078125 C-166.57976213 159.73855753 -166.58139927 158.96930256 -166.58308601 158.17673683 C-166.60122265 146.04124572 -166.21501165 134.04497076 -164.47265625 122.0234375 C-164.34906738 121.16621094 -164.22547852 120.30898437 -164.09814453 119.42578125 C-160.29653144 94.39503906 -151.90383889 68.00093473 -134.47265625 49.0234375 C-133.81265625 48.22421875 -133.15265625 47.425 -132.47265625 46.6015625 C-106.25773619 15.56772331 -63.33008261 4.42989893 -24.47265625 1.0234375 C-22.62220703 0.85714844 -22.62220703 0.85714844 -20.734375 0.6875 C-13.80815837 0.14627505 -6.94377803 -0.02743881 0 0 Z " fill="#293789" transform="translate(1006.47265625,118.9765625)"/>
<path d="M0 0 C1.55491106 -0.02175044 3.10969437 -0.05605056 4.6640625 -0.10253906 C17.43900514 -0.47756611 27.81446903 1.54014648 37.54394531 10.65112305 C46.05553074 20.42529659 47.38099598 30.50434884 47.3117981 43.04127502 C47.31350695 44.1841924 47.3152158 45.32710978 47.31697643 46.50466102 C47.32025986 50.31860166 47.30928636 54.13236475 47.29833984 57.94628906 C47.29666024 60.68649913 47.2980048 63.42670578 47.29922485 66.16691589 C47.30027108 72.05831793 47.29402199 77.9496755 47.28274918 83.84106636 C47.26646146 92.35891187 47.26128283 100.87673598 47.25877319 109.39459538 C47.25440122 123.21587524 47.24110563 137.03713142 47.22216797 150.85839844 C47.20379628 164.28059776 47.18964609 177.70279064 47.18115234 191.125 C47.1806269 191.95302026 47.18010145 192.78104052 47.17956008 193.6341523 C47.17694991 197.78828836 47.17442252 201.94242446 47.17193627 206.0965606 C47.15121926 240.53273781 47.11435787 274.96887098 47.07128906 309.4050293 C21.00128906 309.4050293 -5.06871094 309.4050293 -31.92871094 309.4050293 C-31.92871094 207.7650293 -31.92871094 106.1250293 -31.92871094 1.4050293 C-21.2455758 0.73733335 -10.6826644 0.11170086 0 0 Z " fill="#293789" transform="translate(2166.9287109375,119.594970703125)"/>
<path d="M0 0 C12.00375 -0.1546875 12.00375 -0.1546875 24.25 -0.3125 C28.00165527 -0.38078003 28.00165527 -0.38078003 31.82910156 -0.45043945 C45.30433916 -0.59497873 56.83665678 -0.59462723 67.3125 9.0625 C74.88398974 16.72370518 79.57551317 23.90867385 79.68359375 34.828125 C79.66287861 37.97217976 79.55650618 41.1083652 79.4375 44.25 C79.40230184 45.88144261 79.37037797 47.5129593 79.34179688 49.14453125 C79.26552774 53.09822054 79.14523732 57.04826798 79 61 C60.95115719 61.07380431 42.91977629 60.87231787 24.875 60.5 C16.66625 60.335 8.4575 60.17 0 60 C0 40.2 0 20.4 0 0 Z " fill="#293789" transform="translate(2134,27)"/>
</svg>
