<?xml version="1.0" encoding="UTF-8"?>
<svg version="1.1" xmlns="http://www.w3.org/2000/svg" width="864" height="864">
<path d="M0 0 C240.57 0 481.14 0 729 0 C729 48.18 729 96.36 729 146 C488.1 146 247.2 146 -1 146 C-1 7 -1 7 0 0 Z M271 49 C263.84085486 59.1800561 261.86077575 69.02365053 263.2734375 81.39453125 C265.1633291 91.57498506 270.54017538 99.11663688 279 105 C288.51553931 110.51063043 300.84072466 110.54237844 311.390625 108.26953125 C319.5078164 105.55271172 326.07755362 100.76143645 330 93 C331.24700175 89.01957043 332.12714943 85.08861582 333 81 C325.74 81 318.48 81 311 81 C310.01 83.31 309.02 85.62 308 88 C305.77300087 90.29762278 304.52522482 90.90607008 301.37890625 91.46875 C293.82054993 91.55261526 293.82054993 91.55261526 289.9375 88.9375 C285.84629329 82.73470274 285.28210992 76.24516759 286 69 C287.13883392 63.67989995 288.56687298 59.43209834 293 56 C296.20111071 54.39944465 299.51882263 54.64518769 303 55 C305.8125 56.0625 305.8125 56.0625 308 58 C308.99 60.31 309.98 62.62 311 65 C317.93 65 324.86 65 332 65 C330.78033584 55.24268673 328.1634373 48.75650195 320.41796875 42.5078125 C304.46483355 32.55965388 283.42068848 34.98691557 271 49 Z M45 39 C45 61.77 45 84.54 45 108 C52.26 108 59.52 108 67 108 C67 99.09 67 90.18 67 81 C74.26 81 81.52 81 89 81 C89 89.91 89 98.82 89 108 C96.26 108 103.52 108 111 108 C111 85.23 111 62.46 111 39 C103.74 39 96.48 39 89 39 C89 46.59 89 54.18 89 62 C81.74 62 74.48 62 67 62 C67 54.41 67 46.82 67 39 C59.74 39 52.48 39 45 39 Z M125 39 C124.97687411 47.8488239 124.95908366 56.69763747 124.94818783 65.54648495 C124.94295954 69.65494285 124.93586287 73.76338014 124.92456055 77.87182617 C124.91372975 81.83346828 124.90772276 85.79509052 124.90512276 89.75674629 C124.90326886 91.27148311 124.8996489 92.78621879 124.89426994 94.30094719 C124.88705693 96.41541813 124.88600917 98.52980594 124.88647461 100.64428711 C124.884254 101.85007919 124.88203339 103.05587128 124.87974548 104.29820251 C124.69175539 106.91674401 124.69175539 106.91674401 126 108 C130.48315639 108.22177237 134.97234145 108.18578398 139.46044922 108.18530273 C141.69909801 108.18745115 143.93722236 108.20548701 146.17578125 108.22460938 C165.28951116 108.53323176 165.28951116 108.53323176 181.8984375 100.34765625 C190.31744974 91.66221958 192.10942996 80.75004195 192 69 C191.3228784 60.45133977 188.19261507 51.74078362 182 45.625 C170.83259194 37.52242504 157.2675685 38.50309638 144.1875 38.75 C142.31968076 38.77011024 140.45184045 38.78835295 138.58398438 38.8046875 C134.05545902 38.84829144 129.52796878 38.91706433 125 39 Z M202 39 C201.97093503 51.06152108 201.97093503 51.06152108 201.95117188 63.12304688 C201.94518399 68.03931756 201.93808516 72.95556969 201.92456055 77.87182617 C201.91372975 81.83346828 201.90772276 85.79509052 201.90512276 89.75674629 C201.90326886 91.27148311 201.8996489 92.78621879 201.89426994 94.30094719 C201.88705693 96.41541813 201.88600917 98.52980594 201.88647461 100.64428711 C201.884254 101.85007919 201.88203339 103.05587128 201.87974548 104.29820251 C201.69175539 106.91674401 201.69175539 106.91674401 203 108 C204.56172745 108.08685603 206.12729344 108.10702219 207.69140625 108.09765625 C208.54162354 108.09515869 209.39184082 108.09266113 210.26782227 108.09008789 C211.35506592 108.08098389 212.44230957 108.07187988 213.5625 108.0625 C218.7290625 108.0315625 218.7290625 108.0315625 224 108 C224.33 100.08 224.66 92.16 225 84 C237.375 83.505 237.375 83.505 250 83 C250 77.72 250 72.44 250 67 C241.42 67 232.84 67 224 67 C224.33 63.37 224.66 59.74 225 56 C235.23 56 245.46 56 256 56 C256 50.39 256 44.78 256 39 C238.18 39 220.36 39 202 39 Z M376 39 C376 61.77 376 84.54 376 108 C385.3121875 108.061875 385.3121875 108.061875 394.8125 108.125 C397.71639526 108.15231201 397.71639526 108.15231201 400.67895508 108.18017578 C417.71070514 108.54971886 417.71070514 108.54971886 433 102 C437.43459468 97.60005059 439.14648926 93.92402183 439.25 87.6875 C439.1947371 83.03313553 438.75330499 79.89260361 436 76 C432.56886592 72.63070012 432.56886592 72.63070012 428 72 C428 71.34 428 70.68 428 70 C428.5775 69.79375 429.155 69.5875 429.75 69.375 C433.9568961 66.80411905 435.68346082 63.24354676 436.875 58.5625 C437.06591664 53.12137578 436.22497276 49.49718892 432.75 45.25 C425.29431884 39.14989724 418.31119518 38.85018084 409.10546875 38.90234375 C407.84506775 38.90385437 407.84506775 38.90385437 406.5592041 38.90539551 C403.43528875 38.9106079 400.31139293 38.92456913 397.1875 38.9375 C390.195625 38.958125 383.20375 38.97875 376 39 Z M471 39 C466.51411736 49.32367511 462.75254976 59.86220931 459.0065918 70.47216797 C457.93947878 73.49439579 456.8676269 76.51490927 455.79492188 79.53515625 C452.44024785 88.99521429 449.12302679 98.46057272 446 108 C453.26 108 460.52 108 468 108 C468.99 105.03 469.98 102.06 471 99 C478.26 99 485.52 99 493 99 C493.99 101.97 494.98 104.94 496 108 C503.26 108 510.52 108 518 108 C517.28021336 104.4010668 516.51943149 101.36875058 515.31347656 97.95703125 C514.79723724 96.4889502 514.79723724 96.4889502 514.27056885 94.99121094 C513.89768738 93.94223633 513.52480591 92.89326172 513.140625 91.8125 C512.75436951 90.7184082 512.36811401 89.62431641 511.97015381 88.49707031 C511.15131381 86.17992998 510.33081719 83.86337451 509.50878906 81.54736328 C508.26492993 78.04207368 507.02655375 74.53488579 505.7890625 71.02734375 C501.99535034 60.29554 498.17504335 49.59035385 494 39 C486.41 39 478.82 39 471 39 Z M528 39 C528 61.77 528 84.54 528 108 C535.26 108 542.52 108 550 108 C550.33 96.78 550.66 85.56 551 74 C556.89135573 82.79434262 562.72912239 91.61266636 568.41918945 100.53881836 C568.85835693 101.22339111 569.29752441 101.90796387 569.75 102.61328125 C570.13671875 103.21954346 570.5234375 103.82580566 570.921875 104.45043945 C572.04676088 106.16448846 572.04676088 106.16448846 574 108 C580.93 108 587.86 108 595 108 C595 85.23 595 62.46 595 39 C587.74 39 580.48 39 573 39 C573 50.55 573 62.1 573 74 C571.38314311 72.38314311 570.23459291 70.43564851 568.96972656 68.54125977 C568.0976996 67.2380344 567.21509477 65.94183847 566.32324219 64.65209961 C563.1975968 60.06406033 560.64424338 55.43962688 558.35766602 50.37866211 C556.02451473 46.29166133 552.91346963 42.69579018 550 39 C542.74 39 535.48 39 528 39 Z M610 39 C609.97744682 47.84882724 609.95908366 56.69763552 609.94818783 65.54648495 C609.94295954 69.65494285 609.93586287 73.76338014 609.92456055 77.87182617 C609.91372975 81.83346828 609.90772276 85.79509052 609.90512276 89.75674629 C609.90326886 91.27148311 609.8996489 92.78621879 609.89426994 94.30094719 C609.88705693 96.41541813 609.88600917 98.52980594 609.88647461 100.64428711 C609.884254 101.85007919 609.88203339 103.05587128 609.87974548 104.29820251 C609.69175539 106.91674401 609.69175539 106.91674401 611 108 C612.56172745 108.08685603 614.12729344 108.10702219 615.69140625 108.09765625 C616.54162354 108.09515869 617.39184082 108.09266113 618.26782227 108.09008789 C619.35506592 108.08098389 620.44230957 108.07187988 621.5625 108.0625 C626.7290625 108.0315625 626.7290625 108.0315625 632 108 C632 100.41 632 92.82 632 85 C633.32 84.34 634.64 83.68 636 83 C636.33 82.01 636.66 81.02 637 80 C637.66 80 638.32 80 639 80 C639.26804443 80.71639648 639.53608887 81.43279297 639.81225586 82.17089844 C641.01503311 85.03580753 642.41859376 87.59496271 644.00390625 90.265625 C644.57947266 91.23757813 645.15503906 92.20953125 645.74804688 93.2109375 C646.34681641 94.21382812 646.94558594 95.21671875 647.5625 96.25 C648.16513672 97.26835938 648.76777344 98.28671875 649.38867188 99.3359375 C651.85670367 103.91678004 651.85670367 103.91678004 655 108 C656.92667507 108.08748207 658.85651861 108.10697334 660.78515625 108.09765625 C661.95498047 108.09443359 663.12480469 108.09121094 664.33007812 108.08789062 C665.56177734 108.07951172 666.79347656 108.07113281 668.0625 108.0625 C669.29806641 108.05798828 670.53363281 108.05347656 671.80664062 108.04882812 C674.87114117 108.03699608 677.93554721 108.02051173 681 108 C679.68592419 104.46469699 678.12648647 101.40031614 676.09375 98.2265625 C675.51898926 97.32566895 674.94422852 96.42477539 674.35205078 95.49658203 C673.74087402 94.54895996 673.12969727 93.60133789 672.5 92.625 C671.56583252 91.16682861 671.56583252 91.16682861 670.61279297 89.67919922 C665.50182289 81.72340677 660.29575819 73.83381742 655 66 C656.61032717 61.9009854 659.57827662 59.23817728 662.6875 56.25 C668.20724534 50.84183981 673.69745225 45.45382163 678 39 C662.34814497 36.86387053 662.34814497 36.86387053 648.0703125 41.390625 C645.22135323 44.2743678 643.13959814 47.57078107 641 51 C639.65534725 52.58869136 638.2840729 54.1556564 636.875 55.6875 C636.33617187 56.31011719 635.79734375 56.93273437 635.2421875 57.57421875 C634.51888012 58.40443006 633.7785963 59.2214037 633 60 C632.67 53.07 632.34 46.14 632 39 C624.74 39 617.48 39 610 39 Z " fill="#021F79" transform="translate(67,692)"/>
<path d="M0 0 C0 77.22 0 154.44 0 234 C-59.14246366 234.04030303 -59.14246366 234.04030303 -83.84179688 234.04882812 C-89.48624677 234.05078613 -95.13069665 234.05280666 -100.77514648 234.05493164 C-101.48263139 234.05519539 -102.1901163 234.05545914 -102.91904014 234.05573088 C-114.35567059 234.06008565 -125.79229602 234.06797247 -137.22892349 234.0771528 C-148.95732671 234.08648914 -160.6857273 234.09205557 -172.41413409 234.09408849 C-179.00543844 234.09539605 -185.59673143 234.09848471 -192.18803215 234.10573006 C-198.38407625 234.11248614 -204.58010423 234.11461781 -210.77615166 234.11310768 C-213.05750109 234.1133842 -215.33885103 234.11539174 -217.6201973 234.11920547 C-220.72024268 234.1241363 -223.82022619 234.12300056 -226.92027283 234.12025452 C-227.83562378 234.12316736 -228.75097474 234.1260802 -229.6940636 234.12908131 C-235.88587879 234.11412121 -235.88587879 234.11412121 -237 233 C-237.09800125 230.00384458 -237.1299134 227.03073016 -237.12025452 224.03416443 C-237.12110894 223.0818423 -237.12196337 222.12952018 -237.12284368 221.14833981 C-237.12450139 217.93147546 -237.11897238 214.71466234 -237.11352539 211.49780273 C-237.11324356 209.20211793 -237.11340118 206.90643304 -237.1139679 204.61074829 C-237.11425601 198.35686689 -237.10835699 192.10300449 -237.10139394 185.84912753 C-237.09516276 179.32146217 -237.09455679 172.79379642 -237.09336853 166.26612854 C-237.09060881 155.30282246 -237.08435324 144.33952344 -237.07543945 133.3762207 C-237.0662661 122.08195023 -237.05918489 110.78768165 -237.05493164 99.4934082 C-237.05453756 98.44984733 -237.05453756 98.44984733 -237.05413551 97.38520443 C-237.05283051 93.89518647 -237.05156679 90.4051685 -237.05032361 86.91515052 C-237.03995007 57.94342905 -237.02225683 28.97171469 -237 0 C-207.09645936 -0.15023749 -177.19289719 -0.29534325 -147.28929714 -0.4332476 C-143.761875 -0.44951931 -140.23445306 -0.46583495 -136.70703125 -0.48217773 C-135.65362647 -0.48705712 -135.65362647 -0.48705712 -134.57894079 -0.49203508 C-123.19595742 -0.54486609 -111.81299432 -0.60125836 -100.43003471 -0.6589582 C-88.75701302 -0.71804941 -77.0839778 -0.77325784 -65.41092145 -0.82505554 C-58.85143214 -0.85428643 -52.29196208 -0.88531078 -45.73250198 -0.92053413 C-39.56520029 -0.95359631 -33.39789517 -0.98198423 -27.23055458 -1.00670624 C-24.96090553 -1.01664297 -22.69126338 -1.02832285 -20.42163277 -1.04183006 C-17.33509356 -1.05994445 -14.2485913 -1.07192293 -11.16201782 -1.08229065 C-10.25347066 -1.08909444 -9.34492349 -1.09589823 -8.40884459 -1.10290819 C-2.22824242 -1.11412121 -2.22824242 -1.11412121 0 0 Z " fill="#013397" transform="translate(550,230)"/>
<path d="M0 0 C32.34 0 64.68 0 98 0 C98 95.7 98 191.4 98 290 C95.54388007 291.22805997 93.95626568 291.12422883 91.2092495 291.12304783 C89.68277418 291.1260344 89.68277418 291.1260344 88.12546098 291.12908131 C86.99902071 291.12616847 85.87258044 291.12325563 84.71200562 291.12025452 C83.52198303 291.12110894 82.33196044 291.12196337 81.10587656 291.12284368 C77.79251543 291.12421038 74.47921283 291.12106852 71.16585875 291.11606562 C67.59667172 291.1117601 64.02748662 291.11320762 60.45829773 291.1139679 C54.27103621 291.11449307 48.08378521 291.11134698 41.89652634 291.10573006 C32.95071258 291.09761413 24.00490392 291.09499974 15.05908687 291.09374207 C0.5462243 291.09155169 -13.96663266 291.084892 -28.47949219 291.07543945 C-42.58007784 291.06626496 -56.68066197 291.05918431 -70.78125 291.05493164 C-71.64994027 291.05466892 -72.51863053 291.05440619 -73.41364475 291.05413551 C-77.7714682 291.0528305 -82.12929167 291.05156679 -86.48711514 291.05032361 C-122.65808175 291.03995145 -158.82903797 291.02151339 -195 291 C-195 258.33 -195 225.66 -195 192 C-130.98 192 -66.96 192 -1 192 C-1.03962203 129.18664126 -1.03962203 129.18664126 -1.09008789 66.37329102 C-1.09460449 54.25378418 -1.09460449 54.25378418 -1.09544373 48.588974 C-1.09637936 44.61317899 -1.10014258 40.63739719 -1.10557556 36.66160583 C-1.11240094 31.6003405 -1.11449745 26.53909456 -1.11307228 21.47782505 C-1.11337057 19.61403002 -1.11537332 17.75023435 -1.11921513 15.88644326 C-1.12414153 13.38138815 -1.12300752 10.87640978 -1.12025452 8.37135315 C-1.12316718 7.63130507 -1.12607985 6.891257 -1.12908077 6.12878323 C-1.11412483 1.11412483 -1.11412483 1.11412483 0 0 Z " fill="#FD0202" transform="translate(657,377)"/>
<path d="M0 0 C96.69 0 193.38 0 293 0 C293 95.7 293 191.4 293 290 C260.33 290 227.66 290 194 290 C194 226.64 194 163.28 194 98 C129.98 98 65.96 98 0 98 C0 65.66 0 33.32 0 0 Z " fill="#FD0101" transform="translate(462,26)"/>
<path d="M0 0 C32.34 0 64.68 0 98 0 C98 63.36 98 126.72 98 192 C162.35 192 226.7 192 293 192 C293 224.34 293 256.68 293 290 C290.54388007 291.22805997 288.95626568 291.12422883 286.2092495 291.12304783 C285.19127911 291.1250387 284.17330872 291.12702957 283.12449074 291.12908077 C281.99837065 291.12616811 280.87225056 291.12325544 279.71200562 291.12025452 C278.52486465 291.12111053 277.33772369 291.12196655 276.11460876 291.12284851 C272.80262218 291.12422033 269.49069405 291.12106654 266.17871448 291.11607273 C262.55867061 291.11172022 258.93862831 291.1131664 255.31858253 291.11389065 C248.28468117 291.11442332 241.25079252 291.1097962 234.21689443 291.10338932 C226.08445504 291.09620287 217.95202334 291.09539531 209.81958008 291.09460449 C188.33805136 291.08934937 166.85652549 291.07538832 145.375 291.0625 C97.40125 291.041875 49.4275 291.02125 0 291 C0 194.97 0 98.94 0 0 Z " fill="#FD0101" transform="translate(108,377)"/>
<path d="M0 0 C96.69 0 193.38 0 293 0 C293 32.34 293 64.68 293 98 C228.65 98 164.3 98 98 98 C98 161.36 98 224.72 98 290 C65.66 290 33.32 290 0 290 C0 194.3 0 98.6 0 0 Z " fill="#FE0000" transform="translate(108,26)"/>
<path d="M0 0 C15 0 15 0 18.8125 2 C22.92292957 7.63716056 23.83062398 14.08245963 23 21 C22.02208416 25.62218034 20.91144234 29.04058701 17.625 32.5 C11.6658218 35.90524468 7.25874474 35 0 35 C0 23.45 0 11.9 0 0 Z " fill="#0B277E" transform="translate(214,748)"/>
<path d="M0 0 C2.58396679 -0.08112454 5.16537568 -0.14054748 7.75 -0.1875 C8.47960937 -0.21263672 9.20921875 -0.23777344 9.9609375 -0.26367188 C13.20127872 -0.30785835 15.57989689 -0.21898288 18.48046875 1.29296875 C20 3 20 3 20.5625 6.5 C20 10 20 10 17.953125 11.70703125 C14.29415019 13.30904271 11.09803672 13.33344348 7.1875 13.1875 C6.14819336 13.16719727 6.14819336 13.16719727 5.08789062 13.14648438 C3.39158735 13.11138845 1.69568864 13.05758943 0 13 C0 8.71 0 4.42 0 0 Z " fill="#04207A" transform="translate(465,771)"/>
<path d="M0 0 C2.24893954 -0.10823773 4.49937575 -0.18569645 6.75 -0.25 C8.00296875 -0.29640625 9.2559375 -0.3428125 10.546875 -0.390625 C14 0 14 0 16.42578125 1.85546875 C18 4 18 4 18.4375 6.5625 C17.9201684 9.44477606 17.3649042 10.31078271 15 12 C10.13349492 13.59682198 5.05907226 13.06022705 0 13 C0 8.71 0 4.42 0 0 Z " fill="#0E2A7F" transform="translate(465,746)"/>
<path d="M0 0 C0.66 0 1.32 0 2 0 C3.00868917 3.41416247 4.00542321 6.83170229 5 10.25 C5.28617188 11.21808594 5.57234375 12.18617188 5.8671875 13.18359375 C6.13789062 14.11816406 6.40859375 15.05273438 6.6875 16.015625 C7.06455078 17.30388184 7.06455078 17.30388184 7.44921875 18.61816406 C8 21 8 21 8 25 C3.38 25 -1.24 25 -6 25 C-4.61346169 16.44968041 -2.49372514 8.29224136 0 0 Z " fill="#142F82" transform="translate(548,752)"/>
</svg>
