<?xml version="1.0" encoding="UTF-8"?>
<svg version="1.1" xmlns="http://www.w3.org/2000/svg" width="300" height="82">
<path d="M0 0 C1.67255859 0.00193359 1.67255859 0.00193359 3.37890625 0.00390625 C6.4375 0.4375 6.4375 0.4375 8.32592773 1.93969727 C10.85856089 3.73617136 12.20738303 3.8234566 15.28125 3.8359375 C16.19777344 3.83980469 17.11429688 3.84367188 18.05859375 3.84765625 C19.00863281 3.83605469 19.95867188 3.82445312 20.9375 3.8125 C22.36255859 3.82990234 22.36255859 3.82990234 23.81640625 3.84765625 C24.73292969 3.84378906 25.64945313 3.83992187 26.59375 3.8359375 C27.42712891 3.83255371 28.26050781 3.82916992 29.11914062 3.82568359 C31.92868326 3.3552568 33.24525905 2.20336855 35.4375 0.4375 C40.29208517 -0.44577431 45.31514426 -0.70641377 49.7421875 1.6796875 C52.68977373 4.1380478 54.20865391 5.75096172 55.4375 9.4375 C55.51989169 11.28360532 55.54493359 13.13255164 55.53515625 14.98046875 C55.53032227 16.59018555 55.53032227 16.59018555 55.52539062 18.23242188 C55.51282227 19.91174805 55.51282227 19.91174805 55.5 21.625 C55.49548828 22.75615234 55.49097656 23.88730469 55.48632812 25.05273438 C55.47453498 27.84770927 55.4580765 30.6425782 55.4375 33.4375 C56.53191406 32.78265625 57.62632813 32.1278125 58.75390625 31.453125 C61.78888679 29.63714135 63.83700613 29.0010765 67.4375 29.4375 C71.03103678 35.32035557 69.073174 42.47994307 67.6953125 48.890625 C66.98317848 51.75272554 66.2377441 54.59889829 65.4375 57.4375 C66.9225 58.4275 66.9225 58.4275 68.4375 59.4375 C68.1075 60.7575 67.7775 62.0775 67.4375 63.4375 C63.85423499 63.49564085 60.27109162 63.53114357 56.6875 63.5625 C55.67171875 63.57925781 54.6559375 63.59601562 53.609375 63.61328125 C52.6296875 63.61972656 51.65 63.62617187 50.640625 63.6328125 C49.28952637 63.64852295 49.28952637 63.64852295 47.91113281 63.66455078 C45.29823144 63.42471676 43.68085334 62.76062064 41.4375 61.4375 C40.9425 62.4275 40.9425 62.4275 40.4375 63.4375 C38.08007812 63.86401367 38.08007812 63.86401367 34.96875 64.10546875 C33.27492188 64.23791992 33.27492188 64.23791992 31.546875 64.37304688 C29.76023437 64.49776367 29.76023437 64.49776367 27.9375 64.625 C26.77734375 64.71974609 25.6171875 64.81449219 24.421875 64.91210938 C15.46398424 65.57584449 8.01353286 65.29617762 -0.5625 62.4375 C-2.0475 62.9325 -2.0475 62.9325 -3.5625 63.4375 C-5.40860532 63.51989169 -7.25755164 63.54493359 -9.10546875 63.53515625 C-10.17861328 63.53193359 -11.25175781 63.52871094 -12.35742188 63.52539062 C-13.47697266 63.51701172 -14.59652344 63.50863281 -15.75 63.5 C-16.88115234 63.49548828 -18.01230469 63.49097656 -19.17773438 63.48632812 C-21.97270927 63.47453498 -24.7675782 63.4580765 -27.5625 63.4375 C-27.8925 62.1175 -28.2225 60.7975 -28.5625 59.4375 C-27.5725 58.7775 -26.5825 58.1175 -25.5625 57.4375 C-25.7790625 56.74527344 -25.995625 56.05304687 -26.21875 55.33984375 C-28.61706867 46.91241843 -29.16123411 39.15368697 -28.5625 30.4375 C-27.5625 29.4375 -27.5625 29.4375 -24.8125 29.1875 C-21.20570635 29.46494567 -19.52774334 30.46067111 -16.5625 32.4375 C-15.9025 32.4375 -15.2425 32.4375 -14.5625 32.4375 C-13.63364481 24.01988885 -13.63364481 24.01988885 -14.1875 15.625 C-14.68539465 11.39289547 -13.81795487 8.05967089 -11.5625 4.4375 C-7.7983202 0.66665793 -5.28223594 -0.09181175 0 0 Z " fill="#2FDA6D" transform="translate(28.5625,-0.4375)"/>
<path d="M0 0 C3.62312308 0.27870178 5.19975971 1.40380193 8.25 3.25 C10.36922537 2.88976085 10.36922537 2.88976085 12.25 2.25 C12.52972656 2.75789063 12.80945313 3.26578125 13.09765625 3.7890625 C17.96030201 12.13842854 23.31378781 16.74645634 32.66796875 19.55859375 C45.21794785 21.98099975 57.98069879 21.20795922 69.0625 14.5625 C72.93080212 11.85672804 74.88235033 8.96155972 77.13671875 4.87890625 C78.25 3.25 78.25 3.25 80.8125 2.375 C81.616875 2.33375 82.42125 2.2925 83.25 2.25 C83.91 1.899375 84.57 1.54875 85.25 1.1875 C87.69989787 0.03911037 89.57638335 0.10146574 92.25 0.25 C95.84353678 6.13285557 93.885674 13.29244307 92.5078125 19.703125 C91.79567848 22.56522554 91.0502441 25.41139829 90.25 28.25 C91.24 28.91 92.23 29.57 93.25 30.25 C92.92 31.57 92.59 32.89 92.25 34.25 C88.66673499 34.30814085 85.08359162 34.34364357 81.5 34.375 C80.48421875 34.39175781 79.4684375 34.40851562 78.421875 34.42578125 C77.4421875 34.43222656 76.4625 34.43867187 75.453125 34.4453125 C74.10202637 34.46102295 74.10202637 34.46102295 72.72363281 34.47705078 C70.11073144 34.23721676 68.49335334 33.57312064 66.25 32.25 C65.755 33.24 65.755 33.24 65.25 34.25 C62.89257812 34.67651367 62.89257812 34.67651367 59.78125 34.91796875 C58.08742188 35.05041992 58.08742188 35.05041992 56.359375 35.18554688 C54.57273437 35.31026367 54.57273437 35.31026367 52.75 35.4375 C51.58984375 35.53224609 50.4296875 35.62699219 49.234375 35.72460938 C40.27648424 36.38834449 32.82603286 36.10867762 24.25 33.25 C22.765 33.745 22.765 33.745 21.25 34.25 C19.40389468 34.33239169 17.55494836 34.35743359 15.70703125 34.34765625 C14.63388672 34.34443359 13.56074219 34.34121094 12.45507812 34.33789062 C11.33552734 34.32951172 10.21597656 34.32113281 9.0625 34.3125 C7.93134766 34.30798828 6.80019531 34.30347656 5.63476562 34.29882812 C2.83979073 34.28703498 0.0449218 34.2705765 -2.75 34.25 C-3.08 32.93 -3.41 31.61 -3.75 30.25 C-2.76 29.59 -1.77 28.93 -0.75 28.25 C-0.9665625 27.55777344 -1.183125 26.86554687 -1.40625 26.15234375 C-3.80456867 17.72491843 -4.34873411 9.96618697 -3.75 1.25 C-2.75 0.25 -2.75 0.25 0 0 Z " fill="#48B174" transform="translate(3.75,28.75)"/>
<path d="M0 0 C4.9239244 2.80514481 8.68765616 7.03620983 10.6875 12.375 C11.00560085 15.33636741 11.01201988 18.27387746 11 21.25 C11.01611328 22.04019531 11.03222656 22.83039062 11.04882812 23.64453125 C11.05415752 30.05046849 9.63681877 34.16919192 5.3125 39.0625 C-0.2404707 43.95440276 -4.90117541 45.58868007 -12.3125 45.375 C-16.21274599 44.47593832 -19.43395664 43.25354336 -22.3125 40.375 C-22.6425 48.295 -22.9725 56.215 -23.3125 64.375 C-27.2725 64.375 -31.2325 64.375 -35.3125 64.375 C-35.3125 42.925 -35.3125 21.475 -35.3125 -0.625 C-31.3525 -0.625 -27.3925 -0.625 -23.3125 -0.625 C-22.9825 0.365 -22.6525 1.355 -22.3125 2.375 C-21.19875 1.715 -20.085 1.055 -18.9375 0.375 C-12.67098144 -2.72504452 -6.40309154 -2.86993557 0 0 Z M-19.3125 12.375 C-22.2916735 15.46057255 -23.06183615 18.11371453 -23.3125 22.375 C-22.61851196 26.40013064 -21.87941844 28.7247112 -19.1875 31.8125 C-15.42454969 33.85758169 -12.50688315 34.21557476 -8.3125 33.375 C-5.31438596 31.61523741 -3.77633676 30.11292211 -1.9375 27.1875 C-1.02190145 23.06730652 -1.18417708 19.4458121 -2.3125 15.375 C-4.90640421 11.71301759 -6.50111796 10.60682344 -10.8125 9.375 C-14.77391474 9.375 -16.25825481 9.91463582 -19.3125 12.375 Z " fill="#171714" transform="translate(289.3125,17.625)"/>
<path d="M0 0 C1.91015625 1.10546875 1.91015625 1.10546875 4.72265625 3.10546875 C5.05265625 2.11546875 5.38265625 1.12546875 5.72265625 0.10546875 C10.01265625 0.10546875 14.30265625 0.10546875 18.72265625 0.10546875 C18.72265625 14.95546875 18.72265625 29.80546875 18.72265625 45.10546875 C14.43265625 45.10546875 10.14265625 45.10546875 5.72265625 45.10546875 C5.39265625 44.11546875 5.06265625 43.12546875 4.72265625 42.10546875 C3.98015625 42.57984375 3.23765625 43.05421875 2.47265625 43.54296875 C-2.60533198 46.42818933 -7.47200941 46.85455031 -13.26171875 45.71484375 C-19.20961728 43.91664187 -22.83502941 40.18520828 -26.27734375 35.10546875 C-29.71912682 28.30247947 -29.49129131 19.30551055 -27.40234375 12.078125 C-24.78074435 6.34337631 -21.71757088 3.2285621 -16.27734375 0.10546875 C-11.14367908 -1.60575281 -5.10429794 -2.00494722 0 0 Z M-12.27734375 13.10546875 C-15.8999136 17.05023833 -15.77162697 20.30451428 -15.640625 25.46875 C-15.15584477 28.98731622 -13.92047062 30.77329798 -11.27734375 33.10546875 C-8.0465263 34.72087748 -4.76975277 34.69509625 -1.27734375 34.10546875 C2.25052926 32.14889678 4.42550646 29.99691812 5.72265625 26.10546875 C6.11599919 20.89367475 5.69608713 17.4665007 2.72265625 13.10546875 C-2.93781661 9.49240097 -6.77697059 9.15648289 -12.27734375 13.10546875 Z " fill="#171714" transform="translate(226.27734375,16.89453125)"/>
<path d="M0 0 C4.93880639 3.7592254 8.53855204 8.15364664 9.75 14.33203125 C9.75 17.63203125 9.75 20.93203125 9.75 24.33203125 C-0.81 24.33203125 -11.37 24.33203125 -22.25 24.33203125 C-19.94513278 29.95997387 -19.94513278 29.95997387 -17.5 31.76953125 C-14.15526504 32.60571499 -11.57893669 32.11887083 -8.25 31.33203125 C-7.83234375 30.82414062 -7.4146875 30.31625 -6.984375 29.79296875 C-4.22269484 27.46668861 -1.57885216 28.04775092 1.9375 28.14453125 C3.20980469 28.17160156 4.48210937 28.19867188 5.79296875 28.2265625 C7.25669922 28.27876953 7.25669922 28.27876953 8.75 28.33203125 C6.84191299 34.55066028 4.45331004 38.69878143 -1.25 42.14453125 C-8.59329744 45.05125315 -15.61133442 45.14610878 -23.0390625 42.43359375 C-28.1739551 39.8752197 -31.87621098 35.81736963 -34.1875 30.58203125 C-36.60766544 22.74674563 -35.92545103 14.99363442 -32.58203125 7.5625 C-29.85146269 2.99019898 -26.24137466 0.3508741 -21.5625 -2.04296875 C-14.16552666 -3.4386241 -6.66849243 -3.93163199 0 0 Z M-20.3125 11.26953125 C-22.33910695 13.86889068 -22.33910695 13.86889068 -22.25 15.33203125 C-15.98 15.33203125 -9.71 15.33203125 -3.25 15.33203125 C-4.72639003 10.27194486 -4.72639003 10.27194486 -8.25 8.33203125 C-13.10565763 7.3863601 -16.99434634 7.30486054 -20.3125 11.26953125 Z " fill="#171714" transform="translate(184.25,18.66796875)"/>
<path d="M0 0 C3.96 0 7.92 0 12 0 C12 15.51 12 31.02 12 47 C18.27 47 24.54 47 31 47 C31 49.97 31 52.94 31 56 C30 57 30 57 27.13256836 57.11352539 C25.88096924 57.10828857 24.62937012 57.10305176 23.33984375 57.09765625 C22.12417725 57.09515869 20.90851074 57.09266113 19.65600586 57.09008789 C18.09889893 57.08098389 16.54179199 57.07187988 14.9375 57.0625 C10.008125 57.041875 5.07875 57.02125 0 57 C0 38.19 0 19.38 0 0 Z " fill="#171714" transform="translate(116,5)"/>
<path d="M0 0 C4.2501877 0.3935359 7.02850499 1.69536929 10.375 4.3125 C11.9375 6.5625 11.9375 6.5625 13.375 9.3125 C14.36722839 10.54794871 15.36811116 11.77647004 16.375 13 C20.81706189 18.84539985 23.13191756 25.93255376 22.375 33.3125 C21.375 34.3125 21.375 34.3125 19.05834961 34.42602539 C18.05811768 34.42078857 17.05788574 34.41555176 16.02734375 34.41015625 C14.94775391 34.40693359 13.86816406 34.40371094 12.75585938 34.40039062 C11.61955078 34.39201172 10.48324219 34.38363281 9.3125 34.375 C8.17232422 34.37048828 7.03214844 34.36597656 5.85742188 34.36132812 C3.02989649 34.34949747 0.2024736 34.3330141 -2.625 34.3125 C-2.955 32.9925 -3.285 31.6725 -3.625 30.3125 C-2.635 29.6525 -1.645 28.9925 -0.625 28.3125 C-0.8415625 27.62027344 -1.058125 26.92804687 -1.28125 26.21484375 C-3.67956867 17.78741843 -4.22373411 10.02868697 -3.625 1.3125 C-2.625 0.3125 -2.625 0.3125 0 0 Z " fill="#2EDA6C" transform="translate(3.625,28.6875)"/>
<path d="M0 0 C3.59353678 5.88285557 1.635674 13.04244307 0.2578125 19.453125 C-0.45432152 22.31522554 -1.1997559 25.16139829 -2 28 C-1.01 28.66 -0.02 29.32 1 30 C0.67 31.32 0.34 32.64 0 34 C-3.64581687 34.02887512 -7.29160463 34.04675585 -10.9375 34.0625 C-12.49887695 34.07506836 -12.49887695 34.07506836 -14.09179688 34.08789062 C-15.08115234 34.09111328 -16.07050781 34.09433594 -17.08984375 34.09765625 C-18.46450806 34.10551147 -18.46450806 34.10551147 -19.86694336 34.11352539 C-22 34 -22 34 -23 33 C-22.89422312 20.91499106 -16.97751255 10.7752638 -9 2 C-5.965591 -0.05556739 -3.62335457 -0.20129748 0 0 Z " fill="#2EDA6D" transform="translate(96,29)"/>
<path d="M0 0 C3.0625 2.0625 3.0625 2.0625 5 5 C5.1506132 9.29247606 4.66257079 11.22050496 1.875 14.5 C-1.97148295 16.50686067 -3.88546541 16.27176524 -8 15 C-10.5 12.875 -10.5 12.875 -12 10 C-11.94021398 6.53241058 -11.60965977 4.11173251 -9.9375 1.0625 C-6.70668894 -0.7092351 -3.5202266 -0.7177161 0 0 Z " fill="#DEE8DA" transform="translate(31,5)"/>
<path d="M0 0 C2.5 1.625 2.5 1.625 4 4 C4.63924557 7.7555677 4.29008409 9.47784863 2.4375 12.8125 C-0.78533156 15.70478473 -2.68807302 16.15129568 -7 16 C-9.9375 14 -9.9375 14 -12 11 C-12.62491523 7.04220351 -12.61006839 4.99136114 -10.5 1.5625 C-6.98305319 -0.63559176 -4.04133533 -0.81157964 0 0 Z " fill="#E0E8DB" transform="translate(75,5)"/>
</svg>
