<svg width="143" height="28" viewBox="0 0 143 28" fill="none" xmlns="http://www.w3.org/2000/svg">
<g id="logo">
<g id="Group">
<path id="Vector" d="M14.6269 13.1484C14.1954 13.1484 13.769 13.1061 13.3442 13.0215C12.9212 12.9368 12.51 12.8133 12.1123 12.6475C11.713 12.4816 11.3339 12.2803 10.9752 12.04C10.6164 11.7997 10.2847 11.5272 9.97845 11.2226C9.67386 10.918 9.40141 10.5847 9.16112 10.2259C8.92083 9.8672 8.71946 9.48814 8.55362 9.09048C8.38779 8.69112 8.26426 8.27992 8.17965 7.85687C8.09504 7.43382 8.05273 7.00569 8.05273 6.57418C8.05273 6.14267 8.09504 5.71455 8.17965 5.2915C8.26426 4.86845 8.38779 4.45724 8.55362 4.05789C8.71946 3.66022 8.92083 3.28117 9.16112 2.92242C9.40141 2.56368 9.67386 2.23031 9.97845 1.92572C10.2847 1.62112 10.6164 1.34868 10.9752 1.10839C11.3339 0.868096 11.713 0.665033 12.1123 0.50089C12.51 0.335055 12.9212 0.209833 13.3442 0.126915C13.769 0.0423051 14.1954 0 14.6269 0C15.0584 0 15.4866 0.0423051 15.9096 0.126915C16.3327 0.209833 16.7439 0.335055 17.1432 0.50089C17.5426 0.665033 17.9199 0.868096 18.2804 1.10839C18.6391 1.34868 18.9708 1.62112 19.2754 1.92572C19.5817 2.23031 19.8541 2.56368 20.0927 2.92242C20.333 3.28117 20.5361 3.66022 20.7002 4.05789C20.866 4.45724 20.9913 4.86845 21.0742 5.2915C21.1588 5.71455 21.2011 6.14267 21.2011 6.57418C21.2011 7.00569 21.1588 7.43382 21.0742 7.85687C20.9913 8.27992 20.866 8.69112 20.7002 9.09048C20.5361 9.48814 20.333 9.8672 20.0927 10.2259C19.8541 10.5847 19.5817 10.918 19.2754 11.2226C18.9708 11.5272 18.6391 11.7997 18.2804 12.04C17.9199 12.2803 17.5426 12.4816 17.1432 12.6475C16.7439 12.8133 16.3327 12.9368 15.9096 13.0215C15.4866 13.1061 15.0584 13.1484 14.6269 13.1484Z" fill="#74E0EF"/>
</g>
<g id="Group_2">
<path id="Vector_2" d="M5.78562 0.00195312V24.7182H0V0.00195312H5.78562Z" fill="#7A63FF"/>
</g>
<path id="Vector_3" d="M21.6818 24.8781H8.53516V13.3086L21.6818 24.8781Z" fill="#E7E7E7"/>
<g id="Group_3">
<g id="Group_4">
<g id="Group_5">
<path id="Vector_4" d="M41.7296 18.2173C41.5163 16.0851 40.7972 14.6197 38.9324 13.9276C41.2507 13.2609 42.5824 11.743 42.5824 9.39757C42.5824 6.17394 40.3707 4.84218 37.7072 4.52236C36.7477 4.41575 36.0285 4.38867 34.9354 4.38867H27.9551V22.7727H32.1382V15.5521H33.7898C34.2957 15.5521 34.7492 15.5521 35.2552 15.5792C36.6411 15.6858 37.4145 16.8585 37.6531 18.857C37.8138 20.4019 38.0795 21.4934 38.533 22.7727H43.0884C42.3421 21.7066 41.9698 20.3749 41.7296 18.2173ZM32.1382 12.4892V7.63938H34.4565C35.042 7.63938 35.4955 7.66646 35.8678 7.69353C37.2266 7.8526 38.2132 8.38564 38.2132 10.0643C38.2132 11.743 37.0676 12.3285 35.7087 12.4621C35.3347 12.4892 34.8829 12.4892 34.2957 12.4892H32.1382Z" fill="white"/>
</g>
</g>
</g>
<g id="Group_6">
<g id="Group_7">
<g id="Group_8">
<path id="Vector_5" d="M53.2913 22.7793H57.3678C57.1546 21.2072 57.1021 20.2477 57.1021 19.1816V14.8665C57.1021 14.0407 57.075 13.2403 57.0226 12.5753C56.8094 10.0438 55.2898 8.20605 51.0813 8.20605C47.6174 8.20605 44.8726 10.0438 44.7931 13.2945H48.79C48.8967 11.8832 49.6158 11.0828 50.9205 11.0828C52.1727 11.0828 52.8124 11.7766 52.8919 12.6278C52.9461 13.1083 52.9461 13.4806 52.9461 13.8546V14.0932H52.0391C47.0319 14.0932 44.2871 15.9055 44.2871 18.9955C44.2871 21.6861 46.4447 23.1515 48.8425 23.1515C50.1489 23.1515 51.347 22.8588 52.3589 22.2191L52.9985 20.7012L53.2913 22.7793ZM50.4941 20.2748C49.3485 20.2748 48.5768 19.7147 48.5768 18.6503C48.5768 16.997 50.3621 16.3591 52.9461 16.5723V17.6113C52.9461 19.3695 51.7463 20.2748 50.4941 20.2748Z" fill="white"/>
</g>
</g>
</g>
<g id="Group_9">
<g id="Group_10">
<g id="Group_11">
<path id="Vector_6" d="M69.1707 8.20605C67.7307 8.20605 66.3194 8.52588 65.5207 9.13845L64.4546 10.7105V8.57834H60.2715V28.0014H64.4546V20.9145L65.387 22.407C66.1062 22.8588 67.5175 23.1515 68.6902 23.1515C72.3402 23.1515 75.4573 20.488 75.4573 15.3725C75.4573 11.1894 73.0865 8.20605 69.1707 8.20605ZM67.7053 20.2748C66.1062 20.2748 64.4546 19.2087 64.4546 16.1458V15.5062C64.4546 12.2555 65.92 11.0828 67.8373 11.0828C69.8087 11.0828 71.1675 12.841 71.1675 15.6382C71.1675 18.7298 69.7292 20.2748 67.7053 20.2748Z" fill="white"/>
</g>
</g>
</g>
<g id="Group_12">
<g id="Group_13">
<g id="Group_14">
<path id="Vector_7" d="M82.7293 11.3432H85.7397V8.67796H82.7293V5.10742H78.5462V8.67796H76.3887V11.3432H78.5462V17.87C78.5462 18.6687 78.5462 19.3083 78.5987 20.0275C78.7594 22.1055 79.7714 23.1192 82.8884 23.1192C83.7954 23.1192 84.6212 23.0379 85.4741 22.9059V20.2407C83.3419 20.3744 82.863 20.0546 82.7564 18.6433C82.7293 18.2693 82.7293 17.7904 82.7293 17.3098V11.3432Z" fill="white"/>
</g>
</g>
</g>
<g id="Group_15">
<g id="Group_16">
<g id="Group_17">
<path id="Vector_8" d="M101.352 8.57422H97.1963V16.1671C97.1963 18.7782 96.0761 20.2436 94.372 20.2436C92.7458 20.2436 92.0013 19.3907 91.8134 17.9524C91.7339 17.2332 91.7068 16.4615 91.7068 16.008V8.57422H87.5508V16.9134C87.5508 18.059 87.5779 18.8323 87.6845 19.5515C88.0043 21.4958 89.7625 23.1474 92.6934 23.1474C94.0251 23.1474 95.0371 22.8817 95.9965 22.2421L97.1963 20.3502V22.7751H101.352V8.57422Z" fill="white"/>
</g>
</g>
</g>
<g id="Group_18">
<g id="Group_19">
<g id="Group_20">
<path id="Vector_9" d="M112.355 8.20605C111.529 8.20605 110.49 8.57834 109.771 9.3246L108.705 11.296V8.57834H104.521V22.7793H108.705V16.8379C108.705 12.8156 110.116 11.4821 113.421 11.6954V8.31266C113.101 8.25851 112.806 8.20605 112.355 8.20605Z" fill="white"/>
</g>
</g>
</g>
<g id="Group_21">
<g id="Group_22">
<g id="Group_23">
<path id="Vector_10" d="M128.474 15.4267C128.474 11.6429 126.129 8.20605 121.6 8.20605C117.097 8.20605 114.246 11.4568 114.246 15.7194C114.246 20.7283 117.363 23.1515 121.333 23.1515C124.797 23.1515 127.462 21.4204 128.234 18.1426H124.105C123.865 19.4761 122.88 20.2748 121.414 20.2748C119.842 20.2748 118.669 19.4761 118.429 16.7584H128.395C128.447 16.2524 128.474 15.7989 128.474 15.4267ZM121.414 11.0828C122.959 11.0828 123.892 12.1218 124.132 14.1203H118.536C118.883 12.0152 119.922 11.0828 121.414 11.0828Z" fill="white"/>
</g>
</g>
</g>
<g id="Group_24">
<g id="Group_25">
<g id="Group_26">
<path id="Vector_11" d="M136.224 8.20605C132.654 8.20605 130.31 9.9101 130.31 12.6819C130.31 15.1068 132.041 16.3049 134.705 16.9716C137.209 17.5571 138.116 18.1172 138.116 19.1292C138.116 20.0345 137.316 20.4609 136.304 20.4609C135.131 20.4609 134.172 19.7418 133.879 18.41H129.75C130.122 21.6066 132.654 23.1515 136.277 23.1515C139.607 23.1515 142.299 21.7673 142.299 18.8094C142.299 16.1458 140.539 15.0002 137.796 14.3064C135.265 13.6668 134.492 13.1354 134.492 12.1759C134.492 11.4297 135.052 10.8696 135.957 10.8696C136.996 10.8696 137.61 11.5363 137.849 12.709H141.98C141.633 10.1233 139.661 8.20605 136.224 8.20605Z" fill="white"/>
</g>
</g>
</g>
</g>
</svg>
