<?xml version="1.0" encoding="utf-8"?>
<!-- Generator: Adobe Illustrator 16.0.0, SVG Export Plug-In . SVG Version: 6.00 Build 0)  -->
<!DOCTYPE svg PUBLIC "-//W3C//DTD SVG 1.0//EN" "http://www.w3.org/TR/2001/REC-SVG-20010904/DTD/svg10.dtd">
<svg version="1.0" id="Layer_2" xmlns="http://www.w3.org/2000/svg" xmlns:xlink="http://www.w3.org/1999/xlink" x="0px" y="0px"
	 width="439.929px" height="77.632px" viewBox="26.685 10.972 439.929 77.632"
	 enable-background="new 26.685 10.972 439.929 77.632" xml:space="preserve">
<g>
	<path fill="#2F2F2F" d="M277.052,43.065h4.776v26.479h26.047v3.908h-30.823V43.065z"/>
	<path fill="#2F2F2F" d="M386.068,50.316c0-21.729-17.618-39.344-39.346-39.344c-21.734,0-39.349,17.615-39.349,39.344
		c0,18.633,12.959,34.221,30.353,38.288c-0.104-0.166-0.176-0.354-0.205-0.55C323.04,83.184,312.6,69.515,312.6,53.389
		c0-20.202,16.377-36.581,36.58-36.581c20.201,0,36.579,16.379,36.579,36.581c0,0.853-0.036,1.69-0.095,2.526
		C385.923,54.084,386.068,52.219,386.068,50.316z"/>
	<g>
		<path fill="#11815F" d="M369.768,63.964c-0.34-0.994-1.176-1.552-1.914-2.174c-0.584-0.494-1.267-0.87-1.9-1.311
			c-0.18-0.129-0.402-0.316-0.348-0.521c0.063-0.213,0.312-0.325,0.561-0.387c0.639-0.16,1.279-0.272,1.939-0.279
			c0.074,0,0.172,0.032,0.201-0.078c0.029-0.097-0.059-0.153-0.121-0.19c-0.608-0.39-1.242-0.734-1.945-0.937
			c-1.325-0.382-2.665-0.402-4.02-0.315c-0.025,0.103-0.085,0.117-0.146,0.113c0.056-0.007,0.105-0.037,0.146-0.113
			c-0.103-0.036-0.254,0.111-0.302-0.087c1.36-0.909,2.622-1.95,3.817-3.079c1.355-1.279,2.606-2.65,3.482-4.317
			c0.242-0.463,0.419-0.933,0.563-1.512c-0.536,0.378-1.088,0.368-1.588,0.515c-1.258,0.369-2.486-0.569-2.578-1.876
			c-0.125-1.787,0.496-3.396,1.14-4.996c0.327-0.793,0.767-1.542,1.292-2.326c-0.209,0.034-0.318-0.004-0.456,0.055
			c-1.422,0.593-2.757,1.338-4.017,2.22c-0.896,0.632-1.666,1.429-2.602,2.007c-0.597,0.37-0.807,0.299-1.045-0.354
			c-0.242-0.655-0.256-1.36-0.414-2.047c-1.72,1.585-2.798,3.536-3.486,5.734c-0.293,0.944-0.767,1.793-1.609,2.38
			c-0.191,0.13-0.191,0.132-0.256-0.011c-0.411-0.857-0.668-1.75-0.712-2.698c-0.04-0.879-0.069-1.75-0.037-2.63
			c0.037-0.917-0.063-1.844-0.106-2.766c-0.052-1.082-0.285-2.124-0.642-3.138c-0.197-0.576-0.367-1.174-0.722-1.774
			c-0.121,0.491-0.271,0.877-0.478,1.235c-0.289,0.509-0.664,0.865-1.303,0.897c-0.747,0.038-1.359-0.277-1.949-0.663
			c-0.965-0.63-1.805-1.411-2.581-2.257c-0.763-0.829-1.5-1.677-2.189-2.567c-0.396-0.502-0.811-0.996-1.166-1.533
			c-0.047-0.077-0.112-0.178-0.219-0.143c-0.137,0.044-0.078,0.176-0.056,0.257c0.065,0.294-0.056,0.568-0.073,0.854
			c-0.051,0.737-0.092,1.48-0.221,2.206c-0.184,1.081-0.341,2.167-0.615,3.228c-0.294,1.133-0.688,2.206-1.343,3.171
			c-0.418,0.618-1.201,0.869-1.929,0.659c-0.477-0.141-0.82-0.479-1.17-0.804c-0.065-0.062-0.127-0.179-0.237-0.105
			c-0.11,0.062-0.065,0.21-0.034,0.264c0.202,0.293,0.145,0.646,0.209,0.961c0.266,1.325,0.749,2.564,1.354,3.768
			c0.817,1.605,1.979,3.004,2.77,4.62c0.418,0.851,0.768,1.722,0.737,2.738c-0.202-0.229-0.433-0.114-0.628-0.155
			c-1.234-0.245-2.133-1.042-3.051-1.789c-1.478-1.203-3.174-1.907-4.969-2.438c-0.068-0.019-0.172-0.01-0.22,0.031
			c-0.08,0.082,0.037,0.133,0.063,0.198c0.221,0.511,0.437,1.015,0.634,1.528c0.278,0.729,0.022,1.151-0.688,1.101
			c-0.246-0.02-0.511-0.025-0.748-0.076c-1.189-0.251-2.396-0.379-3.597-0.396c-1.36-0.023-2.735,0.023-4.078,0.385
			c0.185,0.155,0.414,0.135,0.603,0.231c1.668,0.877,3.179,1.969,4.485,3.326c0.419,0.438,0.826,0.913,1.064,1.478
			c0.381,0.895,0.457,1.609-0.396,2.359c-0.661,0.583-1.495,0.768-2.391,1c1.079,0.945,2.293,1.526,3.58,1.979
			c1.294,0.462,2.62,0.755,3.973,1.018c1.336,0.255,2.688,0.315,4.097,0.525c-1.986,0.771-4.528,2.758-4.84,4.554
			c0.696-0.352,1.396-0.652,2.124-0.891c0.337-0.114,0.688,0.063,0.645,0.318c-0.036,0.194-0.073,0.396-0.158,0.571
			c-0.429,0.915-0.876,1.826-1.147,2.804c-0.183,0.651-0.377,1.313-0.132,2.025c0.106,0.314,0.147,0.25,0.371,0.132
			c0.9-0.488,1.8-0.988,2.728-1.41c0.717-0.325,1.416-0.736,2.252-0.709c0.422,0.017,0.598,0.187,0.652,0.6
			c0.098,0.73-0.1,1.438-0.113,2.151c0.019,0.075-0.037,0.195,0.109,0.195c0.354-0.294,0.719-0.572,1.045-0.888
			c1.584-1.534,2.822-3.354,4.117-5.124c1.053-1.445,2.344-2.519,4.137-2.914c0.205-0.046,0.156-0.037,0.221,0.128
			c0.416,0.983,0.601,2.017,0.695,3.054c0.135,1.483,0.211,2.979-0.06,4.482c-0.209,1.109-0.547,2.157-1.001,3.152
			c0.202-0.141,0.439-0.247,0.752-0.247c0.857,0,1.29,0.653,1.313,1.319c0.451-1.426,0.631-2.904,0.69-4.405
			c0.039-1.011-0.13-2.011-0.243-3.017c-0.062-0.541-0.154-1.095-0.275-1.627c-0.229-0.998-0.506-1.983-0.813-2.954
			c-0.072-0.244,0.059-0.309,0.172-0.338c1.247-0.286,2.479-0.414,3.76-0.081c1.804,0.469,3.428,1.379,5.18,1.977
			c1.324,0.454,2.678,0.771,4.097,1.017c-0.487-0.689-1.137-1.211-1.491-1.94c-0.272-0.551-0.113-0.92,0.401-1.13
			c0.799-0.333,1.636-0.351,2.448-0.457c0.885-0.117,1.783-0.108,2.671-0.128C369.835,64.377,369.874,64.287,369.768,63.964z"/>
		<path fill="#11815F" d="M361.77,57.82c0-0.041,0.029-0.077,0.072-0.102C361.807,57.741,361.785,57.774,361.77,57.82z"/>
		<path fill="#11815F" d="M361.799,57.894c0.036-0.009,0.074-0.009,0.106-0.007C361.876,57.894,361.835,57.906,361.799,57.894z"/>
		<path fill="#11815F" d="M361.855,57.712c0.002,0,0.002-0.005,0.009-0.005C361.857,57.707,361.857,57.712,361.855,57.712z"/>
		<path fill="#11815F" d="M341.564,74.315c0.015,0.075-0.037,0.195,0.109,0.195c0,0.099-0.081,0.133-0.162,0.193
			C341.523,74.565,341.34,74.424,341.564,74.315z"/>
	</g>
	<path fill="#2F2F2F" d="M26.685,43.065h5.641l14.149,23.703L61.19,43.065h5.641v30.388h-4.77V50.096l-13.2,21.1h-4.817
		L31.46,50.314v23.14h-4.775V43.065z"/>
	<path fill="#2F2F2F" d="M88.938,43.065h6.601l15.28,30.388h-5.12l-3.52-6.946H82.338l-3.516,6.946h-5.118L88.938,43.065z
		 M84.336,62.6h15.85l-7.948-15.583L84.336,62.6z"/>
	<path fill="#2F2F2F" d="M117.341,43.065h21.137c4.078,0,7.165,0.841,9.244,2.517c2.086,1.682,3.125,4.011,3.125,6.989
		c0,2.982-1.04,5.325-3.125,7.034c-2.08,1.706-5.166,2.56-9.244,2.56h-16.361v11.289h-4.775L117.341,43.065L117.341,43.065z
		 M122.117,58.259h16.361c5.063,0,7.594-1.896,7.594-5.688c0-1.85-0.614-3.248-1.845-4.186c-1.229-0.942-3.146-1.414-5.75-1.414
		h-16.361L122.117,58.259L122.117,58.259z"/>
	<path fill="#2F2F2F" d="M157.762,43.065h4.776v26.479h26.042v3.908h-30.817V43.065H157.762z"/>
	<path fill="#2F2F2F" d="M194.84,73.452V43.065h33.431v3.905h-28.654v9.334h25.785v3.907h-25.785v9.332h28.654v3.908L194.84,73.452
		L194.84,73.452z"/>
	<path fill="#2F2F2F" d="M258.997,43.065c1.974,0,3.705,0.354,5.212,1.064c1.508,0.709,2.67,1.705,3.494,2.995
		c0.824,1.286,1.234,2.785,1.234,4.491c0,1.332-0.303,2.577-0.906,3.732c-0.61,1.158-1.481,2.126-2.608,2.91
		c1.103,0.781,1.964,1.742,2.587,2.885c0.617,1.146,0.928,2.384,0.928,3.713c0,1.709-0.408,3.213-1.233,4.515
		c-0.824,1.303-1.986,2.309-3.494,3.016c-1.507,0.713-3.237,1.066-5.212,1.066h-23.915V43.065H258.997z M239.858,46.97v9.334h19.138
		c1.736,0,3.033-0.434,3.89-1.303c0.853-0.867,1.281-1.998,1.281-3.387c0-1.357-0.43-2.474-1.281-3.342
		c-0.855-0.869-2.151-1.304-3.89-1.304L239.858,46.97L239.858,46.97z M258.997,69.544c1.737,0,3.033-0.433,3.89-1.304
		c0.853-0.865,1.281-1.995,1.281-3.385c0-1.359-0.43-2.476-1.281-3.344c-0.855-0.866-2.152-1.301-3.89-1.301h-19.138v9.332
		L258.997,69.544L258.997,69.544z"/>
	<path fill="#2F2F2F" d="M391.211,58.216c0-2.896,0.826-5.55,2.471-7.966c1.655-2.417,3.945-4.325,6.884-5.732
		c2.935-1.399,6.229-2.104,9.878-2.104c6.831,0,12.052,2.095,15.67,6.293l-3.301,2.735c-1.245-1.506-2.896-2.697-4.95-3.582
		c-2.056-0.883-4.528-1.324-7.419-1.324c-2.864,0-5.438,0.536-7.707,1.606c-2.271,1.07-4.037,2.495-5.293,4.275
		c-1.261,1.782-1.892,3.713-1.892,5.797c0,2.054,0.631,3.97,1.892,5.75c1.256,1.779,3.022,3.204,5.293,4.274
		s4.843,1.606,7.707,1.606c2.891,0,5.363-0.439,7.419-1.321c2.056-0.885,3.705-2.077,4.95-3.585l3.301,2.778
		c-3.647,4.171-8.874,6.253-15.67,6.253c-3.647,0-6.943-0.702-9.878-2.105c-2.938-1.403-5.229-3.313-6.884-5.729
		C392.038,63.721,391.211,61.08,391.211,58.216z"/>
	<path fill="#2F2F2F" d="M432.145,43.065h4.774V57.26l21.057-14.195h7.594l-20.62,14.152l21.665,16.235h-7.729l-17.929-13.459
		l-4.038,2.735v10.724h-4.774V43.065z"/>
</g>
</svg>
