<?xml version="1.0" encoding="UTF-8"?>
<svg version="1.1" xmlns="http://www.w3.org/2000/svg" width="140" height="47">
<path d="M0 0 C0.99 0 1.98 0 3 0 C4.32 0 5.64 0 7 0 C7 7.26 7 14.52 7 22 C5.35 21.67 3.7 21.34 2 21 C0.6470266 21.62584758 -0.68763877 22.29294256 -2 23 C-6.63897872 23.32364968 -10.1299216 22.58005227 -14 20 C-16.64429337 16.03355995 -17.41877901 12.74895393 -17 8 C-15.22842161 4.17339067 -13.64498209 2.44432099 -10.1875 0.0625 C-6.35091501 -1.21636166 -3.92215787 -0.81403277 0 0 Z M-10.9375 5.0625 C-13.17147653 7.83235609 -13.17147653 7.83235609 -13.625 11 C-12.77618008 15.0743356 -11.32274404 16.54405875 -8 19 C-5 19.83333333 -5 19.83333333 -2 19 C1.08333333 17.08333333 1.08333333 17.08333333 3 14 C3 10.47866855 2.69441423 8.15735706 0.875 5.125 C-3.47831607 2.51301036 -6.76479281 2.13272686 -10.9375 5.0625 Z " fill="#0D0D0D" transform="translate(63,14)"/>
<path d="M0 0 C0.99 0.66 1.98 1.32 3 2 C2.67 3.32 2.34 4.64 2 6 C1.1646875 5.505 1.1646875 5.505 0.3125 5 C-2.30284522 3.8690399 -4.1806646 3.84337026 -7 4 C-7.33 5.32 -7.66 6.64 -8 8 C-7.30132812 8.18175781 -6.60265625 8.36351562 -5.8828125 8.55078125 C-4.97273437 8.80214844 -4.06265625 9.05351562 -3.125 9.3125 C-1.76761719 9.67794922 -1.76761719 9.67794922 -0.3828125 10.05078125 C2 11 2 11 4 14 C4.4375 16.4375 4.4375 16.4375 4 19 C2.0625 21.375 2.0625 21.375 -1 23 C-5.00058126 23.23120697 -8.6804555 23.15968779 -11.7734375 20.44140625 C-12.17820312 19.96574219 -12.58296875 19.49007812 -13 19 C-12.505 17.515 -12.505 17.515 -12 16 C-11.01 16 -10.02 16 -9 16 C-9 16.66 -9 17.32 -9 18 C-6.36 18 -3.72 18 -1 18 C-1.19637806 16.03399225 -1.19637806 16.03399225 -2 14 C-3.78306412 12.93960012 -3.78306412 12.93960012 -5.9375 12.375 C-8.75252096 11.50648174 -9.86379137 11.13620863 -12 9 C-12.5565371 3.76855124 -12.5565371 3.76855124 -10.6875 1.1875 C-6.96988983 -1.42859605 -4.24289657 -0.97233046 0 0 Z " fill="#0F0F0F" transform="translate(16,14)"/>
<path d="M0 0 C3.38347335 2.1804606 5.7118912 4.1356736 7 8 C7 9.65 7 11.3 7 13 C-0.59 13 -8.18 13 -16 13 C-17 10 -17 10 -15.8125 6.5 C-12.17233957 -0.52927531 -7.53915061 -1.68980962 0 0 Z M-9.9375 4.8125 C-12.22867096 6.74144591 -12.22867096 6.74144591 -12 9 C-7.05 9 -2.1 9 3 9 C0.62356856 3.78614827 0.62356856 3.78614827 -3.375 2.9375 C-7.06094973 2.69261764 -7.06094973 2.69261764 -9.9375 4.8125 Z " fill="#101010" transform="translate(124,14)"/>
<path d="M0 0 C3.53413803 3.6351134 4.1875 6.21563378 4.1875 11.25 C-3.7325 11.25 -11.6525 11.25 -19.8125 11.25 C-18.6281682 2.95967742 -18.6281682 2.95967742 -14.8125 -0.75 C-9.73813048 -3.76719269 -4.91795929 -3.06006356 0 0 Z M-13.8125 3.25 C-14.4725 4.57 -15.1325 5.89 -15.8125 7.25 C-10.5325 7.25 -5.2525 7.25 0.1875 7.25 C-2.18044696 1.99648938 -2.18044696 1.99648938 -6.25 1.3125 C-10.41256395 1.21803688 -10.41256395 1.21803688 -13.8125 3.25 Z " fill="#101010" transform="translate(40.8125,15.75)"/>
<path d="M0 0 C2.875 2.0625 2.875 2.0625 5 4 C4.67 4.99 4.34 5.98 4 7 C3.484375 6.690625 2.96875 6.38125 2.4375 6.0625 C-0.8448533 4.63173061 -3.40658574 4.06304236 -7 4 C-10.14658666 5.89649551 -10.14658666 5.89649551 -12 9 C-12 12.2622059 -11.55258481 14.12749766 -9.8125 16.875 C-7.08827656 18.56589731 -5.14066901 18.38457172 -2 18 C-0.64377755 17.03126968 0.69417053 16.03565785 2 15 C2.99 15.33 3.98 15.66 5 16 C4.875 17.8125 4.875 17.8125 4 20 C-0.03224214 22.62564604 -3.2168377 23.6975445 -8 23 C-11.6578218 20.96006092 -13.66946174 19.49580738 -16 16 C-16.60043882 11.83591778 -16.39565415 8.07059359 -14.9375 4.125 C-10.76499841 -0.45129207 -5.85981725 -1.91080997 0 0 Z " fill="#0E0E0E" transform="translate(101,14)"/>
<path d="M0 0 C0 1.32 0 2.64 0 4 C-0.969375 4.45375 -1.93875 4.9075 -2.9375 5.375 C-6.07079582 6.65786221 -6.07079582 6.65786221 -7 9 C-7.23029956 11.37123246 -7.41119942 13.74741943 -7.5625 16.125 C-7.64628906 17.40632813 -7.73007813 18.68765625 -7.81640625 20.0078125 C-7.90728516 21.48894531 -7.90728516 21.48894531 -8 23 C-9.32 23 -10.64 23 -12 23 C-12 15.74 -12 8.48 -12 1 C-9.525 1.495 -9.525 1.495 -7 2 C-1.26666667 0 -1.26666667 0 0 0 Z " fill="#101010" transform="translate(86,13)"/>
<path d="M0 0 C3.0625 0.3125 3.0625 0.3125 5 1.4375 C6.0625 3.3125 6.0625 3.3125 5.9375 6.375 C5.0625 9.3125 5.0625 9.3125 2.0625 11.3125 C-1.25990324 10.9883631 -2.54526303 10.70473697 -4.9375 8.3125 C-5.1875 5.3125 -5.1875 5.3125 -4.9375 2.3125 C-2.9375 0.3125 -2.9375 0.3125 0 0 Z M0.0625 3.3125 C-0.9275 4.7975 -0.9275 4.7975 -1.9375 6.3125 C-0.6175 6.6425 0.7025 6.9725 2.0625 7.3125 C1.7325 5.9925 1.4025 4.6725 1.0625 3.3125 C0.7325 3.3125 0.4025 3.3125 0.0625 3.3125 Z " fill="#124FAC" transform="translate(133.9375,4.6875)"/>
<path d="M0 0 C2.3125 -0.1875 2.3125 -0.1875 5 0 C5.474375 0.495 5.94875 0.99 6.4375 1.5 C7.99063076 3.28795838 7.99063076 3.28795838 10.875 3.375 C14.31099136 2.96268104 16.19780697 1.97801861 19 0 C19.66 0.99 20.32 1.98 21 3 C18.58606722 6.25356157 16.52888801 7.37458792 12.625 8 C9.04462772 8.25363428 7.93893839 7.9700243 4.5625 6.3125 C2.24965836 4.22530144 1.03421507 2.89580219 0 0 Z " fill="#101010" transform="translate(108,29)"/>
<path d="M0 0 C3.37462715 0.54723683 5.08235 1.0549 8 3 C12.07490752 3.33957563 13.53001271 3.31332486 17 1 C19.1875 1.375 19.1875 1.375 21 2 C15.29750983 7.8525557 15.29750983 7.8525557 11.25 8.3125 C7.14232771 7.91753151 5.17073386 6.5942368 2 4 C0.625 1.75 0.625 1.75 0 0 Z " fill="#111111" transform="translate(22,29)"/>
<path d="M0 0 C0.66 0.33 1.32 0.66 2 1 C2.1875 3.375 2.1875 3.375 2 6 C-1 8 -1 8 -3.625 7.6875 C-6 7 -6 7 -7 6 C-7.04063832 4.33382885 -7.042721 2.66611905 -7 1 C-6.34 2.32 -5.68 3.64 -5 5 C-3.35 5 -1.7 5 0 5 C0 3.35 0 1.7 0 0 Z " fill="#0D52BB" transform="translate(137,8)"/>
<path d="M0 0 C0.66 0.33 1.32 0.66 2 1 C1.34 1.66 0.68 2.32 0 3 C0 3.99 0 4.98 0 6 C-0.61875 6.12375 -1.2375 6.2475 -1.875 6.375 C-4.19120832 6.87197356 -4.19120832 6.87197356 -6 9 C-5.52797514 4.75177626 -3.03344482 2.80010291 0 0 Z " fill="#121212" transform="translate(114,14)"/>
<path d="M0 0 C0 1.32 0 2.64 0 4 C-1.65 4.33 -3.3 4.66 -5 5 C-5 3.68 -5 2.36 -5 1 C-2 0 -2 0 0 0 Z " fill="#121212" transform="translate(86,13)"/>
<path d="M0 0 C0.66 1.32 1.32 2.64 2 4 C3.65 4 5.3 4 7 4 C6.34 4.66 5.68 5.32 5 6 C2.375 5.625 2.375 5.625 0 5 C0 3.35 0 1.7 0 0 Z " fill="#045FEC" transform="translate(130,9)"/>
</svg>
