<svg width="450" height="64" viewBox="0 0 450 64" fill="none" xmlns="http://www.w3.org/2000/svg">
<path d="M126.457 33.3493L134.211 33.4866C134.44 36.3229 135.583 38.6102 137.642 40.3486C139.746 42.0412 142.468 42.8875 145.808 42.8875C148.736 42.8875 151.092 42.2699 152.876 41.0348C154.706 39.7539 155.621 37.9926 155.621 35.751C155.621 34.7446 155.392 33.8754 154.934 33.1435C154.523 32.4115 154.019 31.8168 153.425 31.3593C152.83 30.8561 151.915 30.3987 150.68 29.9869C149.445 29.5752 148.301 29.255 147.249 29.0263C146.242 28.7975 144.824 28.523 142.994 28.2028C140.707 27.7911 138.74 27.3336 137.093 26.8304C135.492 26.2815 133.891 25.5266 132.29 24.566C130.734 23.6053 129.545 22.3015 128.721 20.6546C127.898 19.0077 127.486 17.0406 127.486 14.7533C127.486 10.5904 129.065 7.2051 132.221 4.59754C135.423 1.98998 139.541 0.686199 144.573 0.686199C149.788 0.686199 154.042 2.08147 157.336 4.87202C160.676 7.61682 162.46 11.1622 162.688 15.5081H154.934C154.66 13.0378 153.585 11.0707 151.709 9.6068C149.834 8.09716 147.455 7.34234 144.573 7.34234C141.782 7.34234 139.541 7.93705 137.848 9.12646C136.201 10.3159 135.378 12.0085 135.378 14.2043C135.378 16.4459 136.338 18.0242 138.26 18.9391C140.181 19.8541 143.383 20.7004 147.866 21.4781C150.154 21.8898 152.098 22.3701 153.699 22.9191C155.346 23.4223 156.97 24.1771 158.571 25.1835C160.218 26.1442 161.453 27.448 162.277 29.0949C163.1 30.7418 163.512 32.686 163.512 34.9276C163.512 39.182 161.842 42.6816 158.503 45.4264C155.163 48.1712 150.909 49.5436 145.739 49.5436C140.021 49.5436 135.401 48.0569 131.878 45.0833C128.356 42.0641 126.549 38.1527 126.457 33.3493Z" fill="white"/>
<path d="M170.184 1.30378C171.053 0.434593 172.128 0 173.409 0C174.69 0 175.765 0.434593 176.634 1.30378C177.504 2.12722 177.938 3.17939 177.938 4.4603C177.938 5.74121 177.504 6.81625 176.634 7.68544C175.765 8.50888 174.69 8.9206 173.409 8.9206C172.128 8.9206 171.053 8.50888 170.184 7.68544C169.315 6.81625 168.88 5.74121 168.88 4.4603C168.88 3.17939 169.315 2.12722 170.184 1.30378ZM169.704 13.9985H177.115V49.1319H169.704V13.9985Z" fill="white"/>
<path d="M202.907 13.5868C207.07 13.5868 210.455 14.8677 213.062 17.4295C215.716 19.9913 217.042 24.1085 217.042 29.7811V49.1319H209.563V30.1928C209.563 23.3765 206.772 19.9684 201.191 19.9684C198.263 19.9684 195.953 20.9977 194.261 23.0563C192.614 25.0692 191.79 27.8597 191.79 31.428V49.1319H184.379V13.9985H190.83L191.653 18.596C194.306 15.2565 198.058 13.5868 202.907 13.5868Z" fill="white"/>
<path d="M251.436 13.9985H257.886V47.6909C257.886 52.6315 256.422 56.4514 253.495 59.1504C250.567 61.8952 246.038 63.2676 239.908 63.2676C235.15 63.2676 231.285 62.1926 228.311 60.0425C225.338 57.9382 223.691 54.9418 223.37 51.0533H230.919C231.376 53.0204 232.428 54.53 234.075 55.5822C235.722 56.6801 237.849 57.2291 240.457 57.2291C247.182 57.2291 250.544 53.9582 250.544 47.4164V43.5051C247.982 47.3478 244.162 49.2692 239.084 49.2692C234.19 49.2692 230.187 47.668 227.076 44.4658C224.011 41.2635 222.478 36.9176 222.478 31.428C222.478 26.1213 224.034 21.8212 227.145 18.5274C230.255 15.2336 234.235 13.5868 239.084 13.5868C244.208 13.5868 248.051 15.5539 250.613 19.4881L251.436 13.9985ZM232.909 39.7996C234.784 41.9497 237.255 43.0247 240.32 43.0247C243.385 43.0247 245.855 41.9726 247.731 39.8682C249.606 37.7181 250.544 34.9505 250.544 31.5652C250.544 28.0885 249.606 25.275 247.731 23.1249C245.855 20.9291 243.385 19.8312 240.32 19.8312C237.255 19.8312 234.784 20.9062 232.909 23.0563C231.033 25.2064 230.095 27.997 230.095 31.428C230.095 34.859 231.033 37.6495 232.909 39.7996Z" fill="white"/>
<path d="M289.214 13.9985H296.625V49.1319H290.106L289.283 44.6716C286.629 47.9196 283.015 49.5436 278.441 49.5436C274.323 49.5436 270.984 48.2627 268.422 45.7009C265.86 43.1391 264.579 39.0219 264.579 33.3493V13.9985H271.99V32.5945C271.99 39.5937 274.712 43.0934 280.156 43.0934C282.992 43.0934 285.211 42.0641 286.812 40.0055C288.413 37.9011 289.214 35.0419 289.214 31.428V13.9985Z" fill="white"/>
<path d="M303.928 1.09792H311.339V49.1319H303.928V1.09792Z" fill="white"/>
<path d="M350.787 42.6816H352.228V49.1319H348.316C344.016 49.1319 341.866 47.2563 341.866 43.5051C339.213 47.5308 335.347 49.5436 330.269 49.5436C326.335 49.5436 323.178 48.6287 320.8 46.7988C318.421 44.969 317.231 42.4529 317.231 39.2506C317.231 35.6367 318.512 32.869 321.074 30.9476C323.636 28.9805 327.364 27.997 332.259 27.997H341.111V25.8697C341.111 23.9026 340.425 22.3701 339.053 21.2722C337.68 20.1285 335.782 19.5567 333.357 19.5567C331.207 19.5567 329.423 20.037 328.005 20.9977C326.632 21.9127 325.809 23.1478 325.534 24.7032H318.261C318.627 21.1807 320.182 18.4588 322.927 16.5374C325.672 14.5703 329.263 13.5868 333.7 13.5868C338.412 13.5868 342.049 14.6847 344.611 16.8805C347.173 19.0764 348.453 22.2329 348.453 26.3501V40.2113C348.453 41.8582 349.231 42.6816 350.787 42.6816ZM341.111 34.7217V33.4866H331.916C327.158 33.4866 324.78 35.2478 324.78 38.7703C324.78 40.2799 325.351 41.4922 326.495 42.4072C327.684 43.3221 329.286 43.7796 331.298 43.7796C334.363 43.7796 336.742 42.9561 338.435 41.3092C340.173 39.6624 341.065 37.4665 341.111 34.7217Z" fill="white"/>
<path d="M374.037 13.9985H375.684V20.9291H372.39C369.325 20.9291 367.106 21.9355 365.734 23.9484C364.362 25.9155 363.675 28.4316 363.675 31.4966V49.1319H356.264V13.9985H362.852L363.675 19.2822C365.825 15.7597 369.279 13.9985 374.037 13.9985Z" fill="white"/>
<path d="M380.869 1.30378C381.738 0.434593 382.813 0 384.094 0C385.375 0 386.45 0.434593 387.319 1.30378C388.188 2.12722 388.623 3.17939 388.623 4.4603C388.623 5.74121 388.188 6.81625 387.319 7.68544C386.45 8.50888 385.375 8.9206 384.094 8.9206C382.813 8.9206 381.738 8.50888 380.869 7.68544C380 6.81625 379.565 5.74121 379.565 4.4603C379.565 3.17939 380 2.12722 380.869 1.30378ZM380.389 13.9985H387.8V49.1319H380.389V13.9985Z" fill="white"/>
<path d="M397.329 39.5937V20.5174H391.221V13.9985H397.329V4.18582H404.808V13.9985H413.248V20.5174H404.808V38.8389C404.808 40.2113 405.083 41.1949 405.632 41.7896C406.181 42.3385 407.118 42.613 408.445 42.613H414.072V49.1319H406.935C403.596 49.1319 401.148 48.3542 399.593 46.7988C398.083 45.2435 397.329 42.8418 397.329 39.5937Z" fill="white"/>
<path d="M414.55 13.9985H422.441L432.254 41.1034L441.792 13.9985H449.683L433.763 54.6215C432.574 57.7323 431.407 59.8824 430.264 61.0718C429.12 62.2612 427.336 62.8559 424.911 62.8559H416.951V56.337H422.166C423.585 56.337 424.568 56.1083 425.117 55.6508C425.666 55.2391 426.238 54.2784 426.833 52.7688L428.274 49.4064L414.55 13.9985Z" fill="white"/>
<path d="M55.1204 42.281C49.6904 49.611 34.6604 63.031 21.0504 62.911C6.29035 62.791 -1.07965 48.491 0.130354 33.781C1.44035 17.871 11.6704 5.35101 22.6304 1.22101C35.0004 -3.40899 45.2804 5.73101 30.6904 18.481C0.130356 45.191 26.5504 68.041 53.4404 40.641C56.3004 37.721 57.5704 38.981 55.1204 42.281Z" fill="#BABABA"/>
<path d="M15.9996 62.281C4.63958 59.351 -0.940419 46.721 0.129581 33.781C1.43958 17.871 11.6696 5.35101 22.6296 1.22101C34.9996 -3.40899 45.2796 5.73101 30.6896 18.481C0.129581 45.191 15.9996 62.281 15.9996 62.281Z" fill="white"/>
<path d="M45.6302 20.6308C51.0702 13.3508 66.0902 -0.119204 79.7002 0.000796412C94.4602 0.120796 101.83 14.4208 100.62 29.1308C99.3102 45.0408 89.0802 57.5908 78.1202 61.6908C65.7302 66.3508 55.4702 57.1908 70.0602 44.4308C100.62 17.7208 74.2102 -5.1292 47.3202 22.2708C44.4502 25.1908 43.1802 23.9308 45.6302 20.6308Z" fill="#BABABA"/>
<path d="M84.7097 0.640625C96.1097 3.57063 101.71 16.1906 100.62 29.1306C99.3097 45.0406 89.0797 57.5906 78.1197 61.6906C65.7297 66.3506 55.4697 57.1906 70.0597 44.4306C100.62 17.7206 84.7097 0.640625 84.7097 0.640625Z" fill="white"/>
</svg>
