<?xml version="1.0" encoding="UTF-8"?>
<svg version="1.1" xmlns="http://www.w3.org/2000/svg" width="920" height="920">
<path d="M0 0 C0.68394836 0.09194641 1.36789673 0.18389282 2.0725708 0.27862549 C72.10185414 9.74112613 143.01035978 36.32792754 196 84 C196.8647998 84.772229 196.8647998 84.772229 197.74707031 85.56005859 C204.23898931 91.3732606 210.4832792 97.23505146 216 104 C217.00858218 105.19706336 218.01775765 106.39362696 219.02734375 107.58984375 C227.75132169 118.01961329 235.18538984 128.6439534 241 141 C233.77216893 140.27254624 226.71116114 138.79450849 219.60396385 137.32949829 C215.69127956 136.52361521 211.77618887 135.72953858 207.86157227 134.93310547 C206.63071002 134.68224245 206.63071002 134.68224245 205.37498188 134.42631149 C175.78190142 128.39623386 146.22071968 122.59712446 116.31256104 118.33282471 C113.99280861 117.99896501 111.67472427 117.65530735 109.35693359 117.30810547 C76.6264557 112.40654125 43.85036889 109.19329979 10.8125 107.25 C9.72606201 107.1848822 8.63962402 107.1197644 7.52026367 107.05267334 C-3.49644906 106.4025293 -14.51461299 105.87544678 -25.55078125 105.734375 C-26.38989548 105.71393127 -27.2290097 105.69348755 -28.09355164 105.67242432 C-35.04479728 105.64541942 -40.68482264 106.78548253 -45.875 111.75 C-49.55748214 117.38203151 -50.3379574 123.22921294 -50.61669922 129.83935547 C-50.65429792 130.64379026 -50.69189663 131.44822506 -50.73063469 132.27703667 C-51.26860731 145.56395406 -51.1450839 158.87507503 -51.13422441 172.17066073 C-51.13230714 175.429216 -51.13393396 178.68776582 -51.13556135 181.94632095 C-51.13988094 190.63868371 -51.13705485 199.33102986 -51.13056505 208.02339071 C-51.12588737 214.33994515 -51.12351524 220.65649698 -51.12231445 226.97305298 C-51.11224951 271.27597513 -50.98061556 315.56981104 -50.2893219 359.86811829 C-50.27823458 360.5787826 -50.26714725 361.28944691 -50.25572395 362.0216465 C-50.23395992 363.41114366 -50.21203607 364.80063832 -50.1899395 366.19013023 C-49.84916439 387.79200118 -49.8990549 409.39619468 -50 431 C-54.53897705 431.02465392 -59.07791543 431.04283789 -63.61694336 431.05493164 C-65.16219766 431.0599714 -66.70744716 431.0668032 -68.25268555 431.07543945 C-70.46925029 431.08752076 -72.68575218 431.09323173 -74.90234375 431.09765625 C-75.94454323 431.10539818 -75.94454323 431.10539818 -77.00779724 431.11329651 C-78.6722933 431.11349277 -80.33665499 431.06189129 -82 431 C-83.76342575 429.23657425 -83.12856105 426.89706154 -83.13929653 424.54689407 C-83.1371568 423.75669247 -83.13501707 422.96649086 -83.1328125 422.15234375 C-83.13272973 421.34283642 -83.13264696 420.53332909 -83.13256168 419.69929123 C-83.12313686 402.40886684 -83.05974581 385.12138985 -82.77563477 367.83300781 C-82.74323244 365.85791638 -82.74323244 365.85791638 -82.71017551 363.84292412 C-82.69912908 363.17028849 -82.68808266 362.49765286 -82.67670149 361.80463433 C-82.66550624 361.12244073 -82.65431099 360.44024712 -82.64277649 359.73738098 C-82.63143002 359.04634207 -82.62008355 358.35530315 -82.60839325 357.64332366 C-81.8927588 313.74150257 -81.81208865 269.84172813 -81.81488967 225.93493742 C-81.8145323 217.70385633 -81.8027869 209.47281654 -81.7889536 201.24174863 C-81.77586629 193.15778011 -81.77051304 185.0738302 -81.77115268 176.98985118 C-81.77140493 172.22463113 -81.76869893 167.45946301 -81.75797462 162.69425392 C-81.74825908 158.26678243 -81.74823779 153.83941292 -81.75549126 149.41193771 C-81.75652885 147.80316581 -81.75422394 146.1943873 -81.7481308 144.5856266 C-80.964126 126.59411305 -80.964126 126.59411305 -88 111 C-113.65501654 91.22425808 -188.78104799 110.23794022 -219.89920044 114.25863647 C-264.79055881 120.14823706 -309.15623808 128.14263469 -353.43652344 137.54614258 C-354.5246785 137.77658264 -355.61283356 138.00702271 -356.73396301 138.2444458 C-358.77518369 138.67760019 -360.81581812 139.11352968 -362.85575867 139.55267334 C-363.75728165 139.74419983 -364.65880463 139.93572632 -365.58764648 140.13305664 C-366.37171371 140.30132462 -367.15578094 140.46959259 -367.96360779 140.64295959 C-370 141 -370 141 -373 141 C-361.38786266 108.52327365 -326.92633422 79.49176185 -299 61 C-298.39220703 60.59233398 -297.78441406 60.18466797 -297.15820312 59.76464844 C-245.54637739 25.34856445 -185.96321536 7.33060264 -125 -1 C-123.71351563 -1.17934082 -122.42703125 -1.35868164 -121.1015625 -1.54345703 C-81.16972735 -6.85679715 -39.8294725 -5.45924109 0 0 Z " fill="#1A7DFE" transform="translate(525,79)"/>
<path d="M0 0 C1.79715454 0.01015137 1.79715454 0.01015137 3.63061523 0.02050781 C66.7947418 0.70530011 129.42870329 9.09600978 191.41711426 20.79040527 C193.81009685 21.2378639 196.20479027 21.67432606 198.60058594 22.10644531 C202.75990517 22.85682394 206.91137937 23.64299574 211.0625 24.4375 C212.25657471 24.65092041 213.45064941 24.86434082 214.6809082 25.08422852 C215.74913818 25.29748779 216.81736816 25.51074707 217.91796875 25.73046875 C218.83602295 25.90473389 219.75407715 26.07899902 220.69995117 26.25854492 C222.875 27.25 222.875 27.25 224.1315918 29.55541992 C234.61321046 67.54741506 225.12830638 107.82057679 206.5 141.5 C192.79524894 165.53870649 173.01761467 187.707035 150.875 204.25 C150.34583984 204.65557129 149.81667969 205.06114258 149.27148438 205.47900391 C119.41539452 228.36134684 86.16583344 244.62624054 50.875 257.25 C50.06820801 257.54003906 49.26141602 257.83007812 48.43017578 258.12890625 C39.23540049 261.40413703 29.926297 264.15691594 20.5 266.6875 C19.50605225 266.95908936 18.51210449 267.23067871 17.48803711 267.51049805 C16.55612549 267.75324463 15.62421387 267.99599121 14.6640625 268.24609375 C13.83600098 268.46450928 13.00793945 268.6829248 12.15478516 268.90795898 C9.70730696 269.27515934 8.22773835 268.91038015 5.875 268.25 C-27.12123442 124.55125641 -27.12123442 124.55125641 -37.76779175 55.53491211 C-38.09119254 53.46625223 -38.42961169 51.39995399 -38.76977539 49.33398438 C-39.77244897 43.19077452 -40.48600849 37.22877165 -40.4375 31 C-40.43258545 30.23204102 -40.4276709 29.46408203 -40.42260742 28.67285156 C-40.26557502 21.09342116 -39.11521384 14.36819455 -33.7578125 8.59375 C-24.07690658 0.62668867 -12.00604905 -0.10217164 0 0 Z " fill="#197DFE" transform="translate(557.125,228.75)"/>
<path d="M0 0 C1.07701172 -0.01772461 2.15402344 -0.03544922 3.26367188 -0.05371094 C15.28823135 -0.04230244 26.94312526 1.88062526 35.6875 10.625 C39.77773304 17.13907485 40.87777994 22.98116275 40.74609375 30.515625 C40.73718613 31.38302307 40.7282785 32.25042114 40.71910095 33.144104 C40.505028 42.91726236 39.04909727 52.43815608 37.4375 62.0625 C37.1202626 64.01936797 36.80354443 65.97632017 36.48730469 67.93334961 C27.81086842 121.0602202 16.33087855 173.61935046 4.42741013 226.09946823 C3.81392352 228.80621933 3.20200261 231.51332061 2.59036255 234.2204895 C1.62252552 238.50144389 0.64889951 242.78104257 -0.32926559 247.05964851 C-0.6928676 248.65333364 -1.05476498 250.24740873 -1.41487503 251.84188652 C-1.91172397 254.0396283 -2.41507186 256.23578138 -2.92016602 258.43164062 C-3.20231461 259.66934204 -3.4844632 260.90704346 -3.77516174 262.18225098 C-4.49072669 264.81792484 -5.28156669 266.95184955 -6.625 269.3125 C-64.56182073 256.40390298 -121.00814968 231.78580213 -164.765625 190.92578125 C-166.80487626 189.06203932 -168.83387665 187.32674982 -170.984375 185.60546875 C-171.85578125 184.84878906 -172.7271875 184.09210938 -173.625 183.3125 C-173.625 182.6525 -173.625 181.9925 -173.625 181.3125 C-174.285 181.3125 -174.945 181.3125 -175.625 181.3125 C-178.17211883 178.85004994 -180.35893136 176.03264728 -182.625 173.3125 C-183.32109375 172.49136719 -184.0171875 171.67023438 -184.734375 170.82421875 C-213.08359585 136.89562997 -229.13788854 96.9588943 -226.625 52.3125 C-226.00269795 45.6398523 -225.23114932 38.8291894 -223.625 32.3125 C-223.42334229 31.44423584 -223.22168457 30.57597168 -223.01391602 29.68139648 C-221.625 27.3125 -221.625 27.3125 -218.5637207 26.13745117 C-217.23077404 25.85373412 -215.89238136 25.59495008 -214.55078125 25.35546875 C-213.81638321 25.20671295 -213.08198517 25.05795715 -212.32533264 24.9046936 C-209.8665881 24.4137323 -207.40289471 23.95630299 -204.9375 23.5 C-203.19133941 23.16158291 -201.44541259 22.82195771 -199.69970703 22.48120117 C-194.01548513 21.38391105 -188.32172725 20.34262947 -182.625 19.3125 C-181.6595929 19.13722778 -180.69418579 18.96195557 -179.69952393 18.78137207 C-120.3068002 8.0281423 -60.43458057 0.57384979 0 0 Z " fill="#197DFE" transform="translate(359.625,228.6875)"/>
<path d="M0 0 C30.03 0 60.06 0 91 0 C99.03837025 19.52175633 99.03837025 19.52175633 101.62109375 26.1875 C102.07332054 27.34832092 102.07332054 27.34832092 102.53468323 28.53259277 C103.50379341 31.02114603 104.47064915 33.5105682 105.4375 36 C106.13459088 37.79108365 106.83186069 39.58209766 107.52929688 41.37304688 C108.97187731 45.07785852 110.41370336 48.78296238 111.85498047 52.48828125 C114.89984332 60.31444028 117.95417332 68.13690181 121.00823975 75.95947266 C122.341964 79.37598681 123.67508654 82.79273564 125.00823975 86.20947266 C127.64514019 92.96748232 130.28294731 99.7251358 132.9229126 106.48194885 C143.32228149 133.09852567 153.67297233 159.73381218 163.98724365 186.38348389 C164.9282105 188.81452756 165.86957551 191.24541667 166.81103516 193.67626953 C168.27225201 197.44992438 169.73040559 201.22475146 171.1875 205 C171.59145996 206.04341553 171.99541992 207.08683105 172.41162109 208.16186523 C172.94070068 209.53580444 172.94070068 209.53580444 173.48046875 210.9375 C173.77848389 211.70964844 174.07649902 212.48179687 174.38354492 213.27734375 C175 215 175 215 175 216 C147.28 216 119.56 216 91 216 C88.05865988 208.94078371 85.19453435 202.03371844 82.72265625 194.828125 C82.43488815 193.99949951 82.14712006 193.17087402 81.85063171 192.31713867 C80.91791951 189.62923495 79.99026195 186.93961586 79.0625 184.25 C78.40244377 182.34588108 77.74195429 180.44191229 77.08105469 178.53808594 C75.72145544 174.62091371 74.36336902 170.70322223 73.00634766 166.78515625 C69.93880776 157.93384647 66.8454217 149.0915896 63.75 140.25 C63.46365692 139.43164673 63.17731384 138.61329346 62.8822937 137.7701416 C57.30393039 121.82924926 51.66252382 105.91117025 46 90 C40.72694789 104.57485222 35.55134725 119.17673452 30.59765625 133.86328125 C30.37158062 134.53340115 30.14550499 135.20352104 29.91257858 135.8939476 C28.29247294 140.69898569 26.67697982 145.50556925 25.0625 150.3125 C19.43981147 167.0530591 13.77598335 183.77442394 7.87109375 200.41796875 C7.6308806 201.09588282 7.39066746 201.77379688 7.14317513 202.4722538 C3.18522106 213.62955788 3.18522106 213.62955788 2 216 C-25.72 216 -53.44 216 -82 216 C-69.60764277 182.20266211 -69.60764277 182.20266211 -64.96228027 170.27645874 C-58.41991873 153.46533661 -52.07020529 136.58314529 -45.75 119.6875 C-33.10766301 85.90130165 -20.31168995 52.17459597 -7.375 18.5 C-7.05227112 17.65927948 -6.72954224 16.81855896 -6.39703369 15.95236206 C-5.50284354 13.62403716 -4.60719631 11.29627926 -3.7109375 8.96875 C-3.31711884 7.94304649 -3.31711884 7.94304649 -2.91534424 6.8966217 C-1.11551147 2.23102293 -1.11551147 2.23102293 0 0 Z " fill="#197DFE" transform="translate(293,619)"/>
<path d="M0 0 C30.36 0 60.72 0 92 0 C94.76375 7.13625 97.5275 14.2725 100.375 21.625 C106.92711387 38.53315054 113.50679556 55.43011451 120.125 72.3125 C126.31211162 88.0958241 132.44978093 103.89740538 138.54675293 119.71575928 C143.72628483 133.15177572 148.95403867 146.56818075 154.21246338 159.97351074 C164.85484732 187.10720367 164.85484732 187.10720367 169.90655518 200.36477661 C170.60428455 202.19564195 171.30478571 204.02545023 172.00537109 205.85522461 C172.40836426 206.91878174 172.81135742 207.98233887 173.2265625 209.078125 C173.57283691 209.98981445 173.91911133 210.90150391 174.27587891 211.84082031 C175 214 175 214 175 216 C147.28 216 119.56 216 91 216 C84.60494408 197.88067489 78.21039896 179.76196609 71.84716797 161.6315918 C65.41100075 143.29737869 58.95625249 124.97021038 52.375 106.6875 C51.96388474 105.54127167 51.96388474 105.54127167 51.54446411 104.37188721 C50.79050582 102.27154812 50.03273373 100.172633 49.2734375 98.07421875 C48.85497559 96.91494873 48.43651367 95.75567871 48.00537109 94.5612793 C47.23814871 92.10486616 47.23814871 92.10486616 46 91 C35.80126424 120.446136 25.62851332 149.89984545 15.62963867 179.41456604 C11.47889362 191.63243067 7.23974233 203.81074081 3 216 C-24.72 216 -52.44 216 -81 216 C-77.62572784 204.75242614 -77.62572784 204.75242614 -75.86328125 200.15625 C-75.45964355 199.09792969 -75.05600586 198.03960938 -74.64013672 196.94921875 C-73.98295654 195.24185547 -73.98295654 195.24185547 -73.3125 193.5 C-72.83313083 192.24623335 -72.35414039 190.99232183 -71.87548828 189.73828125 C-70.82353891 186.98369742 -69.76963458 184.22987239 -68.71435547 181.4765625 C-65.92742401 174.20291467 -63.15575571 166.92343916 -60.38259888 159.64453125 C-59.70538905 157.86713492 -59.02803901 156.089792 -58.35055542 154.3125 C-52.81958128 139.80254906 -47.3202793 125.2808472 -41.83822632 110.75234985 C-37.38840785 98.95978042 -32.92961999 87.17067312 -28.45703125 75.38671875 C-28.21844391 74.75805531 -27.97985657 74.12939186 -27.73403931 73.48167801 C-25.16158329 66.70348914 -22.58806511 59.9257054 -20.01318359 53.1484375 C-13.29376827 35.44985482 -6.64735655 17.72628413 0 0 Z " fill="#197DFE" transform="translate(717,619)"/>
<path d="M0 0 C0.81029535 0.00291284 1.6205907 0.00582568 2.45544046 0.00882679 C3.30975733 0.00797237 4.1640742 0.00711794 5.04427946 0.00623763 C7.9294771 0.0045802 10.81461761 0.01010847 13.69980997 0.01555592 C15.75904457 0.01583776 17.81827928 0.01568012 19.87751383 0.01511341 C25.48678858 0.01482532 31.09604215 0.02072396 36.70531195 0.02768737 C42.56032401 0.03391894 48.41533649 0.03452455 54.27035135 0.03571278 C65.36614531 0.03882668 76.46192947 0.04704085 87.55771911 0.05706227 C100.18627944 0.06822159 112.81484023 0.0737334 125.44340426 0.0787577 C151.42918876 0.08922342 177.41495983 0.10756963 203.4007377 0.12908131 C203.4007377 21.57908131 203.4007377 43.02908131 203.4007377 65.12908131 C183.2707377 65.12908131 163.1407377 65.12908131 142.4007377 65.12908131 C142.4007377 115.28908131 142.4007377 165.44908131 142.4007377 217.12908131 C113.3607377 217.12908131 84.3207377 217.12908131 54.4007377 217.12908131 C54.4007377 166.96908131 54.4007377 116.80908131 54.4007377 65.12908131 C34.6007377 65.12908131 14.8007377 65.12908131 -5.5992623 65.12908131 C-6.25635285 60.52944741 -6.72501852 56.66365785 -6.72865683 52.11785084 C-6.73180899 50.98042439 -6.73496115 49.84299793 -6.73820883 48.67110401 C-6.7361846 47.46356465 -6.73416037 46.25602528 -6.7320748 45.01189381 C-6.73303152 43.75899555 -6.73398825 42.5060973 -6.73497397 41.21523243 C-6.73582571 37.90469813 -6.73181919 34.59421136 -6.72621542 31.28368336 C-6.72360447 28.57049604 -6.72842844 25.85734167 -6.73320585 23.1441589 C-6.73767377 19.91256764 -6.73455383 16.68098609 -6.7320748 13.44939381 C-6.73409903 12.22970906 -6.73612326 11.0100243 -6.73820883 9.7533794 C-6.73505667 8.63486592 -6.73190451 7.51635243 -6.72865683 6.36394459 C-6.72746344 4.88004734 -6.72746344 4.88004734 -6.72624594 3.36617237 C-6.47509517 -1.05839071 -3.7995521 0.01036285 0 0 Z " fill="#1B7DFE" transform="translate(454.5992622971535,617.8709186911583)"/>
<path d="M0 0 C27.23294563 -0.02254412 54.46588375 -0.04097747 81.69883633 -0.05181217 C94.34260326 -0.05697587 106.986364 -0.06401995 119.63012695 -0.07543945 C130.64609263 -0.08538406 141.66205383 -0.09185289 152.67802387 -0.09408849 C158.51479558 -0.09539598 164.35155446 -0.09848423 170.18832207 -0.10573006 C175.6752164 -0.11248675 181.16209254 -0.11461768 186.64899063 -0.11310768 C188.6691059 -0.11338417 190.68922173 -0.11539136 192.70933342 -0.11920547 C195.45467751 -0.12413725 198.19995174 -0.12300021 200.94529724 -0.12025452 C201.75559259 -0.12316736 202.56588795 -0.1260802 203.4007377 -0.12908131 C208.88587879 -0.11412121 208.88587879 -0.11412121 210 1 C210.09405142 2.9943173 210.11743249 4.99199543 210.11352539 6.98852539 C210.11344986 8.26977798 210.11337433 9.55103058 210.11329651 10.87110901 C210.10818909 12.27995848 210.10297309 13.68880756 210.09765625 15.09765625 C210.09579202 16.53112234 210.09436814 17.96458907 210.09336853 19.39805603 C210.08954372 23.17759957 210.07971377 26.9571049 210.06866455 30.7366333 C210.0566548 35.26787781 210.05204801 39.79913507 210.04621124 44.33039093 C210.03650198 51.22028722 210.0173452 58.11009962 210 65 C189.54 65 169.08 65 148 65 C148.33 67.31 148.66 69.62 149 72 C149.08322676 74.11425639 149.12208964 76.2306493 149.12025452 78.34654236 C149.12231651 80.19105484 149.12231651 80.19105484 149.12442017 82.0728302 C149.12088201 83.41696192 149.11724722 84.76109339 149.11352539 86.10522461 C149.11324301 87.53481036 149.11340224 88.96439626 149.1139679 90.39398193 C149.1142539 94.25915944 149.10838899 98.1243057 149.10139394 101.98947597 C149.09512763 106.03469479 149.09455401 110.0799144 149.09336853 114.12513733 C149.09026486 121.77830163 149.0820645 129.43145158 149.07201904 137.08460957 C149.0587339 147.43130026 149.0533502 157.77799489 149.04751682 168.12469196 C149.03812395 184.41647205 149.01819859 200.70822186 149 217 C119.96 217 90.92 217 61 217 C61 166.84 61 116.68 61 65 C40.87 65 20.74 65 0 65 C0 43.55 0 22.1 0 0 Z " fill="#187CFE" transform="translate(24,618)"/>
<path d="M0 0 C27.23294328 -0.02332554 54.46588508 -0.04097747 81.69883633 -0.05181217 C94.34260326 -0.05697587 106.986364 -0.06401995 119.63012695 -0.07543945 C130.64609263 -0.08538406 141.66205383 -0.09185289 152.67802387 -0.09408849 C158.51479558 -0.09539598 164.35155446 -0.09848423 170.18832207 -0.10573006 C175.6752164 -0.11248675 181.16209254 -0.11461768 186.64899063 -0.11310768 C188.6691059 -0.11338417 190.68922173 -0.11539136 192.70933342 -0.11920547 C195.45467751 -0.12413725 198.19995174 -0.12300021 200.94529724 -0.12025452 C201.75559259 -0.12316736 202.56588795 -0.1260802 203.4007377 -0.12908131 C208.88587879 -0.11412121 208.88587879 -0.11412121 210 1 C210.09405142 2.9943173 210.11743249 4.99199543 210.11352539 6.98852539 C210.11344986 8.26977798 210.11337433 9.55103058 210.11329651 10.87110901 C210.10818909 12.27995848 210.10297309 13.68880756 210.09765625 15.09765625 C210.09579202 16.53112234 210.09436814 17.96458907 210.09336853 19.39805603 C210.08954372 23.17759957 210.07971377 26.9571049 210.06866455 30.7366333 C210.0566548 35.26787781 210.05204801 39.79913507 210.04621124 44.33039093 C210.03650198 51.22028722 210.0173452 58.11009962 210 65 C189.54 65 169.08 65 148 65 C148.33 67.31 148.66 69.62 149 72 C149.08413095 73.97417121 149.12622445 75.95056602 149.12698364 77.92652893 C149.12980347 79.06339142 149.13262329 80.20025391 149.13552856 81.37156677 C149.13249222 83.21320152 149.13249222 83.21320152 149.12939453 85.09204102 C149.13202301 87.0542157 149.13202301 87.0542157 149.13470459 89.05603027 C149.13924589 92.62822825 149.13750311 96.20039719 149.1343255 99.77259564 C149.13178534 103.51872155 149.134144 107.26484506 149.13571167 111.01097107 C149.1375283 117.29955489 149.13514009 123.58812695 149.13037109 129.87670898 C149.12492708 137.13910125 149.12669418 144.40146545 149.1321975 151.66385704 C149.13674021 157.90947794 149.13737357 164.15509041 149.13475883 170.40071243 C149.13320274 174.12652193 149.13298402 177.85231826 149.13629532 181.57812691 C149.13972892 185.73121927 149.13496537 189.88426347 149.12939453 194.03735352 C149.13141876 195.26713425 149.13344299 196.49691498 149.13552856 197.76396179 C149.13270874 198.89800446 149.12988892 200.03204712 149.12698364 201.20045471 C149.1264181 202.67182561 149.1264181 202.67182561 149.12584114 204.17292118 C148.99192485 207.1814119 148.5518641 210.04193222 148 213 C145.32939283 210.32939283 145.74870081 209.05209241 145.74603271 205.3196106 C145.73757324 203.50670029 145.73757324 203.50670029 145.72894287 201.65716553 C145.73283186 200.31066835 145.73692822 198.96417176 145.74121094 197.61767578 C145.73850202 196.20516784 145.73494165 194.79266131 145.73059082 193.38015747 C145.72145103 189.53711964 145.72501801 185.69418885 145.73134899 181.85114908 C145.73640277 177.83312593 145.73171909 173.81511212 145.72857666 169.79708862 C145.72493436 163.04651235 145.72974215 156.29597979 145.73925781 149.54541016 C145.75013408 141.73944468 145.74662389 133.93358374 145.735605 126.12762082 C145.72652913 119.43032439 145.72524858 112.73305944 145.73048234 106.03575885 C145.73360152 102.03382268 145.73401298 98.03193562 145.72740936 94.03000259 C145.72163248 90.26583593 145.72563905 86.50180394 145.73719788 82.73765182 C145.73984301 81.3557584 145.73908186 79.97385364 145.73467255 78.59196472 C145.72920996 76.70609949 145.73727375 74.82020949 145.74603271 72.93435669 C145.74716379 71.35092563 145.74716379 71.35092563 145.74831772 69.73550606 C146 67 146 67 148 63 C167.8 63 187.6 63 208 63 C208 42.87 208 22.74 208 2 C139.36 2 70.72 2 0 2 C0 1.34 0 0.68 0 0 Z " fill="#4591F0" transform="translate(24,618)"/>
<path d="M0 0 C0.33 0.66 0.66 1.32 1 2 C28.06 1.67 55.12 1.34 83 1 C83.495 2.485 83.495 2.485 84 4 C56.28 4 28.56 4 0 4 C0 2.68 0 1.36 0 0 Z " fill="#3084EE" transform="translate(808,831)"/>
<path d="M0 0 C0.33 0 0.66 0 1 0 C1 10.23 1 20.46 1 31 C10.9 31 20.8 31 31 31 C31.495 31.99 31.495 31.99 32 33 C27.46102295 33.02465392 22.92208457 33.04283789 18.38305664 33.05493164 C16.83780234 33.0599714 15.29255284 33.0668032 13.74731445 33.07543945 C11.53074971 33.08752076 9.31424782 33.09323173 7.09765625 33.09765625 C6.05545677 33.10539818 6.05545677 33.10539818 4.99220276 33.11329651 C3.3277067 33.11349277 1.66334501 33.06189129 0 33 C-1.90849948 31.09150052 -1.13059633 27.68521226 -1.1328125 25.15625 C-1.13376923 24.47195923 -1.13472595 23.78766846 -1.13571167 23.0826416 C-1.1363933 21.63338123 -1.13454023 20.18411782 -1.13037109 18.73486328 C-1.12502252 16.50937072 -1.1303166 14.28407999 -1.13671875 12.05859375 C-1.13605797 10.65364539 -1.1347768 9.24869715 -1.1328125 7.84375 C-1.13168457 6.55662109 -1.13055664 5.26949219 -1.12939453 3.94335938 C-1 1 -1 1 0 0 Z " fill="#448FEF" transform="translate(443,477)"/>
<path d="M0 0 C7.26 0 14.52 0 22 0 C22.33 0.66 22.66 1.32 23 2 C15.08 2.33 7.16 2.66 -1 3 C-0.67 2.01 -0.34 1.02 0 0 Z " fill="#4D95F0" transform="translate(545,229)"/>
<path d="M0 0 C3.29159316 -0.05790353 6.58305603 -0.09356261 9.875 -0.125 C10.81214844 -0.14175781 11.74929688 -0.15851563 12.71484375 -0.17578125 C13.61074219 -0.18222656 14.50664062 -0.18867188 15.4296875 -0.1953125 C16.25710449 -0.20578613 17.08452148 -0.21625977 17.93701172 -0.22705078 C20 0 20 0 22 2 C16.70346121 2.93959624 11.91331483 2.98841115 6.5625 2.5625 C5.83095703 2.51029297 5.09941406 2.45808594 4.34570312 2.40429688 C2.56331378 2.27615124 0.7815743 2.1390184 -1 2 C-0.67 1.34 -0.34 0.68 0 0 Z " fill="#4B94F0" transform="translate(352,229)"/>
<path d="M0 0 C0.66 0 1.32 0 2 0 C2.33 1.98 2.66 3.96 3 6 C3.72445312 5.7834375 4.44890625 5.566875 5.1953125 5.34375 C14.79789104 2.57820738 14.79789104 2.57820738 20 3 C16.91433716 5.05710856 14.63014688 5.78346093 11.0625 6.6875 C10.02222656 6.95949219 8.98195313 7.23148437 7.91015625 7.51171875 C5.1294044 7.97828785 3.61519118 7.93894816 1 7 C0.67 4.69 0.34 2.38 0 0 Z " fill="#3789F1" transform="translate(562,490)"/>
<path d="M0 0 C2.93280794 2.47902104 3.93871822 4.969262 5.1875 8.5625 C5.53167969 9.53316406 5.87585938 10.50382813 6.23046875 11.50390625 C7 14 7 14 7 16 C6.34 16 5.68 16 5 16 C4.15787744 14.08717875 3.32661136 12.16957527 2.5 10.25 C2.0359375 9.18265625 1.571875 8.1153125 1.09375 7.015625 C0 4 0 4 0 0 Z " fill="#3085F2" transform="translate(419,712)"/>
<path d="M0 0 C0.66 0.33 1.32 0.66 2 1 C1.67 2.98 1.34 4.96 1 7 C-2.62326739 8.2077558 -3.64146369 7.54311128 -7 6 C-4.92446352 5.4465236 -3.15634036 5 -1 5 C-0.67 3.35 -0.34 1.7 0 0 Z " fill="#3487F1" transform="translate(353,490)"/>
<path d="M0 0 C1.1055189 0.93590504 2.20935453 1.87379858 3.3125 2.8125 C3.92738281 3.33457031 4.54226562 3.85664063 5.17578125 4.39453125 C6.85424679 5.87172469 8.43882034 7.40039131 10 9 C9.67 9.66 9.34 10.32 9 11 C7.49117739 9.73965413 5.99315956 8.46636351 4.5 7.1875 C3.6646875 6.47980469 2.829375 5.77210938 1.96875 5.04296875 C0 3 0 3 0 0 Z " fill="#2882F4" transform="translate(187,410)"/>
<path d="M0 0 C0.99 0 1.98 0 3 0 C3.99 3.3 4.98 6.6 6 10 C1.94611555 7.29741037 1.49652559 4.48957676 0 0 Z " fill="#2881F3" transform="translate(806,619)"/>
<path d="M0 0 C4.3177458 0.50797009 8.03302114 1.19682779 12 3 C8.69564916 4.12377697 6.9493138 3.89554742 3.75 2.5625 C3.04359375 2.27503906 2.3371875 1.98757812 1.609375 1.69140625 C1.07828125 1.46324219 0.5471875 1.23507813 0 1 C0 0.67 0 0.34 0 0 Z " fill="#3588F1" transform="translate(618,104)"/>
</svg>
