<?xml version="1.0" encoding="UTF-8"?>
<svg version="1.1" xmlns="http://www.w3.org/2000/svg" width="500" height="121">
<path d="M0 0 C16.54710451 10.50239355 38.64942643 29.53605923 46 48 C44.79014957 52.69706638 41.85739362 56.16507698 39 60 C33.82548198 59.46098771 28.45713063 58.86318988 24 56 C22.78331221 54.10879758 21.97923301 52.20054178 21.109375 50.12890625 C18.43512646 44.99698563 13.39423869 41.33296034 8.125 39.125 C-1.48946544 36.12047955 -9.05570857 36.94797156 -18.1953125 40.96484375 C-24.87053817 44.53088636 -27.71732089 50.43464178 -31 57 C-34.17538332 56.65978036 -35.02276865 55.97533396 -37.25 53.5625 C-39 51 -39 51 -39 49 C-39.60328125 49.144375 -40.2065625 49.28875 -40.828125 49.4375 C-41.62734375 49.623125 -42.4265625 49.80875 -43.25 50 C-44.03890625 50.185625 -44.8278125 50.37125 -45.640625 50.5625 C-48 51 -48 51 -52 51 C-50.33260498 39.63324617 -40.68122221 30.92555532 -33 23 C-32.03904489 21.98699587 -31.07810737 20.97397506 -30.1171875 19.9609375 C-8.47561245 -2.53905651 -8.47561245 -2.53905651 0 0 Z " fill="#8280DB" transform="translate(56,1)"/>
<path d="M0 0 C5.59056434 4.84445519 9.52678907 10.49266593 10.3125 17.9765625 C10.62442465 26.30105152 9.70817734 33.48012486 4.3046875 40.06640625 C-1.17382457 45.37856674 -7.24155143 47.90936288 -14.87109375 48.0546875 C-20.68044339 47.6920958 -23.53687648 46.73156176 -29 44 C-29.33 50.93 -29.66 57.86 -30 65 C-34.29 65 -38.58 65 -43 65 C-43 42.56 -43 20.12 -43 -3 C-39.04 -3 -35.08 -3 -31 -3 C-30.67 -1.68 -30.34 -0.36 -30 1 C-29.0925 0.360625 -28.185 -0.27875 -27.25 -0.9375 C-18.84559755 -6.27106309 -8.3378262 -4.99430193 0 0 Z M-27.375 12 C-30.47762901 15.81862032 -30.33621586 19.77886507 -30.28125 24.4921875 C-29.74935905 29.23488184 -27.31691405 31.87121653 -23.8125 34.875 C-19.79534134 36.48186346 -16.26652255 36.66970107 -12 36 C-8.25473434 34.19672394 -6.45874584 32.67282723 -4.125 29.25 C-2.309989 24.00663488 -2.28080528 19.96832239 -4.1875 14.75 C-7.00885294 10.46932658 -9.40370236 8.44341601 -14.375 7.0625 C-19.72017487 6.97034181 -23.30974087 8.57662389 -27.375 12 Z " fill="#3D3D3D" transform="translate(253,48)"/>
<path d="M0 0 C4.29 0 8.58 0 13 0 C13.01981934 1.13953125 13.03963867 2.2790625 13.06005859 3.453125 C13.13654489 7.71001028 13.22519361 11.96657277 13.31738281 16.22314453 C13.35549573 18.05999342 13.39037839 19.89691246 13.421875 21.73388672 C13.46791226 24.38534494 13.52583984 27.03632756 13.5859375 29.6875 C13.59748871 30.49928711 13.60903992 31.31107422 13.62094116 32.14746094 C13.77400988 38.15787127 14.05237322 44.44793732 17.8125 49.375 C22.42807238 52.80371091 26.27421482 53.49360217 32 53 C35.98298783 51.73872052 38.31037448 50.89651318 40.875 47.5625 C42.47145334 43.92613405 43.11975015 40.74299301 43.20532227 36.78222656 C43.22526749 35.96167786 43.24521271 35.14112915 43.26576233 34.29571533 C43.28247482 33.41953552 43.29918732 32.54335571 43.31640625 31.640625 C43.33718735 30.73624695 43.35796844 29.8318689 43.37937927 28.90008545 C43.4446594 26.01679945 43.50365952 23.1334239 43.5625 20.25 C43.60570571 18.29295956 43.64932065 16.33592812 43.69335938 14.37890625 C43.80031872 9.5860288 43.90164673 4.79306146 44 0 C48.29 0 52.58 0 57 0 C57.09961787 6.06481249 57.17182006 12.12913826 57.21972656 18.19458008 C57.23971846 20.25358386 57.26692128 22.31253177 57.30175781 24.37133789 C57.71871093 49.66445005 57.71871093 49.66445005 49.9375 58.9375 C42.91878632 65.13661866 34.34978065 66.71537197 25.2109375 66.37890625 C17.61777687 65.48287635 10.58709016 63.13783603 5.55224609 57.13769531 C-2.06113956 46.6528251 -0.4578783 33.59791159 -0.25 21.3125 C-0.22990479 19.24285582 -0.21165937 17.17319281 -0.1953125 15.10351562 C-0.15155539 10.06853993 -0.0826941 5.03448058 0 0 Z " fill="#3D3D3D" transform="translate(139,30)"/>
<path d="M0 0 C6.17291546 5.39282175 8.64529933 11.2625829 10.24609375 19.10546875 C12.11135613 26.26691652 16.80921639 31.60044442 22.76953125 35.796875 C26.02905836 37.55507877 29.38589538 38.40344055 32.99609375 39.1640625 C35 40 35 40 35.91015625 41.87109375 C36.03919303 44.92870435 34.42500914 46.74149199 32.87890625 49.2734375 C31.81406759 51.05791749 31.81406759 51.05791749 31.9375 53.5625 C33.40797763 56.93594869 35.59022637 59.21949196 38 62 C38 62.66 38 63.32 38 64 C24.34775749 64.98493132 12.03482375 60.79568697 1.59375 51.96484375 C-3.75692947 46.90845165 -7.69671988 41.56639878 -11 35 C-11.41378906 34.23945312 -11.82757813 33.47890625 -12.25390625 32.6953125 C-16.62034283 23.17130797 -15.35202696 12.23179891 -15 2 C-13.44240657 1.46467177 -11.87861955 0.94734622 -10.3125 0.4375 C-9.44238281 0.14746094 -8.57226562 -0.14257812 -7.67578125 -0.44140625 C-4.70538262 -1.06150407 -2.8858093 -0.88570404 0 0 Z " fill="#847AD4" transform="translate(15,57)"/>
<path d="M0 0 C5.31579262 4.27574624 7.97098461 9.31462847 9 16 C9.08080894 18.49499771 9.10760161 20.99199506 9.09765625 23.48828125 C9.0962413 24.19147995 9.09482635 24.89467865 9.09336853 25.6191864 C9.08780109 27.85033544 9.07525475 30.08138164 9.0625 32.3125 C9.05748079 33.83137875 9.05291862 35.35025909 9.04882812 36.86914062 C9.03784236 40.57946012 9.02060034 44.28972001 9 48 C4.71 48 0.42 48 -4 48 C-4.33 47.01 -4.66 46.02 -5 45 C-5.721875 45.474375 -6.44375 45.94875 -7.1875 46.4375 C-13.32209627 49.84560904 -19.95677159 49.75805454 -26.625 47.875 C-31.84558019 46.01305246 -34.51691895 42.9661621 -37 38 C-37.80889711 31.48904129 -36.90069977 27.2712159 -33 22 C-28.71448107 18.7858608 -24.71321367 17.93238173 -19.453125 17.68359375 C-18.60878906 17.64169922 -17.76445312 17.59980469 -16.89453125 17.55664062 C-15.58548828 17.49766602 -15.58548828 17.49766602 -14.25 17.4375 C-12.91775391 17.37272461 -12.91775391 17.37272461 -11.55859375 17.30664062 C-9.37254037 17.20086385 -7.18637911 17.09877454 -5 17 C-6.07401108 14.08482708 -6.77810176 12.22189824 -9 10 C-15.13682442 8.45709329 -20.18732567 8.92024654 -25.9921875 11.30859375 C-28 12 -28 12 -32 12 C-35 6.72 -35 6.72 -35 3.8125 C-33.20452898 0.55820878 -30.50429586 -0.51367142 -27.0546875 -1.62890625 C-18.02770285 -3.94227328 -8.48201817 -4.27521077 0 0 Z M-24 30 C-24.41746608 33.12635209 -24.41746608 33.12635209 -24 36 C-19.70229836 38.68606353 -16.78446542 39.45562589 -11.8984375 38.56640625 C-8.79676792 37.641011 -7.1171936 36.43798051 -5 34 C-4.59960884 31.67723387 -4.25939054 29.34270615 -4 27 C-6.39652528 26.91860858 -8.79025436 26.85932991 -11.1875 26.8125 C-12.19780273 26.77479492 -12.19780273 26.77479492 -13.22851562 26.73632812 C-17.66396304 26.67141914 -20.55025535 27.13405829 -24 30 Z " fill="#3D3D3D" transform="translate(390,47)"/>
<path d="M0 0 C0.99 0.33 1.98 0.66 3 1 C3.6359983 18.87861886 2.01112052 32.39661716 -10.13671875 46.4765625 C-18.84508524 55.56487517 -28.06014153 60.76503538 -40.25 63.8125 C-44.4017574 62.5858444 -46.25450789 59.91038431 -48.6953125 56.43359375 C-50 54 -50 54 -50.3125 50.5 C-47.73002455 43.61339881 -44.91708332 38.55151422 -38.0625 35.375 C-37.20527344 34.99472656 -36.34804687 34.61445312 -35.46484375 34.22265625 C-28.70679573 30.87040739 -25.20593256 25.52999158 -22.7109375 18.578125 C-21.64381526 14.70834104 -21.25827114 11.00320274 -21 7 C-17.82813131 6.00054904 -16.95129143 6.01416977 -13.5625 7 C-9.17219798 8.27539223 -9.17219798 8.27539223 -5 7 C-3.09522693 4.80662495 -1.51765838 2.47346025 0 0 Z " fill="#917BCB" transform="translate(103,58)"/>
<path d="M0 0 C4.9679978 3.03836775 8.05925589 7.64858289 9.8203125 13.11328125 C9.98588391 15.93707491 10.05384414 18.65656759 10.015625 21.4765625 C10.0127951 22.26854538 10.00996521 23.06052826 10.00704956 23.87651062 C9.99590113 26.39309124 9.97080672 28.90930914 9.9453125 31.42578125 C9.93527579 33.13736463 9.92615114 34.84895362 9.91796875 36.56054688 C9.89597931 40.74493031 9.86148658 44.92904439 9.8203125 49.11328125 C5.5303125 49.11328125 1.2403125 49.11328125 -3.1796875 49.11328125 C-3.19427002 48.17009033 -3.20885254 47.22689941 -3.22387695 46.25512695 C-3.28508356 42.74169464 -3.35926258 39.22902679 -3.44213867 35.71606445 C-3.47530666 34.19826504 -3.50336382 32.68034469 -3.52612305 31.16235352 C-3.55982028 28.97490106 -3.61213954 26.78854861 -3.66796875 24.6015625 C-3.69415283 23.28712158 -3.72033691 21.97268066 -3.74731445 20.6184082 C-4.19865417 16.95952382 -4.96496161 15.02517909 -7.1796875 12.11328125 C-10.6289307 10.38865965 -14.40100181 10.74718021 -18.1796875 11.11328125 C-21.03961772 12.33027283 -22.56906162 13.19369327 -24.28271484 15.77441406 C-25.51441636 18.98609084 -25.50927513 21.84984483 -25.59375 25.28515625 C-25.61311615 25.96757385 -25.6324823 26.64999146 -25.6524353 27.35308838 C-25.71199848 29.52302733 -25.75852196 31.69302002 -25.8046875 33.86328125 C-25.84288881 35.33856422 -25.8819418 36.8138254 -25.921875 38.2890625 C-26.01767985 41.89693543 -26.10179666 45.50497208 -26.1796875 49.11328125 C-30.4696875 49.11328125 -34.7596875 49.11328125 -39.1796875 49.11328125 C-39.1796875 32.61328125 -39.1796875 16.11328125 -39.1796875 -0.88671875 C-35.2196875 -0.88671875 -31.2596875 -0.88671875 -27.1796875 -0.88671875 C-26.8496875 0.10328125 -26.5196875 1.09328125 -26.1796875 2.11328125 C-25.27089844 1.68015625 -25.27089844 1.68015625 -24.34375 1.23828125 C-16.16496824 -2.38554821 -8.44395403 -3.60662814 0 0 Z " fill="#3D3D3D" transform="translate(477.1796875,45.88671875)"/>
<path d="M0 0 C18.48 0 36.96 0 56 0 C56 3.63 56 7.26 56 11 C49.07 11 42.14 11 35 11 C35 28.82 35 46.64 35 65 C30.38 65 25.76 65 21 65 C21 47.18 21 29.36 21 11 C14.07 11 7.14 11 0 11 C0 7.37 0 3.74 0 0 Z " fill="#3D3D3D" transform="translate(258,30)"/>
<path d="M0 0 C0 3.96 0 7.92 0 12 C-3 13 -3 13 -5.12109375 13.32421875 C-5.88550781 13.44410156 -6.64992188 13.56398438 -7.4375 13.6875 C-8.58025391 13.84798828 -8.58025391 13.84798828 -9.74609375 14.01171875 C-13.17587622 15.51559217 -14.19202944 17.77422315 -16 21 C-16.63314065 24.46676459 -16.63314065 24.46676459 -16.609375 28.1484375 C-16.62591125 28.80582916 -16.64244751 29.46322083 -16.65948486 30.14053345 C-16.70766603 32.21878676 -16.72926614 34.29631026 -16.75 36.375 C-16.77818516 37.79300488 -16.80811613 39.21097621 -16.83984375 40.62890625 C-16.91667391 44.0862633 -16.95745849 47.54137538 -17 51 C-21.29 51 -25.58 51 -30 51 C-30 34.5 -30 18 -30 1 C-26.04 1 -22.08 1 -18 1 C-17.67 2.32 -17.34 3.64 -17 5 C-16.0925 4.360625 -15.185 3.72125 -14.25 3.0625 C-9.25589019 -0.10683892 -5.90317289 -0.11352256 0 0 Z " fill="#3D3D3D" transform="translate(349,44)"/>
<path d="M0 0 C4.29 0 8.58 0 13 0 C13 16.5 13 33 13 50 C8.71 50 4.42 50 0 50 C0 33.5 0 17 0 0 Z " fill="#3D3D3D" transform="translate(411,45)"/>
<path d="M0 0 C3.80484394 0.71340824 5.4511805 1.6388541 8 4.5625 C8.63210717 8.49561127 8.60020266 10.58717068 6.5 14 C2.98305319 16.19809176 0.04133533 16.37407964 -4 15.5625 C-6.5 13.9375 -6.5 13.9375 -8 11.5625 C-8.5625 8.625 -8.5625 8.625 -8 5.5625 C-5.53959272 2.23371368 -4.10389613 0.76948052 0 0 Z " fill="#3D3D3D" transform="translate(418,22.4375)"/>
<path d="M0 0 C1.32 0 2.64 0 4 0 C3.54636829 1.58468677 3.08688548 3.16769924 2.625 4.75 C2.24214844 6.07257813 2.24214844 6.07257813 1.8515625 7.421875 C0.36156023 11.93289104 -1.22254147 14.48203026 -4.875 17.5625 C-5.55304688 18.14128906 -6.23109375 18.72007813 -6.9296875 19.31640625 C-10.56565778 22.27320472 -13.6481986 24.25927944 -18 26 C-19.36365283 26.95824253 -20.70794169 27.94721175 -22 29 C-20.69227883 23.88799905 -18.86431517 21.53543728 -15 18 C-13.47372545 16.48462742 -11.95333885 14.96331147 -10.4375 13.4375 C-6 9 -6 9 -3.80078125 6.89453125 C-1.75449677 4.7417157 -0.93241272 2.79723815 0 0 Z " fill="#9383D2" transform="translate(87,78)"/>
<path d="M0 0 C0.66 0.33 1.32 0.66 2 1 C-2.22948983 5.27880227 -6.46541185 9.55108979 -10.70751953 13.81738281 C-12.15072972 15.27067173 -13.59214264 16.7257477 -15.03173828 18.18261719 C-17.09722341 20.27226835 -19.16901486 22.35547908 -21.2421875 24.4375 C-21.88807831 25.09371338 -22.53396912 25.74992676 -23.19943237 26.42602539 C-23.79990387 27.02664795 -24.40037537 27.62727051 -25.01904297 28.24609375 C-25.8118013 29.04551392 -25.8118013 29.04551392 -26.62057495 29.86108398 C-28 31 -28 31 -30 31 C-28.38307323 26.91872097 -25.45723356 24.19395646 -22.375 21.1875 C-21.83520508 20.65415039 -21.29541016 20.12080078 -20.73925781 19.57128906 C-17.23426756 16.13317996 -13.63048749 12.8499946 -9.890625 9.66796875 C-6.42990183 6.61481008 -3.22315813 3.30030819 0 0 Z " fill="#868CE8" transform="translate(51,10)"/>
<path d="M0 0 C1 2 1 2 0.42578125 4.13671875 C-2.99282572 11.96952701 -8.12584317 15.77822534 -16 19 C-16.66 18.67 -17.32 18.34 -18 18 C-12 12 -6 6 0 0 Z " fill="#9990DD" transform="translate(85,83)"/>
<path d="M0 0 C4.455 0.99 4.455 0.99 9 2 C10 6 10 6 8.5625 8.75 C7.7890625 9.86375 7.7890625 9.86375 7 11 C4.84622436 8.37801226 3.59927826 6.35595828 3 3 C2.01 3 1.02 3 0 3 C0 2.01 0 1.02 0 0 Z " fill="#938BDC" transform="translate(41,95)"/>
<path d="M0 0 C0.66 0.33 1.32 0.66 2 1 C-1.3 4.3 -4.6 7.6 -8 11 C-8.33 10.01 -8.66 9.02 -9 8 C-6.03 5.36 -3.06 2.72 0 0 Z M-10 11 C-10 14 -10 14 -10 14 Z " fill="#8C73C4" transform="translate(75,100)"/>
<path d="M0 0 C0.66 0.33 1.32 0.66 2 1 C-0.28554916 4.42832374 -1.29615153 4.58901011 -5 6 C-6.36365283 6.95824253 -7.70794169 7.94721175 -9 9 C-7.48328036 4.44984107 -3.83108947 2.49942736 0 0 Z " fill="#9485D5" transform="translate(74,98)"/>
<path d="M0 0 C1.98 0.66 3.96 1.32 6 2 C5.67 3.65 5.34 5.3 5 7 C4.34 7 3.68 7 3 7 C2.67 5.68 2.34 4.36 2 3 C1.34 3 0.68 3 0 3 C0 2.01 0 1.02 0 0 Z " fill="#9A97E5" transform="translate(45,96)"/>
<path d="M0 0 C0.33 0.99 0.66 1.98 1 3 C-1.64 4.98 -4.28 6.96 -7 9 C-5.04783565 5.09567131 -3.12613393 2.96160056 0 0 Z " fill="#9E9CE7" transform="translate(79,89)"/>
</svg>
